<svg width="40" height="40" viewBox="0 0 40 40" fill="none" xmlns="http://www.w3.org/2000/svg">
<g filter="url(#filter0_d_1093_8925)">
<rect x="4" y="2" width="32" height="32" rx="6" fill="white" shape-rendering="crispEdges"/>
<path d="M27.875 9H12.125C11.5025 9 11 9.5025 11 10.125V25.875C11 26.49 11.5025 27 12.125 27H27.875C28.49 27 29 26.49 29 25.875V10.125C29 9.5025 28.49 9 27.875 9ZM16.625 23.157C16.88 23.157 17.0938 23.3595 17.0938 23.6257C17.0938 23.8807 16.8837 24.0945 16.625 24.0945C14.705 24.0945 13.1525 22.5345 13.1525 20.6258C13.1525 18.7058 14.705 17.1533 16.6175 17.157C16.8725 17.157 17.0825 17.3595 17.0825 17.6258C17.0825 17.8808 16.8725 18.0945 16.61 18.0945C15.2075 18.0945 14.075 19.227 14.075 20.6258C14.075 22.0208 15.2075 23.157 16.6025 23.157H16.625ZM19.1 19.8345L20.555 20.562C21.47 21.012 21.845 22.1295 21.3875 23.052C21.0725 23.682 20.42 24.087 19.715 24.0795H18.1025C17.84 24.0795 17.6337 23.8695 17.6337 23.6108C17.6337 23.3483 17.8363 23.142 18.1025 23.142H19.7075C20.21 23.142 20.6225 22.7295 20.6225 22.2195C20.6225 21.867 20.42 21.5445 20.105 21.387L18.6425 20.652C17.72 20.187 17.345 19.077 17.8025 18.1545C18.11 17.517 18.7625 17.1195 19.4675 17.1195H21.0725C21.3275 17.1195 21.5413 17.322 21.5413 17.5883C21.5413 17.8433 21.3313 18.057 21.0725 18.057H19.46C18.95 18.057 18.5375 18.4695 18.5375 18.9795C18.5375 19.3245 18.7325 19.6395 19.04 19.797L19.1 19.8345ZM23.6 19.8345L25.055 20.562C25.97 21.012 26.345 22.1295 25.8875 23.052C25.5725 23.682 24.92 24.087 24.215 24.0795H22.6025C22.34 24.0795 22.1337 23.8695 22.1337 23.6108C22.1337 23.3483 22.3363 23.142 22.6025 23.142H24.2075C24.71 23.142 25.1225 22.7295 25.1225 22.2195C25.1225 21.867 24.92 21.5445 24.605 21.387L23.1425 20.652C22.22 20.187 21.845 19.077 22.3025 18.1545C22.61 17.517 23.2625 17.1195 23.9675 17.1195H25.5725C25.8275 17.1195 26.0413 17.322 26.0413 17.5883C26.0413 17.8433 25.8313 18.057 25.5725 18.057H23.96C23.45 18.057 23.0375 18.4695 23.0375 18.9795C23.0375 19.3245 23.2325 19.6395 23.54 19.797L23.6 19.8345Z" fill="#87A2C2"/>
<rect x="4.5" y="2.5" width="31" height="31" rx="5.5" stroke="#E1E5E9" shape-rendering="crispEdges"/>
</g>
<defs>
<filter id="filter0_d_1093_8925" x="0" y="0" width="40" height="40" filterUnits="userSpaceOnUse" color-interpolation-filters="sRGB">
<feFlood flood-opacity="0" result="BackgroundImageFix"/>
<feColorMatrix in="SourceAlpha" type="matrix" values="0 0 0 0 0 0 0 0 0 0 0 0 0 0 0 0 0 0 127 0" result="hardAlpha"/>
<feOffset dy="2"/>
<feGaussianBlur stdDeviation="2"/>
<feComposite in2="hardAlpha" operator="out"/>
<feColorMatrix type="matrix" values="0 0 0 0 0 0 0 0 0 0 0 0 0 0 0 0 0 0 0.06 0"/>
<feBlend mode="normal" in2="BackgroundImageFix" result="effect1_dropShadow_1093_8925"/>
<feBlend mode="normal" in="SourceGraphic" in2="effect1_dropShadow_1093_8925" result="shape"/>
</filter>
</defs>
</svg>
