<svg width="16" height="16" viewBox="0 0 16 16" fill="none" xmlns="http://www.w3.org/2000/svg">
<g clip-path="url(#clip0_405_12496)">
<path d="M15.4065 13.3332L9.17325 1.43332C8.82659 0.779993 8.01993 0.526662 7.37327 0.866658C7.1266 0.986657 6.93327 1.18666 6.80661 1.42665L0.573335 13.3265H0.566668C0.220005 13.9732 0.473336 14.7799 1.12666 15.1199C1.31333 15.2198 1.52666 15.2665 1.73999 15.2665H14.1999C14.9332 15.2665 15.5332 14.6665 15.5332 13.9332C15.5332 13.7132 15.4799 13.4999 15.3799 13.3132L15.4065 13.3332ZM7.3266 5.61528C7.3266 5.24195 7.61993 4.94862 7.99326 4.94862C8.35992 4.94862 8.65992 5.24195 8.65992 5.61528V9.61524C8.65992 9.9819 8.35992 10.2819 7.99326 10.2819C7.61993 10.2819 7.3266 9.9819 7.3266 9.61524V5.61528ZM8.02659 13.2885H8.00659C7.45993 13.2819 7.0066 12.8485 6.9866 12.3085C6.9666 11.7619 7.3866 11.3086 7.93326 11.2886C7.93326 11.2819 7.93993 11.2819 7.94659 11.2819H7.95993C8.49992 11.2819 8.95325 11.7086 8.97325 12.2552C8.99325 12.7952 8.56659 13.2485 8.02659 13.2752C8.01326 13.2752 8.00659 13.2752 7.99993 13.2752L8.02659 13.2885Z" fill="white"/>
</g>
<defs>
<clipPath id="clip0_405_12496">
<rect width="16" height="16" fill="white"/>
</clipPath>
</defs>
</svg>
