<svg id="e7zmt3l6yoy61" xmlns="http://www.w3.org/2000/svg" xmlns:xlink="http://www.w3.org/1999/xlink" viewBox="0 0 42 42" shape-rendering="geometricPrecision" text-rendering="geometricPrecision"><style><![CDATA[#e7zmt3l6yoy64_to {animation: e7zmt3l6yoy64_to__to 3000ms linear infinite normal forwards}@keyframes e7zmt3l6yoy64_to__to { 0% {transform: translate(15px,18px)} 40% {transform: translate(15px,18px)} 43.333333% {transform: translate(16px,18px)} 46.666667% {transform: translate(15px,18px)} 53.333333% {transform: translate(15px,18px)} 56.666667% {transform: translate(16px,18px)} 60% {transform: translate(15px,18px)} 66.666667% {transform: translate(15px,18px)} 70% {transform: translate(16px,18px)} 73.333333% {transform: translate(15px,18px)} 100% {transform: translate(15px,18px)} }#e7zmt3l6yoy65_tr {animation: e7zmt3l6yoy65_tr__tr 3000ms linear infinite normal forwards}@keyframes e7zmt3l6yoy65_tr__tr { 0% {transform: translate(28px,17px) rotate(0deg)} 10% {transform: translate(28px,17px) rotate(0deg)} 23.333333% {transform: translate(28px,17px) rotate(45deg)} 86.666667% {transform: translate(28px,17px) rotate(45deg)} 90% {transform: translate(28px,17px) rotate(0deg)} 100% {transform: translate(28px,17px) rotate(0deg)} }#e7zmt3l6yoy66_to {animation: e7zmt3l6yoy66_to__to 3000ms linear infinite normal forwards}@keyframes e7zmt3l6yoy66_to__to { 0% {offset-distance: 0%} 56.666667% {offset-distance: 0%} 70% {offset-distance: 100%} 100% {offset-distance: 100%} }#e7zmt3l6yoy66 {animation: e7zmt3l6yoy66_c_o 3000ms linear infinite normal forwards}@keyframes e7zmt3l6yoy66_c_o { 0% {opacity: 0} 56.666667% {opacity: 0} 60% {opacity: 1} 63.333333% {opacity: 1} 66.666667% {opacity: 0} 100% {opacity: 0} }#e7zmt3l6yoy67_to {animation: e7zmt3l6yoy67_to__to 3000ms linear infinite normal forwards}@keyframes e7zmt3l6yoy67_to__to { 0% {offset-distance: 0%} 30% {offset-distance: 0%} 43.333333% {offset-distance: 100%} 100% {offset-distance: 100%} }#e7zmt3l6yoy67 {animation: e7zmt3l6yoy67_c_o 3000ms linear infinite normal forwards}@keyframes e7zmt3l6yoy67_c_o { 0% {opacity: 0} 30% {opacity: 0} 33.333333% {opacity: 1} 40% {opacity: 1} 43.333333% {opacity: 0} 100% {opacity: 0} }#e7zmt3l6yoy68_to {animation: e7zmt3l6yoy68_to__to 3000ms linear infinite normal forwards}@keyframes e7zmt3l6yoy68_to__to { 0% {offset-distance: 0%} 43.333333% {offset-distance: 0%} 56.666667% {offset-distance: 100%} 100% {offset-distance: 100%} }#e7zmt3l6yoy68 {animation: e7zmt3l6yoy68_c_o 3000ms linear infinite normal forwards}@keyframes e7zmt3l6yoy68_c_o { 0% {opacity: 0} 43.333333% {opacity: 0} 46.666667% {opacity: 1} 50% {opacity: 1} 53.333333% {opacity: 0} 100% {opacity: 0} }#e7zmt3l6yoy69_tr {animation: e7zmt3l6yoy69_tr__tr 3000ms linear infinite normal forwards}@keyframes e7zmt3l6yoy69_tr__tr { 0% {transform: translate(6.500000px,35.500000px) rotate(0deg)} 100% {transform: translate(6.500000px,35.500000px) rotate(540deg)} }]]></style><g id="e7zmt3l6yoy62"><circle id="e7zmt3l6yoy63" r="21" transform="matrix(1 0 0 1 21 21)" fill="rgb(214,236,255)" fill-rule="evenodd" stroke="none" stroke-width="1"/><g id="e7zmt3l6yoy64_to" transform="translate(15,18)"><path id="e7zmt3l6yoy64" d="M11.625000,0L0.375000,0L0.375000,0C0.167894,0,0,0.171624,0,0.383333C0,0.383333,0,0.383333,0,0.383333L0,9.966667L0,9.966667C0,10.813504,0.671573,11.500000,1.500000,11.500000L10.500000,11.500000L10.500000,11.500000C11.328427,11.500000,12,10.813504,12,9.966667L12,0.383334L12,0.383334C12,0.171625,11.832106,0,11.625000,0L11.625000,0ZM4.500000,8.907407L4.500000,8.907407C4.500000,9.234688,4.276143,9.500000,4,9.500000C3.723857,9.500000,3.500000,9.234688,3.500000,8.907407L3.500000,2.092593L3.500000,2.092593C3.500000,1.765312,3.723857,1.500000,4,1.500000C4.276143,1.500000,4.500000,1.765312,4.500000,2.092593C4.500000,2.092593,4.500000,2.092593,4.500000,2.092593L4.500000,8.907407ZM8.500000,8.907407L8.500000,8.907407C8.500000,9.234688,8.276143,9.500000,8,9.500000C7.723857,9.500000,7.500000,9.234688,7.500000,8.907407L7.500000,2.092593L7.500000,2.092593C7.500000,1.765312,7.723857,1.500000,8,1.500000C8.276143,1.500000,8.500000,1.765312,8.500000,2.092593C8.500000,2.092593,8.500000,2.092593,8.500000,2.092593L8.500000,8.907407Z" transform="translate(0,0)" fill="rgb(62,153,230)" stroke="none" stroke-width="1"/></g><g id="e7zmt3l6yoy65_tr" transform="translate(28,17) rotate(0)"><path id="e7zmt3l6yoy65" d="M24.360018,14.520607C23.905965,12.747674,22.032473,11.661840,20.175453,12.095333C18.921157,12.388128,17.941834,13.323107,17.635152,14.520607C16.664900,14.594037,15.715012,14.825728,14.826766,15.205615C14.351586,15.397953,14.031381,15.830500,14.000070,16.322344C13.994658,16.691401,14.303639,16.994769,14.690199,16.999934C14.693488,17,14.696778,17,14.700067,17L27.300003,17C27.682538,17,27.994262,16.706896,28,16.341724C27.988634,15.866390,27.696318,15.438191,27.245404,15.236358C26.337039,14.832670,25.359326,14.590138,24.360018,14.520607ZM22.820026,14.386279C21.607728,14.318807,20.392338,14.318807,19.180042,14.386279C19.520307,13.734833,20.221539,13.327224,20.983933,13.337716C21.755590,13.323417,22.468256,13.730409,22.820026,14.386279Z" transform="translate(-28,-17)" fill="rgb(62,153,230)" stroke="none" stroke-width="1"/></g><g id="e7zmt3l6yoy66_to" style="offset-path:path('M11.347108,9.422316C14.485279,6.718565,23.528905,18.514499,21.368272,20.376033');offset-rotate:0deg"><rect id="e7zmt3l6yoy66" width="4" height="4" rx="0.750000" ry="1" transform="translate(-3,0)" opacity="0" fill="rgb(62,153,230)" fill-rule="evenodd" stroke="none" stroke-width="1"/></g><g id="e7zmt3l6yoy67_to" style="offset-path:path('M8.342976,8.514719C11.901434,6.558462,24.284414,18.570432,21,20.376033');offset-rotate:0deg"><rect id="e7zmt3l6yoy67" width="4" height="4" rx="1.500000" ry="1.500000" transform="translate(-1.500000,-1.500000)" opacity="0" fill="rgb(62,153,230)" fill-rule="evenodd" stroke="none" stroke-width="1"/></g><g id="e7zmt3l6yoy68_to" style="offset-path:path('M12.086777,7.600505C14.520927,7.741771,23.910414,20.441399,21.368272,20.376033');offset-rotate:0deg"><rect id="e7zmt3l6yoy68" width="4" height="4" rx="1.500000" ry="1.500000" transform="translate(-1.500000,-1.500000)" opacity="0" fill="rgb(62,153,230)" fill-rule="evenodd" stroke="none" stroke-width="1"/></g></g><g id="e7zmt3l6yoy69_tr" transform="translate(6.500000,35.500000) rotate(0)"><path id="e7zmt3l6yoy69" d="M12.145139,5.288957L11.459367,5.045729C11.260782,4.975131,11.101437,4.823644,11.020889,4.628874C10.940341,4.434104,10.946143,4.214313,11.036854,4.024064L11.036854,4.024064L11.348864,3.366970C11.582069,2.875284,11.480861,2.290059,11.096077,1.905257C10.711294,1.520455,10.126097,1.419243,9.634434,1.652459L8.977372,1.965025C8.787023,2.055329,8.567335,2.060791,8.372735,1.980056C8.178134,1.899321,8.026827,1.739944,7.956298,1.541408L7.712541,0.856146C7.529787,0.343557,7.044422,0.001303,6.500252,0.001303C5.956082,0.001303,5.470718,0.343557,5.287964,0.856146L5.044206,1.541950C4.973565,1.740388,4.822211,1.899637,4.627623,1.980263C4.433036,2.060889,4.213411,2.055353,4.023133,1.965025L3.366070,1.652459C2.874408,1.419243,2.289211,1.520455,1.904427,1.905257C1.519644,2.290059,1.418436,2.875284,1.651641,3.366970L1.963651,4.024064C2.054185,4.214336,2.059896,4.434053,1.979369,4.628772C1.898842,4.823491,1.739613,4.974989,1.541138,5.045729L0.855366,5.289498C0.342670,5.471988,0.000252,5.957345,0.000252,6.501574C0.000252,7.045803,0.342670,7.531160,0.855366,7.713650L1.541138,7.957419C1.739578,8.028036,1.898807,8.179432,1.979342,8.374067C2.059876,8.568701,2.054175,8.788348,1.963651,8.978542L1.651641,9.635636C1.418436,10.127322,1.519644,10.712547,1.904427,11.097349C2.289211,11.482151,2.874408,11.583363,3.366070,11.350147L4.023133,11.038122C4.213366,10.947440,4.433137,10.941722,4.627828,11.022391C4.822518,11.103060,4.973848,11.262541,5.044206,11.461198L5.287964,12.146461C5.470718,12.659049,5.956082,13.001303,6.500252,13.001303C7.044422,13.001303,7.529787,12.659049,7.712541,12.146461L7.956298,11.460656C8.026912,11.262206,8.178300,11.102969,8.372926,11.022431C8.567551,10.941892,8.787187,10.947594,8.977372,11.038122L9.634434,11.350147C10.126097,11.583363,10.711294,11.482151,11.096077,11.097349C11.480861,10.712547,11.582069,10.127322,11.348864,9.635636L11.036854,8.978542C10.946330,8.788348,10.940628,8.568701,11.021163,8.374067C11.101698,8.179432,11.260927,8.028036,11.459367,7.957419L12.145139,7.713108C12.657835,7.530619,13.000252,7.045261,13.000252,6.501032C13.000252,5.956803,12.657835,5.471446,12.145139,5.288957ZM6.500506,8.937961C5.522257,8.923714,4.642152,8.337988,4.248136,7.438967C3.734472,6.190271,4.324308,4.759764,5.566794,4.240877C6.810551,3.741521,8.224055,4.328935,8.752369,5.564716C9.266033,6.813412,8.676196,8.243919,7.433710,8.762807C7.137933,8.884940,6.820257,8.944565,6.500506,8.937961Z" transform="translate(-6.500252,-6.501303)" fill="rgb(46,104,154)" stroke="none" stroke-width="1"/></g></svg>