<svg id="etc9x7gjmop1" xmlns="http://www.w3.org/2000/svg" xmlns:xlink="http://www.w3.org/1999/xlink" viewBox="0 0 42 42" shape-rendering="geometricPrecision" text-rendering="geometricPrecision"><style><![CDATA[#etc9x7gjmop4_to {animation: etc9x7gjmop4_to__to 3000ms linear infinite normal forwards}@keyframes etc9x7gjmop4_to__to { 0% {transform: translate(13px,18px);animation-timing-function: cubic-bezier(0.420000,0,1,1)} 63.333333% {transform: translate(13px,18px);animation-timing-function: cubic-bezier(0.420000,0,1,1)} 76.666667% {transform: translate(13px,-5px)} 83.333333% {transform: translate(13px,22px)} 100% {transform: translate(13px,18px)} }#etc9x7gjmop4 {animation: etc9x7gjmop4_c_o 3000ms linear infinite normal forwards}@keyframes etc9x7gjmop4_c_o { 0% {opacity: 1} 70% {opacity: 1} 76.666667% {opacity: 0} 83.333333% {opacity: 0} 100% {opacity: 1} }#etc9x7gjmop5_to {animation: etc9x7gjmop5_to__to 3000ms linear infinite normal forwards}@keyframes etc9x7gjmop5_to__to { 0% {transform: translate(0px,23px)} 23.333333% {transform: translate(0px,20px)} 50% {transform: translate(0px,23px);animation-timing-function: cubic-bezier(0.420000,0,1,1)} 66.666667% {transform: translate(0px,12px)} 76.666667% {transform: translate(0px,27px)} 83.333333% {transform: translate(0px,27px)} 100% {transform: translate(0px,23px)} }#etc9x7gjmop5 {animation: etc9x7gjmop5_c_o 3000ms linear infinite normal forwards}@keyframes etc9x7gjmop5_c_o { 0% {opacity: 1} 60% {opacity: 1} 66.666667% {opacity: 0} 83.333333% {opacity: 0} 100% {opacity: 1} }#etc9x7gjmop6_tr {animation: etc9x7gjmop6_tr__tr 3000ms linear infinite normal forwards}@keyframes etc9x7gjmop6_tr__tr { 0% {transform: translate(6.500000px,35.500000px) rotate(0deg)} 100% {transform: translate(6.500000px,35.500000px) rotate(540deg)} }]]></style><circle id="etc9x7gjmop2" r="21" transform="matrix(1 0 0 1 21 21)" fill="rgb(214,236,255)" fill-rule="evenodd" stroke="none" stroke-width="1"/><g id="etc9x7gjmop3"><g id="etc9x7gjmop4_to" transform="translate(13,18)"><path id="etc9x7gjmop4" d="M14.500000,12L1.500000,12C0.671562,12,0,11.328437,0,10.500000L0,1.500000C0,0.671562,0.671562,0,1.500000,0L14.500000,0C15.328437,0,16,0.671562,16,1.500000L16,10.500000C16,11.328437,15.328437,12,14.500000,12ZM3.500000,1.750000C2.533500,1.750000,1.750000,2.533500,1.750000,3.500000C1.750000,4.466500,2.533500,5.250000,3.500000,5.250000C4.466500,5.250000,5.250000,4.466500,5.250000,3.500000C5.250000,2.533500,4.466500,1.750000,3.500000,1.750000ZM2,10L14,10L14,6.500000L11.265156,3.765156C11.118719,3.618719,10.881281,3.618719,10.734813,3.765156L6.500000,8L4.765156,6.265156C4.618719,6.118719,4.381281,6.118719,4.234813,6.265156L2,8.500000L2,10Z" transform="translate(0,0)" fill="rgb(62,153,230)" stroke="none" stroke-width="1"/></g><g id="etc9x7gjmop5_to" transform="translate(0,23)"><polygon id="etc9x7gjmop5" points="27,12 24,12 24,8 18,8 18,12 15,12 21,18" transform="rotate(-180) scale(-1,1) translate(0,0)" fill="rgb(62,153,230)" fill-rule="evenodd" stroke="none" stroke-width="1"/></g></g><g id="etc9x7gjmop6_tr" transform="translate(6.500000,35.500000) rotate(0)"><path id="etc9x7gjmop6" d="M12.145139,5.288957L11.459367,5.045729C11.260782,4.975131,11.101437,4.823644,11.020889,4.628874C10.940341,4.434104,10.946143,4.214314,11.036854,4.024064L11.036854,4.024064L11.348864,3.366971C11.582069,2.875285,11.480861,2.290059,11.096077,1.905257C10.711294,1.520456,10.126097,1.419243,9.634434,1.652459L8.977372,1.965026C8.787023,2.055330,8.567335,2.060791,8.372735,1.980056C8.178134,1.899321,8.026827,1.739944,7.956298,1.541409L7.712541,0.856146C7.529787,0.343557,7.044422,0.001303,6.500252,0.001303C5.956082,0.001303,5.470718,0.343557,5.287964,0.856146L5.044206,1.541950C4.973565,1.740388,4.822211,1.899637,4.627623,1.980263C4.433036,2.060889,4.213411,2.055353,4.023133,1.965026L3.366070,1.652459C2.874408,1.419243,2.289211,1.520456,1.904427,1.905257C1.519644,2.290059,1.418436,2.875285,1.651641,3.366971L1.963651,4.024064C2.054185,4.214336,2.059896,4.434053,1.979369,4.628772C1.898842,4.823491,1.739613,4.974990,1.541138,5.045729L0.855366,5.289498C0.342670,5.471988,0.000252,5.957345,0.000252,6.501574C0.000252,7.045803,0.342670,7.531160,0.855366,7.713650L1.541138,7.957419C1.739578,8.028036,1.898807,8.179432,1.979342,8.374067C2.059876,8.568702,2.054175,8.788348,1.963651,8.978542L1.651641,9.635636C1.418436,10.127322,1.519644,10.712547,1.904427,11.097349C2.289211,11.482151,2.874408,11.583364,3.366070,11.350147L4.023133,11.038123C4.213366,10.947440,4.433137,10.941723,4.627828,11.022391C4.822518,11.103060,4.973848,11.262541,5.044206,11.461198L5.287964,12.146461C5.470718,12.659049,5.956082,13.001303,6.500252,13.001303C7.044422,13.001303,7.529787,12.659049,7.712541,12.146461L7.956298,11.460656C8.026912,11.262206,8.178300,11.102970,8.372926,11.022431C8.567551,10.941893,8.787187,10.947594,8.977372,11.038123L9.634434,11.350147C10.126097,11.583364,10.711294,11.482151,11.096077,11.097349C11.480861,10.712547,11.582069,10.127322,11.348864,9.635636L11.036854,8.978542C10.946330,8.788348,10.940628,8.568702,11.021163,8.374067C11.101698,8.179432,11.260927,8.028036,11.459367,7.957419L12.145139,7.713108C12.657835,7.530619,13.000252,7.045261,13.000252,6.501032C13.000252,5.956804,12.657835,5.471446,12.145139,5.288957ZM6.500506,8.937961C5.522257,8.923714,4.642152,8.337988,4.248136,7.438967C3.734472,6.190271,4.324308,4.759764,5.566794,4.240877C6.810551,3.741521,8.224055,4.328936,8.752369,5.564716C9.266033,6.813413,8.676196,8.243920,7.433710,8.762807C7.137933,8.884941,6.820257,8.944566,6.500506,8.937961Z" transform="translate(-6.500252,-6.501303)" fill="rgb(46,104,154)" stroke="none" stroke-width="1"/></g></svg>