<svg id="ekPcYW6Eva31" xmlns="http://www.w3.org/2000/svg" xmlns:xlink="http://www.w3.org/1999/xlink" viewBox="0 0 42 42" shape-rendering="geometricPrecision" text-rendering="geometricPrecision"><style><![CDATA[#ekPcYW6Eva35_to {animation: ekPcYW6Eva35_to__to 2000ms linear infinite normal forwards}@keyframes ekPcYW6Eva35_to__to { 0% {transform: translate(7px,15.280377px)} 35% {transform: translate(7px,15.280377px);animation-timing-function: cubic-bezier(0,0,0.145000,0.895000)} 52.500000% {transform: translate(-2px,11px)} 82% {transform: translate(7px,15.280377px);animation-timing-function: cubic-bezier(0,0,0.145000,0.895000)} 100% {transform: translate(-2px,11px)}} #ekPcYW6Eva35 {animation: ekPcYW6Eva35_c_o 2000ms linear infinite normal forwards}@keyframes ekPcYW6Eva35_c_o { 0% {opacity: 0} 35% {opacity: 0} 37.500000% {opacity: 1} 48.500000% {opacity: 1} 52.500000% {opacity: 0} 82% {opacity: 0} 84.500000% {opacity: 1} 95.500000% {opacity: 1} 100% {opacity: 0}} #ekPcYW6Eva36_to {animation: ekPcYW6Eva36_to__to 2000ms linear infinite normal forwards}@keyframes ekPcYW6Eva36_to__to { 0% {transform: translate(5.500000px,9.500000px)} 43% {transform: translate(5.500000px,9.500000px);animation-timing-function: cubic-bezier(0,0,0.265000,0.940000)} 60% {transform: translate(-1.500000px,5.072528px)} 88% {transform: translate(6.600959px,10.500000px);animation-timing-function: cubic-bezier(0,0,0.265000,0.940000)} 100% {transform: translate(-1.500000px,5.072528px)}} #ekPcYW6Eva36 {animation: ekPcYW6Eva36_c_o 2000ms linear infinite normal forwards}@keyframes ekPcYW6Eva36_c_o { 0% {opacity: 0} 43% {opacity: 0} 45.500000% {opacity: 1} 56.500000% {opacity: 1} 60% {opacity: 0} 88% {opacity: 0} 90.500000% {opacity: 1} 97% {opacity: 1} 100% {opacity: 0}} #ekPcYW6Eva37_to {animation: ekPcYW6Eva37_to__to 2000ms linear infinite normal forwards}@keyframes ekPcYW6Eva37_to__to { 0% {transform: translate(24.500000px,9.500000px)} 20.500000% {transform: translate(24.500000px,9.500000px);animation-timing-function: cubic-bezier(0,0,0.115000,0.960000)} 37% {transform: translate(32.500000px,5.500000px)} 67% {transform: translate(24.500000px,9.500000px);animation-timing-function: cubic-bezier(0,0,0.115000,0.960000)} 83.500000% {transform: translate(32.500000px,5.500000px)} 100% {transform: translate(32.500000px,5.500000px)}} #ekPcYW6Eva37 {animation: ekPcYW6Eva37_c_o 2000ms linear infinite normal forwards}@keyframes ekPcYW6Eva37_c_o { 0% {opacity: 0} 20.500000% {opacity: 0} 23% {opacity: 1} 33.500000% {opacity: 1} 37% {opacity: 0} 67% {opacity: 0} 69.500000% {opacity: 1} 80% {opacity: 1} 83.500000% {opacity: 0} 100% {opacity: 0}} #ekPcYW6Eva38_to {animation: ekPcYW6Eva38_to__to 2000ms linear infinite normal forwards}@keyframes ekPcYW6Eva38_to__to { 0% {transform: translate(23px,13.500000px)} 12% {transform: translate(23px,13.500000px);animation-timing-function: cubic-bezier(0,0,0.115000,0.960000)} 29% {transform: translate(31.352734px,11.500000px)} 58.500000% {transform: translate(23px,13.500000px);animation-timing-function: cubic-bezier(0,0,0.115000,0.960000)} 75.500000% {transform: translate(31.352734px,11.500000px)} 100% {transform: translate(31.352734px,11.500000px)}} #ekPcYW6Eva38 {animation: ekPcYW6Eva38_c_o 2000ms linear infinite normal forwards}@keyframes ekPcYW6Eva38_c_o { 0% {opacity: 0} 12% {opacity: 0} 14.500000% {opacity: 1} 25.500000% {opacity: 1} 29% {opacity: 0} 58.500000% {opacity: 0} 61% {opacity: 1} 72% {opacity: 1} 75.500000% {opacity: 0} 100% {opacity: 0}} #ekPcYW6Eva310_tr {animation: ekPcYW6Eva310_tr__tr 2000ms linear infinite normal forwards}@keyframes ekPcYW6Eva310_tr__tr { 0% {transform: translate(21px,20.333333px) rotate(18deg);animation-timing-function: cubic-bezier(0,0,0.465000,1)} 25% {transform: translate(21px,20.333333px) rotate(-18deg);animation-timing-function: cubic-bezier(0,0,0.465000,1)} 50% {transform: translate(21px,20.333333px) rotate(18deg);animation-timing-function: cubic-bezier(0,0,0.465000,1)} 75% {transform: translate(21px,20.333333px) rotate(-18deg);animation-timing-function: cubic-bezier(0,0,0.465000,1)} 100% {transform: translate(21px,20.333333px) rotate(18deg)}} #ekPcYW6Eva311_tr {animation: ekPcYW6Eva311_tr__tr 2000ms linear infinite normal forwards}@keyframes ekPcYW6Eva311_tr__tr { 0% {transform: translate(6.500000px,35.500000px) rotate(0deg)} 100% {transform: translate(6.500000px,35.500000px) rotate(360deg)}}]]></style><g id="ekPcYW6Eva32"><circle id="ekPcYW6Eva33" r="21" transform="matrix(1 0 0 1 21 21)" fill="rgb(214,236,255)" fill-rule="evenodd" stroke="none" stroke-width="1"/><g id="ekPcYW6Eva34" transform="matrix(1 0 0 1 6 12)"><g id="ekPcYW6Eva35_to" transform="translate(7,15.280377)"><circle id="ekPcYW6Eva35" r="2" transform="translate(0,-0.280377)" opacity="0" fill="rgb(62,153,230)" fill-rule="evenodd" stroke="none" stroke-width="1"/></g><g id="ekPcYW6Eva36_to" transform="translate(5.500000,9.500000)"><circle id="ekPcYW6Eva36" r="1.500000" transform="translate(0,0)" opacity="0" fill="rgb(62,153,230)" fill-rule="evenodd" stroke="none" stroke-width="1"/></g><g id="ekPcYW6Eva37_to" transform="translate(24.500000,9.500000)"><circle id="ekPcYW6Eva37" r="1.500000" transform="translate(0,0)" opacity="0" fill="rgb(62,153,230)" fill-rule="evenodd" stroke="none" stroke-width="1"/></g><g id="ekPcYW6Eva38_to" transform="translate(23,13.500000)"><circle id="ekPcYW6Eva38" r="2.500000" transform="translate(0,0)" opacity="0" fill="rgb(62,153,230)" fill-rule="evenodd" stroke="none" stroke-width="1"/></g></g><g id="ekPcYW6Eva39" transform="matrix(1 0 0 1 0 -3)"><g id="ekPcYW6Eva310_tr" transform="translate(21,20.333333) rotate(18)"><path id="ekPcYW6Eva310" d="M1.159978,11.274759L14.839534,11.274759C15.259257,11.274759,15.599509,10.926394,15.599509,10.496664L15.599509,9.718568C15.599509,8.644243,14.748878,7.773330,13.699571,7.773330L10.149726,7.773330C10.096075,7.773144,10.044980,7.749834,10.008970,7.709115C9.972959,7.668396,9.955362,7.614033,9.960492,7.559354L10.430917,2.742943C10.520591,1.795823,10.077670,0.878628,9.288171,0.376555C8.498671,-0.125518,7.499321,-0.125518,6.709821,0.376555C5.920321,0.878628,5.477401,1.795823,5.567075,2.742943L6.037499,7.559354C6.042717,7.614059,6.025358,7.668507,5.989621,7.709526C5.953934,7.749654,5.903549,7.772769,5.850545,7.773330L2.299941,7.773330C1.250634,7.773330,0.400002,8.644243,0.400002,9.718568L0.400002,10.496664C0.400002,10.926394,0.740255,11.274759,1.159978,11.274759ZM8.759731,2.910234C8.759731,3.339964,8.419479,3.688329,7.999756,3.688329C7.580033,3.688329,7.239780,3.339964,7.239780,2.910234C7.239780,2.480503,7.580033,2.132138,7.999756,2.132138C8.419479,2.132138,8.759731,2.480503,8.759731,2.910234ZM15.879180,17.467620C15.199718,16.386570,14.838780,15.128015,14.839534,13.842474L14.839534,12.830950C14.839534,12.616085,14.669408,12.441902,14.459546,12.441902L1.539965,12.441902C1.330104,12.441902,1.159978,12.616085,1.159978,12.830950L1.159978,13.842474C1.160577,15.128236,0.799658,16.386996,0.120331,17.468398C-0.029749,17.707898,-0.040169,18.012174,0.093161,18.261846C0.226491,18.511518,0.482303,18.666761,0.760231,18.666667L1.895634,18.666667C2.785063,18.667552,3.615856,18.212456,4.108682,17.454393C4.269797,17.207736,4.442311,16.939294,4.610266,16.676297C4.655996,16.603811,4.742903,16.570836,4.823728,16.595301C4.904553,16.619767,4.959974,16.695826,4.959854,16.782118L4.959854,17.888570C4.959854,18.318300,5.300107,18.666667,5.719830,18.666667L15.239281,18.666667C15.517458,18.666944,15.773555,18.511593,15.906938,18.261660C16.040321,18.011726,16.029674,17.707151,15.879180,17.467620Z" transform="translate(-8,-9.333333)" fill="rgb(62,153,230)" stroke="none" stroke-width="1"/></g></g></g><g id="ekPcYW6Eva311_tr" transform="translate(6.500000,35.500000) rotate(0)"><path id="ekPcYW6Eva311" d="M12.145139,5.288957L11.459367,5.045729C11.260782,4.975131,11.101437,4.823644,11.020889,4.628874C10.940341,4.434104,10.946143,4.214314,11.036854,4.024064L11.036854,4.024064L11.348864,3.366971C11.582069,2.875285,11.480861,2.290059,11.096077,1.905257C10.711294,1.520456,10.126097,1.419243,9.634434,1.652459L8.977372,1.965026C8.787023,2.055330,8.567335,2.060791,8.372735,1.980056C8.178134,1.899321,8.026827,1.739944,7.956298,1.541409L7.712541,0.856146C7.529787,0.343557,7.044422,0.001303,6.500252,0.001303C5.956082,0.001303,5.470718,0.343557,5.287964,0.856146L5.044206,1.541950C4.973565,1.740388,4.822211,1.899637,4.627623,1.980263C4.433036,2.060889,4.213411,2.055353,4.023133,1.965026L3.366070,1.652459C2.874408,1.419243,2.289211,1.520456,1.904427,1.905257C1.519644,2.290059,1.418436,2.875285,1.651641,3.366971L1.963651,4.024064C2.054185,4.214336,2.059896,4.434053,1.979369,4.628772C1.898842,4.823491,1.739613,4.974990,1.541138,5.045729L0.855366,5.289498C0.342670,5.471988,0.000252,5.957345,0.000252,6.501574C0.000252,7.045803,0.342670,7.531160,0.855366,7.713650L1.541138,7.957419C1.739578,8.028036,1.898807,8.179432,1.979342,8.374067C2.059876,8.568702,2.054175,8.788348,1.963651,8.978542L1.651641,9.635636C1.418436,10.127322,1.519644,10.712547,1.904427,11.097349C2.289211,11.482151,2.874408,11.583364,3.366070,11.350147L4.023133,11.038123C4.213366,10.947440,4.433137,10.941723,4.627828,11.022391C4.822518,11.103060,4.973848,11.262541,5.044206,11.461198L5.287964,12.146461C5.470718,12.659049,5.956082,13.001303,6.500252,13.001303C7.044422,13.001303,7.529787,12.659049,7.712541,12.146461L7.956298,11.460656C8.026912,11.262206,8.178300,11.102970,8.372926,11.022431C8.567551,10.941893,8.787187,10.947594,8.977372,11.038123L9.634434,11.350147C10.126097,11.583364,10.711294,11.482151,11.096077,11.097349C11.480861,10.712547,11.582069,10.127322,11.348864,9.635636L11.036854,8.978542C10.946330,8.788348,10.940628,8.568702,11.021163,8.374067C11.101698,8.179432,11.260927,8.028036,11.459367,7.957419L12.145139,7.713108C12.657835,7.530619,13.000252,7.045261,13.000252,6.501032C13.000252,5.956804,12.657835,5.471446,12.145139,5.288957ZM6.500506,8.937961C5.522257,8.923714,4.642152,8.337988,4.248136,7.438967C3.734472,6.190271,4.324308,4.759764,5.566794,4.240877C6.810551,3.741521,8.224055,4.328936,8.752369,5.564716C9.266033,6.813413,8.676196,8.243920,7.433710,8.762807C7.137933,8.884941,6.820257,8.944566,6.500506,8.937961Z" transform="translate(-6.500252,-6.501303)" fill="rgb(46,104,154)" stroke="none" stroke-width="1"/></g></svg>