<svg id="eVP4MHN2rSf1" xmlns="http://www.w3.org/2000/svg" xmlns:xlink="http://www.w3.org/1999/xlink" viewBox="0 0 42 42" shape-rendering="geometricPrecision" text-rendering="geometricPrecision"><style><![CDATA[#eVP4MHN2rSf5_to {animation: eVP4MHN2rSf5_to__to 4000ms linear infinite normal forwards}@keyframes eVP4MHN2rSf5_to__to { 0% {transform: translate(21px,19px);animation-timing-function: cubic-bezier(0.420000,0,0.580000,1)} 25% {transform: translate(21px,15px);animation-timing-function: cubic-bezier(0.420000,0,0.580000,1)} 50% {transform: translate(21px,19px);animation-timing-function: cubic-bezier(0.420000,0,0.580000,1)} 75% {transform: translate(21px,15px);animation-timing-function: cubic-bezier(0.420000,0,0.580000,1)} 100% {transform: translate(21px,19px)}} #eVP4MHN2rSf7_tr {animation: eVP4MHN2rSf7_tr__tr 4000ms linear infinite normal forwards}@keyframes eVP4MHN2rSf7_tr__tr { 0% {transform: translate(6.500000px,35.500000px) rotate(0deg)} 100% {transform: translate(6.500000px,35.500000px) rotate(720deg)}}]]></style><g id="eVP4MHN2rSf2"><circle id="eVP4MHN2rSf3" r="21" transform="matrix(1 0 0 1 21 21)" fill="rgb(214,236,255)" fill-rule="evenodd" stroke="none" stroke-width="1"/><g id="eVP4MHN2rSf4" transform="matrix(0 -1 1 0 0 42)"><g id="eVP4MHN2rSf5_to" transform="translate(21,19)"><polygon id="eVP4MHN2rSf5" points="28,19 24,19 24,12 18,12 18,19 14,19 21,26" transform="translate(-21,-19)" fill="rgb(58,143,216)" stroke="none" stroke-width="1"/></g><polygon id="eVP4MHN2rSf6" points="0,0 0,2 14,2 14,0" transform="matrix(1 0 0 1 14 28)" fill="rgb(58,143,216)" stroke="none" stroke-width="1"/></g></g><g id="eVP4MHN2rSf7_tr" transform="translate(6.500000,35.500000) rotate(0)"><path id="eVP4MHN2rSf7" d="M12.145139,5.288957L11.459367,5.045729C11.260782,4.975131,11.101437,4.823644,11.020889,4.628874C10.940341,4.434104,10.946143,4.214314,11.036854,4.024064L11.036854,4.024064L11.348864,3.366971C11.582069,2.875285,11.480861,2.290059,11.096077,1.905257C10.711294,1.520456,10.126097,1.419243,9.634434,1.652459L8.977372,1.965026C8.787023,2.055330,8.567335,2.060791,8.372735,1.980056C8.178134,1.899321,8.026827,1.739944,7.956298,1.541409L7.712541,0.856146C7.529787,0.343557,7.044422,0.001303,6.500252,0.001303C5.956082,0.001303,5.470718,0.343557,5.287964,0.856146L5.044206,1.541950C4.973565,1.740388,4.822211,1.899637,4.627623,1.980263C4.433036,2.060889,4.213411,2.055353,4.023133,1.965026L3.366070,1.652459C2.874408,1.419243,2.289211,1.520456,1.904427,1.905257C1.519644,2.290059,1.418436,2.875285,1.651641,3.366971L1.963651,4.024064C2.054185,4.214336,2.059896,4.434053,1.979369,4.628772C1.898842,4.823491,1.739613,4.974990,1.541138,5.045729L0.855366,5.289498C0.342670,5.471988,0.000252,5.957345,0.000252,6.501574C0.000252,7.045803,0.342670,7.531160,0.855366,7.713650L1.541138,7.957419C1.739578,8.028036,1.898807,8.179432,1.979342,8.374067C2.059876,8.568702,2.054175,8.788348,1.963651,8.978542L1.651641,9.635636C1.418436,10.127322,1.519644,10.712547,1.904427,11.097349C2.289211,11.482151,2.874408,11.583364,3.366070,11.350147L4.023133,11.038123C4.213366,10.947440,4.433137,10.941723,4.627828,11.022391C4.822518,11.103060,4.973848,11.262541,5.044206,11.461198L5.287964,12.146461C5.470718,12.659049,5.956082,13.001303,6.500252,13.001303C7.044422,13.001303,7.529787,12.659049,7.712541,12.146461L7.956298,11.460656C8.026912,11.262206,8.178300,11.102970,8.372926,11.022431C8.567551,10.941893,8.787187,10.947594,8.977372,11.038123L9.634434,11.350147C10.126097,11.583364,10.711294,11.482151,11.096077,11.097349C11.480861,10.712547,11.582069,10.127322,11.348864,9.635636L11.036854,8.978542C10.946330,8.788348,10.940628,8.568702,11.021163,8.374067C11.101698,8.179432,11.260927,8.028036,11.459367,7.957419L12.145139,7.713108C12.657835,7.530619,13.000252,7.045261,13.000252,6.501032C13.000252,5.956804,12.657835,5.471446,12.145139,5.288957ZM6.500506,8.937961C5.522257,8.923714,4.642152,8.337988,4.248136,7.438967C3.734472,6.190271,4.324308,4.759764,5.566794,4.240877C6.810551,3.741521,8.224055,4.328936,8.752369,5.564716C9.266033,6.813413,8.676196,8.243920,7.433710,8.762807C7.137933,8.884941,6.820257,8.944566,6.500506,8.937961Z" transform="translate(-6.500252,-6.501303)" fill="rgb(46,104,154)" stroke="none" stroke-width="1"/></g></svg>