<svg xmlns="http://www.w3.org/2000/svg" width="24" height="24" viewBox="0 0 24 24">
  <path fill="#0073AA" d="M13.95,2.68421053 L17.55,1.34210526 L13.95,0 L10.35,1.34210526 L13.95,2.68421053 Z M14.4,3.57894737 L14.4,8.05263158 L18,6.71052632 L18,2.23684211 L14.4,3.57894737 Z M13.5,3.57894737 L9.9,2.23684211 L9.9,6.71052632 L13.5,8.05263158 L13.5,3.57894737 Z M4.05,2.68421053 L7.65,1.34210526 L4.05,0 L0.45,1.34210526 L4.05,2.68421053 Z M4.5,3.57894737 L4.5,8.05263158 L8.1,6.71052632 L8.1,2.23684211 L4.5,3.57894737 Z M3.6,3.57894737 L0,2.23684211 L0,6.71052632 L3.6,8.05263158 L3.6,3.57894737 Z M9,11.6315789 L12.6,10.2894737 L9,8.94736842 L5.4,10.2894737 L9,11.6315789 Z M9.45,12.5263158 L9.45,17 L13.05,15.6578947 L13.05,11.1842105 L9.45,12.5263158 Z M8.55,12.5263158 L4.95,11.1842105 L4.95,15.6578947 L8.55,17 L8.55,12.5263158 Z" transform="translate(3 4)"/>
</svg>
