<svg width="40" height="40" viewBox="0 0 40 40" fill="none" xmlns="http://www.w3.org/2000/svg">
<g clip-path="url(#clip0_1183_9705)">
<path d="M3.83937 31.0401C4.21645 31.0556 4.59739 31.1078 4.95223 31.2383V31.2344L5.00638 31.2538L9.68792 26.6873L9.86002 26.9164C10.1027 27.2452 10.3609 27.5459 10.6335 27.8466L10.7331 27.9616C10.8046 28.0332 10.8617 28.1047 10.9332 28.1763L11.0493 28.2903L11.1624 28.4054L11.2629 28.505L11.377 28.62L11.4776 28.7196L11.6062 28.8347L11.7222 28.9352C13.8927 30.7827 16.6318 31.8288 19.4813 31.8987C21.828 31.9577 24.1443 31.3574 26.1671 30.1661L26.5248 30.5383C26.9406 30.9821 27.3699 31.4259 27.7856 31.8697C25.2962 33.47 22.3825 34.2833 19.4242 34.2037C16.0871 34.1239 12.8762 32.9122 10.3183 30.7674L10.3328 30.7384L7.32878 33.6999C7.55672 34.4537 7.5412 35.2602 7.28443 36.0047C7.02766 36.7492 6.54271 37.3938 5.89854 37.8468C5.25437 38.2998 4.48377 38.5382 3.69631 38.5281C2.90885 38.518 2.14463 38.2599 1.51231 37.7905C0.879986 37.321 0.411755 36.6642 0.174194 35.9134C-0.0633666 35.1625 -0.058163 34.3559 0.189065 33.6082C0.436293 32.8605 0.91296 32.2098 1.55129 31.7486C2.18961 31.2873 2.9571 31.0391 3.74462 31.0391H3.84131L3.83937 31.0401ZM32.4681 11.7251C33.9379 14.1466 34.6782 16.9407 34.6001 19.7723C34.5157 23.2294 33.2127 26.5456 30.9212 29.1354L30.9357 29.1499L32.7824 31.1117C33.5268 31.0111 34.2713 31.2683 34.7867 31.8126C35.2085 32.2596 35.4362 32.8553 35.4201 33.4697C35.404 34.0841 35.1453 34.6671 34.7006 35.0912C34.2537 35.5128 33.6582 35.7404 33.044 35.7242C32.4299 35.7081 31.8471 35.4496 31.423 35.0052C31.1701 34.7378 30.9848 34.4138 30.8825 34.0603C30.7803 33.7068 30.764 33.3339 30.8351 32.9729C29.756 31.819 28.6731 30.6688 27.5864 29.5221L27.3989 29.322L27.6135 29.1499C28.1734 28.707 28.6913 28.2135 29.1605 27.6754C31.1174 25.4784 32.2289 22.6567 32.296 19.7153C32.3581 17.496 31.8239 15.3007 30.749 13.3582L32.4681 11.7251ZM6.37738 2.97406C7.03485 2.9644 7.65364 3.22448 8.11193 3.69341C8.36464 3.96108 8.54974 4.28525 8.65183 4.63893C8.75391 4.99261 8.77002 5.36555 8.69882 5.72672L12.2501 9.44913L12.0345 9.62123C11.4766 10.065 10.9613 10.5514 10.4885 11.0957C8.77367 13.0262 7.69888 15.4405 7.41183 18.0066C7.12478 20.5727 7.63956 23.1648 8.88542 25.4265L7.18085 27.0876C5.692 24.6583 4.94592 21.8467 5.03441 18.9988C5.1079 15.552 6.45087 12.2221 8.70655 9.62897L6.75156 7.58889C6.38566 7.63925 6.01304 7.60177 5.6645 7.47954C5.31597 7.35731 5.00155 7.15385 4.74726 6.88598C4.32554 6.43892 4.09797 5.84308 4.11427 5.22872C4.13058 4.61435 4.38944 4.03143 4.83427 3.60736C5.19799 3.26603 5.66089 3.0493 6.15597 2.98857C6.22945 2.98083 6.3039 2.9789 6.37835 2.9731L6.37738 2.97406ZM36.2553 5.87569e-07C36.797 8.95004e-05 37.3323 0.117715 37.8241 0.344759C38.316 0.571803 38.7527 0.902861 39.1042 1.31509C39.4557 1.72731 39.7135 2.21089 39.86 2.73244C40.0064 3.254 40.0379 3.80112 39.9524 4.33604C39.8668 4.87097 39.6662 5.38096 39.3644 5.83083C39.0626 6.2807 38.6668 6.65973 38.2043 6.94177C37.7418 7.22381 37.2236 7.40213 36.6855 7.46445C36.1473 7.52676 35.6021 7.47158 35.0874 7.3027V7.30754L35.0293 7.28723L29.9466 12.1119L29.7745 11.8827C29.5037 11.525 29.2021 11.1672 28.8869 10.8385L28.8289 10.766L28.6722 10.6084L28.386 10.3222L28.2855 10.2362L28.1859 10.1511L28.0573 10.036L27.9568 9.94997L27.8272 9.83588C25.6662 8.01555 22.9498 6.98537 20.1252 6.91499C17.7622 6.85698 15.4572 7.44483 13.4538 8.6476L11.8208 6.94303C14.3102 5.34265 17.2239 4.52931 20.1822 4.60903C23.5222 4.68748 26.735 5.905 29.2881 8.05975H29.3171L32.6818 4.86428C32.5061 4.30337 32.4648 3.70897 32.5614 3.12917C32.658 2.54938 32.8898 2.00046 33.2379 1.52685C33.586 1.05324 34.0408 0.668226 34.5653 0.402972C35.0898 0.137719 35.6695 -0.00032866 36.2573 5.87569e-07H36.2553Z" fill="#2E3234"/>
<path d="M19.9337 8.35938C20.3572 8.36131 20.7797 8.39418 21.1993 8.44253C27.2412 9.20151 31.5215 14.7136 30.777 20.7555C30.018 26.7984 24.506 31.0787 18.464 30.3342C12.4221 29.5752 8.14088 24.0622 8.88536 18.0212C9.60664 12.4163 14.3153 8.37871 19.9337 8.35938ZM19.7683 13.0912C17.3222 13.2875 15.5528 15.1371 15.49 17.5958C15.5287 19.3033 16.2654 20.5089 17.6616 21.4526L17.998 21.6353L17.1472 25.6372H22.8526L22.0028 21.6344C23.5691 20.828 24.4654 19.3477 24.5098 17.5958C24.477 15.0588 22.5142 13.1482 20.0004 13.0854L19.7683 13.0912ZM19.8534 13.067H19.8389H19.8534Z" fill="#047AED"/>
</g>
<defs>
<clipPath id="clip0_1183_9705">
<rect width="40" height="40" fill="white"/>
</clipPath>
</defs>
</svg>
