<?xml version="1.0" encoding="UTF-8" standalone="no"?>
<!DOCTYPE svg PUBLIC "-//W3C//DTD SVG 1.1//EN" "http://www.w3.org/Graphics/SVG/1.1/DTD/svg11.dtd">
<svg width="100%" height="100%" viewBox="0 0 33 27" version="1.1" xmlns="http://www.w3.org/2000/svg" xmlns:xlink="http://www.w3.org/1999/xlink" xml:space="preserve" xmlns:serif="http://www.serif.com/" style="fill-rule:evenodd;clip-rule:evenodd;stroke-linejoin:round;stroke-miterlimit:1.41421;">
    <g transform="matrix(1,0,0,1,-1.04531,-0.144077)">
        <path d="M21.85,7.41L22.85,7.41L25.7,4.56L25.84,3.35C23.5,1.285 20.484,0.144 17.363,0.144C11.598,0.144 6.51,4.036 5,9.6C5.317,9.47 5.669,9.449 6,9.54L11.7,8.6C11.7,8.6 11.99,8.12 12.14,8.15C14.661,5.381 18.959,5.054 21.87,7.41L21.85,7.41Z" style="fill:rgb(234,67,53);fill-rule:nonzero;"/>
    </g>
    <g transform="matrix(1,0,0,1,-1.04531,-0.144077)">
        <path d="M29.76,9.6C29.105,7.188 27.76,5.019 25.89,3.36L21.89,7.36C23.578,8.739 24.541,10.821 24.5,13L24.5,13.71C26.453,13.71 28.06,15.317 28.06,17.27C28.06,19.223 26.453,20.83 24.5,20.83C24.5,20.83 17.38,20.83 17.38,20.83L16.67,21.55L16.67,25.82L17.38,26.53L24.5,26.53C24.524,26.53 24.548,26.53 24.572,26.53C29.652,26.53 33.832,22.35 33.832,17.27C33.832,14.199 32.304,11.321 29.76,9.6Z" style="fill:rgb(66,133,244);fill-rule:nonzero;"/>
    </g>
    <g transform="matrix(1,0,0,1,-1.04531,-0.144077)">
        <path d="M10.25,26.49L17.37,26.49L17.37,20.79L10.25,20.79C9.743,20.79 9.241,20.681 8.78,20.47L7.78,20.78L4.91,23.63L4.66,24.63C6.269,25.845 8.234,26.499 10.25,26.49Z" style="fill:rgb(52,168,83);fill-rule:nonzero;"/>
    </g>
    <g transform="matrix(1,0,0,1,-1.04531,-0.144077)">
        <path d="M10.25,8C5.191,8.03 1.045,12.201 1.045,17.26C1.045,20.133 2.383,22.848 4.66,24.6L8.79,20.47C7.517,19.895 6.696,18.622 6.696,17.226C6.696,15.273 8.303,13.666 10.256,13.666C11.652,13.666 12.925,14.487 13.5,15.76L17.63,11.63C15.874,9.334 13.14,7.99 10.25,8Z" style="fill:rgb(251,188,5);fill-rule:nonzero;"/>
    </g>
</svg>
