<?xml version="1.0" standalone="no"?>
<!DOCTYPE svg PUBLIC "-//W3C//DTD SVG 20010904//EN"
 "http://www.w3.org/TR/2001/REC-SVG-20010904/DTD/svg10.dtd">
<svg version="1.0" xmlns="http://www.w3.org/2000/svg"
 width="205.000000pt" height="246.000000pt" viewBox="0 0 205.000000 246.000000"
 preserveAspectRatio="xMidYMid meet">

<g transform="translate(0.000000,246.000000) scale(0.100000,-0.100000)"
fill="#000000" stroke="none">
<path d="M307 2366 c-164 -52 -300 -96 -302 -98 -3 -3 26 -151 63 -331 l67
-326 88 -67 c48 -37 87 -70 87 -73 0 -4 -30 -21 -66 -39 -57 -28 -65 -36 -61
-55 3 -12 26 -123 52 -247 l45 -225 67 -61 66 -62 -47 -27 c-25 -15 -46 -29
-46 -31 0 -2 18 -90 40 -195 l39 -192 63 -66 c35 -36 107 -112 160 -169 65
-69 102 -101 110 -96 7 4 102 79 210 166 l198 158 -7 112 c-7 127 -12 124 79
45 39 -34 61 -46 71 -40 7 4 84 64 170 132 l157 124 0 46 c0 25 3 63 6 83 l6
37 54 -36 53 -35 128 103 c70 56 132 105 136 109 7 6 59 361 54 367 -2 1 -80
45 -175 98 l-172 96 -150 -91 -150 -92 0 -79 0 -80 -59 41 c-33 22 -62 40 -65
40 -2 0 -41 -22 -85 -50 -44 -27 -83 -50 -86 -50 -3 0 -5 24 -5 53 0 105 -7
119 -68 160 -32 20 -70 47 -85 59 l-29 23 83 44 82 44 -7 166 c-3 91 -9 238
-13 325 l-6 159 -224 108 c-124 60 -226 109 -226 108 -1 0 -136 -42 -300 -93z
m735 -595 l3 -163 -245 -129 c-135 -70 -248 -125 -251 -121 -3 4 -25 140 -48
302 -23 162 -44 302 -47 311 -4 13 53 38 283 127 l288 110 7 -136 c3 -75 8
-211 10 -301z m32 -671 l7 -195 -212 -143 c-116 -79 -213 -142 -214 -140 -5 5
-68 449 -64 452 2 2 107 63 234 135 218 124 230 130 236 108 3 -12 9 -110 13
-217z m921 104 c-9 -66 -18 -131 -21 -146 -4 -20 -35 -51 -112 -112 -58 -47
-108 -84 -110 -82 -2 2 2 70 9 150 l13 147 115 83 c64 46 117 82 119 81 2 -2
-4 -56 -13 -121z m-399 -191 c-2 -10 -8 -80 -11 -155 l-7 -138 -144 -115 -144
-115 0 162 0 163 152 108 c83 59 153 107 155 107 3 0 2 -8 -1 -17z m-495 -560
l2 -112 -181 -146 c-111 -88 -184 -141 -186 -133 -3 7 -14 82 -27 166 -21 150
-21 154 -3 167 11 8 100 72 199 143 l180 130 7 -52 c3 -28 8 -101 9 -163z"/>
</g>
</svg>
