<svg id="Layer_1" data-name="Layer 1" xmlns="http://www.w3.org/2000/svg" viewBox="0 0 612 612"><defs><style>.cls-1{fill:#f8cfae;}.cls-2{fill:#ea705e;}.cls-3{fill:#4e0d33;}</style></defs><title>os3-banner</title><g id="Layer.-1"><rect class="cls-1" width="612" height="612"/><path class="cls-2" d="M225.29,365.31a58.21,58.21,0,0,1,7-13.23c.21-.29.39-.6.6-.89a32.4,32.4,0,0,1-3.75-3.93c-4.42-5.48-6.59-11.94-6.18-17.88a17.86,17.86,0,0,1,3.8-10.09l13.7,11,8.07,6.46c.76-.47,1.55-.89,2.34-1.33a54.6,54.6,0,0,1,12.61-5.05c.53-.14,1-.31,1.6-.44a54.72,54.72,0,0,1,14.32-1.35h0A63.68,63.68,0,0,0,164.13,370.5h59.51c.47-1.75,1-3.46,1.64-5.15"/><path class="cls-2" d="M317.33,478.61s-3.45,6.56-21.24,13.19c-2.36.89-4.95,1.77-7.83,2.63l-.83.24c-.68.2-1.32.37-1.94.53l-1.05.28-17,5.64-18.3,6.1-.56.18a16.93,16.93,0,0,1-.85-6.16,20.22,20.22,0,0,1,2-7.78A23.79,23.79,0,0,1,251,491.2c.4-.66.85-1.31,1.33-1.95A28.25,28.25,0,0,1,259,483a31.61,31.61,0,0,1,16.93-5.59,28.24,28.24,0,0,1,8.68,1,23.66,23.66,0,0,1,2.73.92,38.42,38.42,0,0,0,5.54-5.79,32.35,32.35,0,0,0,4.87-8.77,26.47,26.47,0,0,0,.85-2.75l5.7,5,13.1,11.55ZM193.77,494.8a6.65,6.65,0,0,1-.11,1,6.51,6.51,0,0,1-12.86,0,5.57,5.57,0,0,1-.11-1,6.28,6.28,0,0,1,.64-2.76,6.54,6.54,0,0,1,12.44,2.76m-29.28-58.95h-10a6.61,6.61,0,0,1-1.09-.12,6.69,6.69,0,0,1-1.58-.47,6.53,6.53,0,0,1,2.67-12.49h10a6.54,6.54,0,0,1,0,13.08M338.7,488.34h0l-46.42-41.52-3.88-3.46a54.41,54.41,0,0,1-19.09.07A55.77,55.77,0,0,1,249.49,436l-.21-.12H210.05a6.54,6.54,0,0,1,0-13.08h30.79a6.54,6.54,0,0,0,0-13.08H133.11a6.54,6.54,0,0,1,0-13.08h92.61a6.54,6.54,0,0,0,.51-13.07H65.33c.18.7.37,1.39.53,2.1a76,76,0,0,1-.76,37.13H86.75a6.56,6.56,0,0,1,6.54,6.54,6.46,6.46,0,0,1-1.69,4.36,6.62,6.62,0,0,1-4.14,2.11H48.9a6.55,6.55,0,0,0-5.7,3.41,5.87,5.87,0,0,0-.42,1,6.1,6.1,0,0,0-.42,2.11,6.55,6.55,0,0,0,6.54,6.53H200.6a6.54,6.54,0,1,1,0,13.08H44.07a6.54,6.54,0,0,0,0,13.08h76.61a6.57,6.57,0,0,1,6,3.94,6.35,6.35,0,0,1-.56,6.18,6.6,6.6,0,0,1-3.91,2.76,6.3,6.3,0,0,1-1.5.2H86.54a5.58,5.58,0,0,0-.82.11,5.12,5.12,0,0,0-1.22.33,6.33,6.33,0,0,0-1,.52,6.55,6.55,0,0,0-3.1,5.54V495a6.24,6.24,0,0,0,1.27,3.51c.14.18.27.37.42.53a6.46,6.46,0,0,0,4.8,2.13h61.63a6.51,6.51,0,0,1,5.39,2.87,6.45,6.45,0,0,1-.72,8.22v.07l-.08.06a6.48,6.48,0,0,1-4.54,1.86H116a6.54,6.54,0,0,0,0,13.08h6.43c.86,0,1.7.06,2.55.11h1.1c.68.07,1.36.17,2,.28a35.37,35.37,0,0,1,8.36,2.4,34.63,34.63,0,0,1,18.7,19.65,32.79,32.79,0,0,1,1.36,4.46,2.94,2.94,0,0,0,.14.64c.47-.1,1-.17,1.42-.25a34.68,34.68,0,0,1,7.74-.45,69.31,69.31,0,0,1,23.47-13.62c1-.33,2-.63,3-.93l.82-.22c1-.28,2-.54,3-.77A68.54,68.54,0,0,1,245.61,546a69.71,69.71,0,0,1,10.43,7.3A68.89,68.89,0,0,1,267,565c1.44-.07,2.88-.08,4.31-.1,3.72,0,7.41.08,11.07.37,3,.23,6,.54,8.9,1,1.18.18,2.33.44,3.49.65,3,.54,5.95,1.2,8.87,2,1.16.31,2.33.56,3.48.89l.39.12.63.19A74.43,74.43,0,0,1,335,556.61c1-.28,2.05-.57,3.09-.8a74.42,74.42,0,0,1,40.4,2,73,73,0,0,0-51.42-47.07,74.74,74.74,0,0,0,19.29-20.46l-.93-.23-6.75-1.66Z"/><path class="cls-2" d="M356.15,433.66A74.05,74.05,0,0,0,341,402.91c-.58-.73-1.17-1.45-1.79-2.17-.23-.27-.47-.53-.71-.8-.45-.52-.9-1-1.36-1.53-.79-.84-1.61-1.63-2.42-2.42-.36-.34-.7-.71-1.06-1.05a71.65,71.65,0,0,0-21.5-14c-16.27-6.8-34-6.8-48.66.36-.52.25-1,.46-1.56.74a59.79,59.79,0,0,1,19.34-.63c14.53,1.8,29.63,8.51,42.48,20a83.64,83.64,0,0,1,17.44,21.73c6.8,12.23,9.83,25.39,8.84,37.58a49.66,49.66,0,0,1-4,16.21c.22-.19.47-.34.69-.52.49-.38,1-.76,1.49-1.11a28.56,28.56,0,0,1,4.86-2.49c.55-.23,1.08-.49,1.64-.69h0a74.46,74.46,0,0,0,3.13-26.66h0a75.52,75.52,0,0,0-1.72-11.78"/><path class="cls-2" d="M288.05,298a8.26,8.26,0,1,0-9.91-6.21,8.26,8.26,0,0,0,9.91,6.21h0"/><path class="cls-2" d="M149.87,336.92a5.25,5.25,0,1,0-6.29-3.95,5.26,5.26,0,0,0,6.29,3.95"/><path class="cls-3" d="M164.49,422.77h-10a6.53,6.53,0,0,0-2.67,12.49,6.83,6.83,0,0,0,1.58.47,6.61,6.61,0,0,0,1.09.12h10a6.54,6.54,0,0,0,0-13.08"/><path class="cls-3" d="M187.23,488.26a6.54,6.54,0,0,0-5.9,3.77,6.42,6.42,0,0,0-.64,2.76h0a6.64,6.64,0,0,0,.1,1,6.51,6.51,0,0,0,12.17,2,6.47,6.47,0,0,0,.7-2,5.56,5.56,0,0,0,.1-1h0a6.41,6.41,0,0,0-.63-2.76,6.54,6.54,0,0,0-5.9-3.77"/><path class="cls-3" d="M333.5,264.36l17.42,21.39h0L427,379.18h0v.05a31.21,31.21,0,0,1,6.93,6.93A31.9,31.9,0,0,1,416.14,437a31.5,31.5,0,0,1-24.65-4.57h0c-.13,0-25.3,2.71-33.61,13h0a75.52,75.52,0,0,0-1.72-11.78A74,74,0,0,0,341,402.91c-.58-.73-1.17-1.46-1.79-2.17-.23-.27-.47-.53-.71-.8-.45-.52-.9-1-1.36-1.54-.79-.84-1.61-1.62-2.43-2.41-.35-.34-.69-.71-1-1.05a71.84,71.84,0,0,0-21.5-14c-16.27-6.8-34-6.8-48.66.37-.52.25-1,.46-1.57.74a59.79,59.79,0,0,1,19.34-.63c14.54,1.8,29.64,8.52,42.49,20a83.64,83.64,0,0,1,17.44,21.73c6.8,12.23,9.83,25.39,8.84,37.59a49.29,49.29,0,0,1-4,16.2h0c.22-.19.47-.34.69-.52.49-.37,1-.76,1.5-1.1a28.56,28.56,0,0,1,4.85-2.51c.55-.22,1.07-.48,1.64-.68h0a36,36,0,0,1,20.23-.68c16.76,4.13,27.68,18.41,24.4,31.88l-53-13.07-.92-.23-6.75-1.66h0l-46.43-41.52-3.87-3.46a54.47,54.47,0,0,1-19.1.07A55.87,55.87,0,0,1,249.49,436l-.2-.12H210.06a6.54,6.54,0,0,1,0-13.08h30.78a6.54,6.54,0,0,0,0-13.08H133.11a6.54,6.54,0,1,1,0-13.07h92.61a6.54,6.54,0,0,0,0-13.08H65.33c.18.7.38,1.39.54,2.1a76.13,76.13,0,0,1-.77,37.13H86.75a6.52,6.52,0,0,1,.71,13H48.9a6.53,6.53,0,0,0-5.7,3.41,8.06,8.06,0,0,0-.84,3.11,6.55,6.55,0,0,0,6.54,6.53H200.6a6.54,6.54,0,1,1,0,13.08H44.07a6.54,6.54,0,0,0,0,13.08h76.61a6.57,6.57,0,0,1,6,3.94,6.35,6.35,0,0,1-.56,6.18,6.6,6.6,0,0,1-3.91,2.76,6.29,6.29,0,0,1-1.5.19H86.53a5.71,5.71,0,0,0-.83.11,5.09,5.09,0,0,0-1.2.33,6.33,6.33,0,0,0-1,.52,6.55,6.55,0,0,0-3.1,5.54v.36a7.4,7.4,0,0,0,.17,1.24,6.67,6.67,0,0,0,1.11,2.27,5.34,5.34,0,0,0,.41.53,6.46,6.46,0,0,0,4.8,2.13h61.63a6.57,6.57,0,0,1,5.4,2.87,6.47,6.47,0,0,1-.73,8.22v.07a.13.13,0,0,0-.07.06,6.56,6.56,0,0,1-4.55,1.86H116a6.54,6.54,0,0,0,0,13.08h6.43c.86,0,1.7.06,2.54.11h1.11c.68.07,1.36.17,2,.28a34.59,34.59,0,0,1,27.07,22.05,35.19,35.19,0,0,1,1.35,4.46c.06.21.09.43.14.65.47-.11,1-.18,1.43-.26a34.72,34.72,0,0,1,7.75-.45,69.07,69.07,0,0,1,23.46-13.61c1-.34,2-.64,3-.94l.82-.22c1-.28,2-.54,3-.76A68.82,68.82,0,0,1,267,565h0c1.44-.07,2.88-.08,4.31-.1,3.72,0,7.41.08,11.08.37,3,.23,5.95.54,8.89,1,1.18.18,2.33.44,3.49.65q4.49.83,8.87,2c1.16.31,2.34.56,3.48.89l.39.12.63.2A74.33,74.33,0,0,1,335,556.61c1-.28,2.06-.57,3.11-.8a74.38,74.38,0,0,1,40.39,2h0A74.81,74.81,0,0,1,427.77,612H0V326.76a75.56,75.56,0,0,1,14.33,3.05,76.55,76.55,0,0,1,20,9.72,76,76,0,0,1,26.34,30.93h163c.47-1.75,1-3.46,1.65-5.15a57.54,57.54,0,0,1,7-13.22c.21-.3.39-.61.6-.9a31,31,0,0,1-3.75-3.93c-4.42-5.47-6.59-11.94-6.18-17.88a17.76,17.76,0,0,1,3.8-10.08l13.7,11,8.07,6.45c.76-.47,1.55-.89,2.34-1.32a53.48,53.48,0,0,1,12.6-5.05c.54-.15,1.06-.32,1.61-.44a54.31,54.31,0,0,1,14.32-1.36h0a55,55,0,0,1,20,4.59h0c22.06,9.08,47.26,28.2,58.68,52.36h0v.07c.23.52.47,1,.7,1.57,2.43,5.08,10.51,19.81,19.36,11.53h0a32.06,32.06,0,0,1,8.35-15.16c-14.83-5.08-30.27-15.94-42.94-31.5-25.85-31.74-30.38-71-10.13-87.62ZM422.55,402.7a4.67,4.67,0,0,0,8,3.89,4.34,4.34,0,0,0,.56-.72,4.63,4.63,0,0,0-1-6.1,5.85,5.85,0,0,0-.49-.38,4.7,4.7,0,0,0-6.44,1.49,4.48,4.48,0,0,0-.61,1.54.3.3,0,0,1,0,.2c-.05.07,0,.06,0,.08Z"/><path class="cls-2" d="M424.68,407.34a4.72,4.72,0,0,0,5.89-.75,4.34,4.34,0,0,0,.56-.72,4.63,4.63,0,0,0-1-6.1c-.16-.13-.31-.26-.49-.38a4.64,4.64,0,0,0-7.05,3,.3.3,0,0,1,0,.2c-.05.07,0,.06,0,.08a4.69,4.69,0,0,0,2.13,4.64"/><path class="cls-3" d="M304.23,467.06l-5.69-5a27,27,0,0,1-.85,2.75,32.12,32.12,0,0,1-4.88,8.77,38.42,38.42,0,0,1-5.54,5.79,23.66,23.66,0,0,0-2.73-.92,28.24,28.24,0,0,0-8.68-1,31.57,31.57,0,0,0-16.93,5.6,28.44,28.44,0,0,0-6.62,6.24,19.91,19.91,0,0,0-1.34,2,24.35,24.35,0,0,0-1.21,2.25,20.22,20.22,0,0,0-2,7.78,16.93,16.93,0,0,0,.85,6.16l.55-.18,18.31-6.1,17-5.64,1-.28c.62-.15,1.27-.33,1.94-.53l.83-.24c2.88-.86,5.47-1.74,7.83-2.62,17.76-6.64,21.24-13.17,21.25-13.2h0l-13.11-11.55Z"/><path class="cls-2" d="M427,379.18h0L364.2,269.89a31.73,31.73,0,0,0-13.27,15.87h0Z"/><path class="cls-2" d="M66.93,346.46c-1-1.31-2.1-2.57-3.22-3.79a24.46,24.46,0,0,0-7.25-6.75A63.11,63.11,0,0,0,3,323.77c-1,.23-2,.5-3,.78v2.23a75.21,75.21,0,0,1,14.3,3,76.86,76.86,0,0,1,20,9.72,76,76,0,0,1,26.34,30.93h91.58A63.73,63.73,0,0,0,66.93,346.46Z"/></g></svg>