<svg id="Layer_1" data-name="Layer 1" xmlns="http://www.w3.org/2000/svg" viewBox="0 0 292 156"><defs><style>.cls-1{fill:#f8cfae;}.cls-2{fill:#e9715e;}.cls-3{fill:#4f0733;fill-rule:evenodd;}</style></defs><rect class="cls-1" width="292" height="156"/><path class="cls-2" d="M82.32,65.86A20.87,20.87,0,0,1,84.88,61c.08-.11.14-.23.22-.33a11.59,11.59,0,0,1-1.37-1.44,9.52,9.52,0,0,1-2.26-6.53A6.55,6.55,0,0,1,82.86,49l5,4,2.94,2.36c.28-.18.57-.33.86-.49a19.82,19.82,0,0,1,4.61-1.84c.19,0,.38-.12.58-.16a19.91,19.91,0,0,1,5.23-.5h0A23.27,23.27,0,0,0,60,67.74H81.72a19.6,19.6,0,0,1,.6-1.88M116,107.26s-1.27,2.39-7.77,4.82c-.86.32-1.8.64-2.86,1l-.3.09-.71.19-.38.1-6.21,2.07L91,117.71l-.2.07a6.45,6.45,0,0,1-.31-2.25,7.47,7.47,0,0,1,.73-2.85c.14-.28.28-.55.45-.82a8.17,8.17,0,0,1,.49-.71,10.1,10.1,0,0,1,2.41-2.28,11.63,11.63,0,0,1,2.93-1.46,11.81,11.81,0,0,1,3.26-.59,10.29,10.29,0,0,1,3.17.37,6.93,6.93,0,0,1,1,.34,14.6,14.6,0,0,0,2-2.12,11.83,11.83,0,0,0,1.79-3.2c.11-.33.22-.66.31-1l2.08,1.84,4.79,4.22h0ZM70.8,113.17a2.45,2.45,0,0,1,0,.38,2.34,2.34,0,0,1-1.22,1.71,2.26,2.26,0,0,1-1.12.3,2.31,2.31,0,0,1-1.14-.3,2.37,2.37,0,0,1-1.22-1.71,2.43,2.43,0,0,1,0-.38,2.3,2.3,0,0,1,.23-1,2.37,2.37,0,0,1,4.31,0,2.45,2.45,0,0,1,.23,1ZM60.11,91.63H56.44a2.58,2.58,0,0,1-.4,0,2.28,2.28,0,0,1-.58-.17,2.39,2.39,0,0,1,1-4.57h3.67a2.38,2.38,0,0,1,2,1.09,2.34,2.34,0,0,1,.39,1.3,2.39,2.39,0,0,1-2.38,2.39Zm63.65,19.18h0l-17-15.17-1.42-1.26a20,20,0,0,1-7,0,20.44,20.44,0,0,1-7.24-2.72l-.07-.05H76.75a2.38,2.38,0,0,1-1.26-.37,2.43,2.43,0,0,1-1.12-2,2.4,2.4,0,0,1,2.38-2.4H88a2.39,2.39,0,1,0,0-4.77H48.64a2.39,2.39,0,0,1,0-4.78H82.48a2.39,2.39,0,1,0,0-4.78H23.87c.07.26.14.51.2.77a27.83,27.83,0,0,1-.28,13.56H31.7A2.39,2.39,0,0,1,32,91.61H17.87a2.38,2.38,0,0,0-2.08,1.24,2.54,2.54,0,0,0-.16.38,2.2,2.2,0,0,0-.15.77,2.4,2.4,0,0,0,1.45,2.19,2.3,2.3,0,0,0,.94.2H73.3a2.39,2.39,0,1,1,0,4.77H16.1a2.39,2.39,0,0,0,0,4.78h28a2.4,2.4,0,0,1,2.19,1.44,2.41,2.41,0,0,1-1.63,3.27,2.51,2.51,0,0,1-.55.07H31.59l0,0h0a1.54,1.54,0,0,0-.3,0,1.76,1.76,0,0,0-.45.12,3.13,3.13,0,0,0-.36.19,2.37,2.37,0,0,0-1.13,2s0,.09,0,.14a2.32,2.32,0,0,0,.06.45,2.55,2.55,0,0,0,.4.83c.05.06.1.13.16.19a2.33,2.33,0,0,0,1.75.78H54.29a2.38,2.38,0,0,1,1.71,4s0,0,0,0l0,0a2.39,2.39,0,0,1-1.67.69H42.4a2.39,2.39,0,0,0-2,1.06,2.35,2.35,0,0,0-.41,1.33,2.39,2.39,0,0,0,2.39,2.39h2.35c.31,0,.62,0,.93,0l.4,0,.75.1a12.93,12.93,0,0,1,3.06.88,12.67,12.67,0,0,1,6.83,7.18,12.33,12.33,0,0,1,.5,1.63c0,.08,0,.16,0,.24l.53-.1a12.29,12.29,0,0,1,1.46-.16,12.54,12.54,0,0,1,1.37,0,25.21,25.21,0,0,1,8.57-5l1.1-.34.3-.08c.36-.1.72-.2,1.09-.28a25,25,0,0,1,18.09,2.69,24.85,24.85,0,0,1,7.81,7c.53,0,1,0,1.58,0,1.36,0,2.7,0,4,.14,1.09.08,2.18.19,3.25.36.43.06.85.16,1.28.24,1.09.2,2.17.44,3.24.71.42.12.85.21,1.27.33l.14,0,.23.07a27.22,27.22,0,0,1,9.81-5c.37-.1.75-.21,1.13-.29a27.17,27.17,0,0,1,14.76.71A26.68,26.68,0,0,0,119.52,119a27.23,27.23,0,0,0,7-7.47l-.34-.09-2.47-.6Zm6.38-20a27.11,27.11,0,0,0-5.53-11.23c-.21-.27-.43-.53-.65-.8a3.58,3.58,0,0,1-.26-.29l-.5-.56c-.29-.31-.59-.59-.89-.88l-.38-.38a26.1,26.1,0,0,0-7.86-5.13,21.56,21.56,0,0,0-17.78.13l-.57.27a21.93,21.93,0,0,1,7.07-.23A28.9,28.9,0,0,1,118.31,79,30.59,30.59,0,0,1,124.68,87a24.35,24.35,0,0,1,3.23,13.73,18,18,0,0,1-1.46,5.93l.25-.19c.18-.14.36-.28.55-.41a10.27,10.27,0,0,1,1.78-.91c.2-.08.39-.18.59-.25h0a27.11,27.11,0,0,0,1.14-9.74h0a28,28,0,0,0-.63-4.31M12.55,56.44a27.81,27.81,0,0,1,9.62,11.3H55.63A23.29,23.29,0,0,0,24.47,59c-.38-.48-.77-.93-1.18-1.38a8.92,8.92,0,0,0-2.65-2.47C15.28,50.9,0,48.66,0,50.9v.93C.44,51.85,10.3,54.91,12.55,56.44Zm92.7-15.18A3,3,0,1,0,101.63,39a3,3,0,0,0,3.62,2.27M54.76,55.48a1.92,1.92,0,0,0-.85-3.74,1.92,1.92,0,1,0,.85,3.74M155.18,81.22a1.67,1.67,0,0,0,1.37.19,1.71,1.71,0,0,0,.78-.47,1.33,1.33,0,0,0,.21-.26,1.77,1.77,0,0,0,.22-1.3,1.74,1.74,0,0,0-.58-.93l-.18-.14a1.72,1.72,0,0,0-2.36.54,1.73,1.73,0,0,0-.22.57.19.19,0,0,1,0,.07v0a1.72,1.72,0,0,0,.78,1.7M156,70.93h0L133.08,31a11.5,11.5,0,0,0-4.85,5.8h0Z"/><path class="cls-3" d="M271.31,107.63a52.51,52.51,0,0,0-47.87,30.92,52.61,52.61,0,0,0-50.95,13.16,25,25,0,0,0-19.26-3.45,26.85,26.85,0,0,0-3.47-4.69,27.58,27.58,0,0,0-11.45-7.39,27.17,27.17,0,0,0-14.76-.71c-.38.08-.76.19-1.13.29a27.24,27.24,0,0,0-9.81,5l-.23-.08-.14,0c-.42-.12-.85-.21-1.27-.33-1.07-.27-2.15-.51-3.24-.71-.43-.08-.85-.18-1.28-.24-1.07-.17-2.16-.28-3.25-.36-1.34-.11-2.69-.15-4-.14-.53,0-1,0-1.58,0a25.13,25.13,0,0,0-4-4.3,26,26,0,0,0-3.81-2.67,25.06,25.06,0,0,0-18.09-2.68c-.37.08-.73.18-1.09.28l-.3.08-1.1.34a25.4,25.4,0,0,0-4.34,2,25.13,25.13,0,0,0-4.23,3,12.54,12.54,0,0,0-1.37,0,12.07,12.07,0,0,0-1.46.16l-.53.1a2,2,0,0,0,0-.24,12.33,12.33,0,0,0-.5-1.63,12.65,12.65,0,0,0-9.89-8.06l-.75-.1-.4,0c-.31,0-.62,0-.93,0H42.4A2.39,2.39,0,0,1,40,122.68a2.35,2.35,0,0,1,.41-1.33,2.39,2.39,0,0,1,2-1.06H54.29A2.4,2.4,0,0,0,56,119.6l0,0s0,0,0,0a2.38,2.38,0,0,0-1.71-4H31.77a2.37,2.37,0,0,1-1.76-.78l-.15-.19a2.55,2.55,0,0,1-.4-.83,2.32,2.32,0,0,1-.06-.45.68.68,0,0,1,0-.14,2.37,2.37,0,0,1,1.13-2,2.58,2.58,0,0,1,.37-.19,1.69,1.69,0,0,1,.44-.12,1.54,1.54,0,0,1,.3,0l0,0H44.1a2.35,2.35,0,0,0,.54-.07,2.4,2.4,0,0,0,1.43-1,2.29,2.29,0,0,0,.41-1.31,2.34,2.34,0,0,0-.2-1,2.4,2.4,0,0,0-2.19-1.44h-28a2.39,2.39,0,1,1,0-4.77H73.3a2.39,2.39,0,1,0,0-4.78H17.87a2.26,2.26,0,0,1-.94-.2A2.38,2.38,0,0,1,15.48,94a2.15,2.15,0,0,1,.15-.77c0-.13.09-.26.15-.38a2.41,2.41,0,0,1,2.09-1.24H32a2.43,2.43,0,0,0,1.51-.77,2.38,2.38,0,0,0-1.77-4H23.79a27.83,27.83,0,0,0,.28-13.56c-.06-.26-.13-.51-.2-.77H82.48a2.39,2.39,0,1,1,0,4.78H48.64a2.4,2.4,0,0,0-2.39,2.39,2.41,2.41,0,0,0,2.39,2.39H88a2.39,2.39,0,0,1,0,4.78H76.76a2.39,2.39,0,0,0-2.39,2.38,2.35,2.35,0,0,0,.35,1.23,2.33,2.33,0,0,0,.77.79,2.36,2.36,0,0,0,1.27.37H91.09l.07.05A20.37,20.37,0,0,0,98.4,94.4a20,20,0,0,0,7,0l1.42,1.26,17,15.17h0l2.47.6.34.09,19.36,4.77c1.2-4.92-2.79-10.14-8.91-11.65a13.23,13.23,0,0,0-7.39.25h0c-.2.07-.4.17-.59.25a10.68,10.68,0,0,0-1.78.92c-.19.12-.37.26-.55.4l-.25.19a18,18,0,0,0,1.46-5.92A24.36,24.36,0,0,0,124.68,87,30.59,30.59,0,0,0,118.31,79a28.93,28.93,0,0,0-15.52-7.31,21.93,21.93,0,0,0-7.07.23l.57-.27a21.56,21.56,0,0,1,17.78-.13,26.1,26.1,0,0,1,7.86,5.13l.38.38c.3.29.6.57.89.88l.5.56a3.58,3.58,0,0,0,.26.29c.22.27.44.53.65.8a27.11,27.11,0,0,1,5.53,11.23,28,28,0,0,1,.63,4.31c3-3.76,12.23-4.75,12.28-4.76h0a11.49,11.49,0,0,0,9,1.67,11.64,11.64,0,0,0,6.51-18.56A11.29,11.29,0,0,0,156,70.94l0,0L128.23,36.79,121.86,29c-7.4,6.09-5.75,20.42,3.7,32A36.11,36.11,0,0,0,141.25,72.5,11.67,11.67,0,0,0,138.2,78h0c-3.24,3-6.19-2.36-7.08-4.22-.08-.19-.17-.38-.26-.57a0,0,0,0,0,0,0c-4.17-8.83-13.38-15.82-21.44-19.14h0a20.17,20.17,0,0,0-7.29-1.68h0a19.91,19.91,0,0,0-5.23.5c-.2,0-.39.11-.59.16a19.92,19.92,0,0,0-4.6,1.84c-.29.16-.58.32-.86.49l-2.94-2.36-5-4a6.55,6.55,0,0,0-1.39,3.69,9.52,9.52,0,0,0,2.26,6.53A11.59,11.59,0,0,0,85.1,60.7l-.22.33a20.87,20.87,0,0,0-2.56,4.83c-.23.61-.42,1.24-.6,1.88H22.17a27.76,27.76,0,0,0-9.63-11.3,27.74,27.74,0,0,0-7.3-3.55A28.09,28.09,0,0,0,0,51.77V156H292V111.87A52.24,52.24,0,0,0,271.31,107.63ZM154.4,79.49a.19.19,0,0,0,0-.07,1.6,1.6,0,0,1,.22-.56,1.73,1.73,0,0,1,1.15-.78,1.75,1.75,0,0,1,1.21.23l.18.14a1.74,1.74,0,0,1,.58.93,1.77,1.77,0,0,1-.22,1.3,1.33,1.33,0,0,1-.21.26,1.71,1.71,0,0,1-.78.47,1.67,1.67,0,0,1-1.37-.19,1.72,1.72,0,0,1-.78-1.7ZM60.11,86.85H56.44a2.39,2.39,0,0,0-1,4.57,2.77,2.77,0,0,0,.58.17,2.58,2.58,0,0,0,.4,0h3.67a2.39,2.39,0,0,0,2.38-2.39,2.34,2.34,0,0,0-.39-1.3,2.38,2.38,0,0,0-2-1.09m8.3,23.93a2.38,2.38,0,0,0-2.15,1.38,2.3,2.3,0,0,0-.23,1h0a2.43,2.43,0,0,0,0,.38,2.37,2.37,0,0,0,1.22,1.71,2.3,2.3,0,0,0,1.13.3,2.27,2.27,0,0,0,1.13-.3,2.34,2.34,0,0,0,1.22-1.71,2.45,2.45,0,0,0,0-.38h0a2.3,2.3,0,0,0-.23-1,2.39,2.39,0,0,0-2.16-1.38M111.17,103l-2.08-1.84c-.09.35-.2.68-.31,1a11.83,11.83,0,0,1-1.79,3.2,14.6,14.6,0,0,1-2,2.12,8.4,8.4,0,0,0-1-.34,10.29,10.29,0,0,0-3.17-.37,11.81,11.81,0,0,0-3.26.59,11.63,11.63,0,0,0-2.93,1.46,10.1,10.1,0,0,0-2.41,2.28,8,8,0,0,0-.93,1.53,7.3,7.3,0,0,0-.74,2.85,6.45,6.45,0,0,0,.31,2.25l.2-.07,6.69-2.23,6.2-2.06.39-.1.71-.19.3-.09c1.06-.32,2-.64,2.86-1,6.49-2.42,7.76-4.81,7.77-4.82h0L111.17,103Z"/></svg>