<svg width="100" height="100" viewBox="0 0 100 100" fill="none" xmlns="http://www.w3.org/2000/svg">
<g clip-path="url(#clip0)">
<path fill-rule="evenodd" clip-rule="evenodd" d="M40.478 24.8676L40.478 6.56982L31.1436 8.71534C23.4173 10.4912 19.5541 11.3792 16.5083 13.4097C13.9287 15.1295 11.7841 17.4253 10.244 20.1161C8.42552 23.2933 7.80248 27.2083 6.55639 35.0381L0.522947 72.9495C0.0869425 75.6891 -0.13106 77.059 0.0834256 78.3451C0.265318 79.4357 0.671294 80.4769 1.27574 81.4027C1.98849 82.4945 3.07622 83.3551 5.25169 85.0762L20.9649 97.508C19.5926 96.3825 18.4746 94.9563 17.7081 93.3205C16.1443 89.9828 16.9054 85.1993 18.4276 75.6325L22.5692 49.6031C23.815 41.7735 24.4378 37.8587 26.2562 34.6815C27.7961 31.9907 29.9404 29.6948 32.5199 27.975C34.527 26.6367 36.8892 25.7947 40.478 24.8676Z" fill="url(#paint0_radial)"/>
<path fill-rule="evenodd" clip-rule="evenodd" d="M40.4779 24.8683C42.3347 24.3886 44.5199 23.8862 47.1542 23.2805L52.4041 22.0734C56.3394 21.1686 58.3071 20.7162 59.7391 21.272C60.9381 21.7373 61.9117 22.6467 62.4576 23.8113C63.1096 25.2023 62.7923 27.1963 62.1578 31.1845L60.0538 44.4084C59.3065 49.1058 58.9328 51.4544 57.842 53.3606C56.9181 54.975 55.6317 56.3525 54.0842 57.3844C52.2571 58.6029 49.9396 59.136 45.3046 60.2022L38.9856 61.6557L37.8425 68.8211C37.2058 72.8122 36.8875 74.8077 37.5396 76.1994C38.0855 77.3646 39.0596 78.2745 40.2592 78.7398C41.692 79.2955 43.661 78.8419 47.5991 77.9346L52.8546 76.7238C60.576 74.9449 64.4367 74.0555 67.4806 72.0247C70.0584 70.3049 72.2014 68.0094 73.7404 65.3196C75.5577 62.1435 76.1804 58.2306 77.4258 50.4048L81.5686 24.3736C83.0919 14.8024 83.8535 10.0168 82.2889 6.67841C80.9789 3.88339 78.6425 1.70065 75.7651 0.583764C72.3282 -0.750258 67.6059 0.335145 58.1614 2.50598L29.4687 9.10193L40.4779 24.8683Z" fill="url(#paint1_radial)"/>
<path fill-rule="evenodd" clip-rule="evenodd" d="M59.522 75.1324L59.522 93.4302L68.8564 91.2847C76.5827 89.5088 80.4459 88.6208 83.4918 86.5903C86.0713 84.8705 88.2159 82.5747 89.756 79.8839C91.5745 76.7067 92.1975 72.7917 93.4436 64.9619L99.4771 27.0505C99.9131 24.3108 100.131 22.941 99.9166 21.6549C99.7347 20.5643 99.3287 19.5231 98.7243 18.5973C98.0115 17.5055 96.9238 16.6449 94.7483 14.9238L79.0351 2.49196C80.4074 3.61754 81.5254 5.0437 82.2919 6.67951C83.8557 10.0172 83.0946 14.8007 81.5724 24.3675L77.4308 50.3969C76.1851 58.2265 75.5622 62.1413 73.7439 65.3185C72.2039 68.0093 70.0596 70.3052 67.4801 72.025C65.473 73.3633 63.1108 74.2053 59.522 75.1324Z" fill="url(#paint2_radial)"/>
<path fill-rule="evenodd" clip-rule="evenodd" d="M59.5221 75.1317C57.6653 75.6114 55.4801 76.1138 52.8458 76.7195L47.5959 77.9266C43.6606 78.8314 41.6929 79.2838 40.2609 78.728C39.0619 78.2627 38.0883 77.3533 37.5424 76.1887C36.8904 74.7977 37.2077 72.8037 37.8422 68.8155L39.9462 55.5916C40.6935 50.8942 41.0672 48.5456 42.158 46.6394C43.0819 45.025 44.3683 43.6475 45.9158 42.6156C47.7429 41.3971 50.0604 40.864 54.6954 39.7978L61.0144 38.3443L62.1575 31.1789C62.7942 27.1878 63.1125 25.1923 62.4604 23.8006C61.9145 22.6354 60.9404 21.7255 59.7408 21.2602C58.308 20.7045 56.339 21.1581 52.4009 22.0654L47.1454 23.2762C39.424 25.0551 35.5633 25.9445 32.5194 27.9753C29.9416 29.6951 27.7986 31.9906 26.2596 34.6804C24.4423 37.8565 23.8196 41.7694 22.5742 49.5952L18.4314 75.6264C16.9081 85.1976 16.1465 89.9832 17.7111 93.3216C19.0211 96.1166 21.3575 98.2994 24.2349 99.4162C27.6718 100.75 32.3941 99.6649 41.8386 97.494L70.5469 90.8903L59.5221 75.1317Z" fill="url(#paint3_radial)"/>
</g>
<defs>
<radialGradient id="paint0_radial" cx="0" cy="0" r="1" gradientUnits="userSpaceOnUse" gradientTransform="translate(28.4891 17.8344) rotate(81.9943) scale(71.8503 106.445)">
<stop offset="0.231365" stop-color="#B3C8FF"/>
<stop offset="0.576688" stop-color="#C1D3FF"/>
<stop offset="1" stop-color="#CAD9FF"/>
</radialGradient>
<radialGradient id="paint1_radial" cx="0" cy="0" r="1" gradientUnits="userSpaceOnUse" gradientTransform="translate(49.5595 6.91079) rotate(103.751) scale(54.8607 85.7165)">
<stop offset="0.273906" stop-color="#B3C8FF"/>
<stop offset="0.472194" stop-color="#9EB9FF"/>
<stop offset="0.761766" stop-color="#6F97FF"/>
<stop offset="1" stop-color="#5282FF"/>
</radialGradient>
<radialGradient id="paint2_radial" cx="0" cy="0" r="1" gradientUnits="userSpaceOnUse" gradientTransform="translate(71.5109 82.1656) rotate(-98.0057) scale(71.8503 106.445)">
<stop offset="0.231365" stop-color="#B3C8FF"/>
<stop offset="0.576688" stop-color="#C1D3FF"/>
<stop offset="1" stop-color="#CAD9FF"/>
</radialGradient>
<radialGradient id="paint3_radial" cx="0" cy="0" r="1" gradientUnits="userSpaceOnUse" gradientTransform="translate(50.4503 93.0892) rotate(-76.2452) scale(54.8616 85.74)">
<stop offset="0.273906" stop-color="#B3C8FF"/>
<stop offset="0.472194" stop-color="#9EB9FF"/>
<stop offset="0.761766" stop-color="#6F97FF"/>
<stop offset="1" stop-color="#5282FF"/>
</radialGradient>
<clipPath id="clip0">
<rect width="100" height="100" fill="white"/>
</clipPath>
</defs>
</svg>
