<svg xmlns="http://www.w3.org/2000/svg" xmlns:xlink="http://www.w3.org/1999/xlink" width="600" height="375" viewBox="0 0 600 375">
  <defs>
    <rect id="default-a" width="600" height="375" x="0" y="0"/>
  </defs>
  <g fill="none" fill-rule="evenodd">
    <mask id="default-b" fill="#fff">
      <use xlink:href="#default-a"/>
    </mask>
    <use fill="#F8CFAE" xlink:href="#default-a"/>
    <path fill="#E9715E" fill-rule="nonzero" d="M220.037378 133.960943C221.751969 129.345754 224.078021 125.017301 226.888252 121.032931 227.090409 120.748689 227.265113 120.442007 227.472261 120.160259 226.109574 118.958465 224.891641 117.66691 223.803487 116.315515 219.478327 110.962296 217.354431 104.644151 217.751258 98.8346486 217.995843 95.2267732 219.191314 91.8158724 221.469947 88.9684684L234.882186 99.6873738 242.77629 105.998039C243.520028 105.536769 244.301202 105.130354 245.067402 104.703991 248.890913 102.587138 253.013917 100.916595 257.408958 99.7671609 257.935565 99.6300267 258.444701 99.460479 258.978794 99.3358116 263.678319 98.2536983 268.382835 97.8348158 272.995008 98.0118435L273 98.0118435C258.801595 78.234603 233.646783 67.8148995 208.419594 73.5820147 177.931333 80.5534171 157.835436 108.758176 160.186446 139L218.42761 139C218.886831 137.289563 219.425916 135.609046 220.037378 133.960943M309 244.081156C309 244.081156 305.626678 250.433991 288.239371 256.870904 285.934848 257.728995 283.411085 258.582139 280.590849 259.422919 280.306832 259.506997 280.05022 259.578711 279.77866 259.652897 279.120937 259.840836 278.490619 260.013938 277.882724 260.167257 277.541405 260.256281 277.185139 260.35025 276.86126 260.431855L260.276175 265.90929 242.390593 271.81948 241.849964 272C241.194733 270.039004 240.930647 268.028551 241.015354 266.018097 241.122483 263.453718 241.812594 260.901703 242.981049 258.473332 243.337315 257.73394 243.720987 257.00444 244.166943 256.289777 244.565563 255.644355 245.004045 255.013769 245.469933 254.395549 247.191473 252.130388 249.386374 250.080369 251.940034 248.344405 254.257013 246.759287 256.870465 245.428877 259.750495 244.474344 262.685335 243.50992 265.625158 243.020289 268.477782 242.918901 271.447502 242.81504 274.310092 243.148879 276.955932 243.888271 277.870267 244.14545 278.767162 244.434778 279.626686 244.783454 281.530097 243.173608 283.373715 241.299163 285.037953 239.167538 286.956312 236.70702 288.628025 233.892879 289.801463 230.66824 290.115376 229.81015 290.391919 228.917439 290.631091 228L296.196823 232.871579 309 244.078683 308.997509 244.081156 309 244.081156 309 244.081156zM188 260.502534C188 260.849708 187.946752 261.184211 187.896041 261.518713 187.57402 263.540936 186.311293 265.238791 184.571874 266.18655 183.651453 266.688304 182.614394 267 181.501268 267 180.380534 267 179.34094 266.688304 178.420519 266.18655 176.683636 265.238791 175.42598 263.540936 175.101424 261.518713 175.050712 261.184211 175 260.849708 175 260.502534 175 259.519298 175.23581 258.594347 175.631363 257.75809 176.670958 255.550877 178.904818 254 181.501268 254 184.090111 254 186.321436 255.550877 187.366101 257.75809 187.759118 258.594347 188 259.519298 188 260.502534L188 260.502534zM159.495642 202L149.506896 202C149.133841 202 148.781088 201.941715 148.425797 201.880897 147.875097 201.7846 147.34216 201.637622 146.852367 201.417154 144.588657 200.393372 143 198.127875 143 195.502534 143 191.924366 145.931149 189 149.506896 189L159.495642 189C161.769502 189 163.774357 190.183431 164.936666 191.964912 165.604105 192.981092 166 194.194932 166 195.497466 166 199.073099 163.079003 202 159.495642 202L159.495642 202zM329.997532 253.747807L329.995034 253.747807 284.523377 213.046695 280.72429 209.646602C274.384984 210.816634 268.085642 210.761633 262.026084 209.719104 255.127281 208.536572 248.545692 206.054004 242.618516 202.408905 242.548579 202.368904 242.483637 202.328902 242.416198 202.286401L224.32245 202.286401 203.990712 202.286401C202.741834 202.286401 201.580377 201.908891 200.588768 201.281374 199.747024 200.748859 199.047652 200.02634 198.530616 199.171316 197.946141 198.20379 197.586464 197.083759 197.586464 195.878726 197.586464 192.34863 200.473871 189.463551 203.990712 189.463551L234.148624 189.463551C237.670461 189.463551 240.550374 186.580972 240.550374 183.053376 240.550374 179.528279 237.670461 176.643201 234.148624 176.643201L214.838468 176.643201 182.360141 176.643201 155.426832 176.643201 128.620909 176.643201C127.289605 176.643201 126.053216 176.230689 125.02414 175.52567 123.330661 174.370639 122.211666 172.428085 122.211666 170.233025 122.211666 168.882989 122.64128 167.630454 123.363132 166.592926 124.522091 164.92288 126.445363 163.81785 128.620909 163.81785L219.339426 163.81785C222.858765 163.81785 225.746171 160.937772 225.746171 157.410175 225.746171 153.887579 222.858765 151 219.339426 151L152.16726 151 73.4829345 151 62.2280437 151C62.4078821 151.687519 62.5952139 152.365037 62.7550703 153.057556 65.5975172 165.507896 65.1554143 177.943236 62.0057433 189.463551L83.2116961 189.463551C86.7360305 189.463551 89.623437 192.34863 89.623437 195.878726 89.623437 197.521271 88.9890069 199.016312 87.962429 200.148843 86.9308555 201.278874 85.5021388 202.041395 83.9085701 202.218899L64.451047 202.218899 46.1349985 202.218899C43.7346545 202.218899 41.6515256 203.578937 40.5550105 205.561491 40.3776698 205.873999 40.262773 206.219009 40.1428806 206.561518 39.9055938 207.214036 39.7332486 207.899055 39.7332486 208.631575 39.7332486 211.259146 41.3418038 213.531709 43.6222555 214.514235 44.3915645 214.849245 45.2457972 215.03675 46.1349985 215.03675L194.726533 215.03675C198.250867 215.03675 201.133278 217.924329 201.133278 221.449425 201.133278 224.974521 198.250867 227.8596 194.726533 227.8596L152.417036 227.8596 41.4042477 227.8596C37.8799133 227.8596 35 230.742179 35 234.269775 35 237.797372 37.8799133 240.67995 41.4042477 240.67995L116.431858 240.67995C119.044511 240.67995 121.307478 242.282494 122.29659 244.545056 122.636285 245.325077 122.833608 246.190101 122.833608 247.090125 122.833608 248.390161 122.41898 249.590194 121.747083 250.605221 120.86038 251.930258 119.509094 252.925285 117.918023 253.310295 117.440951 253.425299 116.956386 253.500301 116.449342 253.500301L116.444346 253.500301C116.439351 253.502801 116.434355 253.505301 116.431858 253.505301L83.3715525 253.505301 82.9219563 253.505301C82.9494316 253.517801 82.9744092 253.530301 83.0043823 253.537802L82.9943913 253.537802C82.996889 253.537802 82.9993868 253.540302 82.9993868 253.540302 82.7246336 253.557802 82.4548759 253.600303 82.1901137 253.650305 81.7804816 253.725307 81.3808406 253.822809 81.0036793 253.977814 80.6614867 254.115317 80.3417739 254.290322 80.032052 254.482827 78.2136853 255.620358 76.9947801 257.620413 76.9947801 259.912976 76.9947801 260.037979 77.0397398 260.150482 77.0447353 260.272986 77.0747083 260.685497 77.1121747 261.098008 77.2145827 261.488019 77.4243943 262.305541 77.8040532 263.050561 78.2911158 263.708079 78.4234969 263.888084 78.5508824 264.070589 78.7007478 264.233094 79.8622046 265.515629 81.5357015 266.320651 83.3965301 266.320651L102.771627 266.320651C102.776623 266.325651 102.784116 266.330651 102.791609 266.338151L143.782291 266.338151C145.975322 266.338151 147.916078 267.453182 149.070042 269.150728 149.779405 270.175756 150.189037 271.41329 150.189037 272.748326 150.189037 274.483374 149.484669 276.058417 148.355684 277.215949 148.338199 277.235949 148.330706 277.25845 148.308226 277.27845 148.285746 277.298451 148.258271 277.313451 148.235791 277.335952 147.084325 278.458482 145.518232 279.163502 143.782291 279.163502L126.477834 279.163502 112.742671 279.163502 112.752662 279.176002 111.903425 279.176002C109.697906 279.176002 107.74466 280.306033 106.595692 282.008579 105.898818 283.031107 105.494182 284.266141 105.494182 285.583677 105.494182 287.346225 106.213536 288.953769 107.37749 290.111301 108.536449 291.273833 110.137511 291.993852 111.903425 291.993852L118.202767 291.993852C118.202767 291.993852 118.202767 292.003853 118.205265 292.003853 119.042013 291.996352 119.868771 292.061354 120.695528 292.116356 121.055205 292.138856 121.419877 292.128856 121.774559 292.163857 122.443958 292.228859 123.108361 292.333862 123.770266 292.438864 126.610215 292.883877 129.362743 293.668898 131.965405 294.791429 140.232979 298.376527 146.976922 305.206713 150.283952 314.054455 150.813476 315.461993 151.270565 316.914533 151.615256 318.424574 151.665211 318.63708 151.697682 318.849586 151.745139 319.059592 152.21222 318.959589 152.6793 318.889587 153.143883 318.809585 154.4602 318.587079 155.769025 318.439575 157.070356 318.372073 158.296754 318.307071 159.520655 318.292071 160.732067 318.359573 164.188962 315.296989 167.993045 312.576915 172.076877 310.251851 175.73609 308.171794 179.620102 306.401746 183.71892 305.009208 184.68805 304.684199 185.672166 304.384191 186.661277 304.099183 186.931035 304.021681 187.198295 303.951679 187.463057 303.874177 188.424693 303.60917 189.393823 303.354163 190.377939 303.126656 207.55501 299.189049 224.709602 302.216632 238.886868 310.339354 242.496126 312.40191 245.923048 314.796975 249.100194 317.494549 253.084116 320.882142 256.685881 324.744747 259.818068 329.022364 261.231798 328.957362 262.635537 328.947362 264.044272 328.927361 267.686001 328.87986 271.300254 329.007364 274.887033 329.289871 277.811905 329.519878 280.72429 329.817386 283.606701 330.259898 284.755669 330.434903 285.882157 330.68991 287.023631 330.899915 289.9535 331.43243 292.8484 332.077447 295.708331 332.819968 296.84481 333.119976 297.99128 333.364983 299.120266 333.694992 299.242656 333.734993 299.370042 333.772494 299.499925 333.812495 299.702243 333.874997 299.909557 333.942498 300.111876 334 307.670087 327.972335 316.53962 323.37721 326.39327 320.679636 327.397368 320.407129 328.401466 320.127121 329.428044 319.894615 343.053305 316.772029 356.656087 317.672054 369 321.809667 360.972211 298.381527 341.607104 281.388563 318.630242 275.658406 326.200942 270.203257 332.585208 263.36057 337.523273 255.607858L336.609094 255.380352 330.002528 253.752807 329.997532 253.747807 329.997532 253.747807 329.997532 253.747807zM341.702003 170.593691C341.122093 169.872922 339.327771 170.305636 338.711936 169.594948 338.478433 169.32781 336.95976 166.865859 336.718559 166.598721 336.264381 166.092167 335.693099 166.595823 335.223525 166.09935 334.430639 165.267694 330.560282 164.383747 329.741736 163.602494 329.385065 163.264791 328.110161 160.941449 327.748358 160.606267 321.189724 154.535178 311.530884 150.286057 303.827824 147.123244 287.456897 140.401951 268.324739 142.403134 253.567811 149.479771 253.046918 149.729267 252.510629 149.943482 252 150.21314 258.189134 148.975737 264.76573 148.776643 271.460362 149.590658 286.086425 151.369898 301.279568 158.008025 314.209521 169.36643 321.535383 175.805464 327.398638 183.136638 331.760797 190.848357 338.599123 202.927531 341.652634 215.934127 340.651903 227.985579 340.192594 233.597997 335.999381 240.007544 333.728492 245 333.951732 244.821068 337.100593 243.666075 337.323833 243.492183 337.819066 243.116678 338.30147 242.741173 338.824929 242.39843 340.326025 241.425644 341.986211 240.62927 343.715679 239.928663 344.267364 239.704368 344.795955 239.444791 345.363035 239.250738L345.368167 239.250738C347.993161 230.883774 349.60557 221.572611 349 212.5 348.733139 208.6391 352.408355 208.396182 351.5 204.5 348.808291 192.950062 348.897 179.149667 341.702003 170.593691zM31.6013667 108.397051C42.5672317 115.92795 51.5914847 126.385429 57.3788858 139L147 139C133.645803 115.791712 106.478209 102.9854 79.2282594 109.292685 73.6155534 110.58694 68.3672116 112.627978 63.5356425 115.259377 62.5323931 113.965122 61.4792309 112.723848 60.3861383 111.517895 58.4844567 108.80324 56.0586895 106.542709 53.2885234 104.839742 38.928581 93.388234-2 87.3332398-2 93.388234-2 94.3973996-2 95.9111482-2 95.9111482-.824551119 95.9641294 25.5893575 104.26704 31.6013667 108.397051zM281.785464 66.7968859C286.088219 65.8122995 288.784842 61.5235494 287.795505 57.2125907 286.808634 52.9090349 282.520683 50.2168448 278.217928 51.2038989 273.910238 52.1835501 271.218549 56.4772354 272.202953 60.7807912 273.189823 65.09175 277.482709 67.7814724 281.785464 66.7968859M146.115683 104.872519C148.804894 104.26066 150.489291 101.577709 149.872812 98.8850453 149.253905 96.1948097 146.569548 94.5121984 143.885192 95.1264851 141.193554 95.7431997 139.509156 98.4212953 140.128063 101.113959 140.74697 103.80905 143.424045 105.489234 146.115683 104.872519" mask="url(#default-b)"/>
    <path fill="#4F0733" fill-rule="nonzero" d="M159.494924 189L152.609137 189 149.505076 189C145.928934 189 143 191.926901 143 195.497466 143 198.125341 144.591371 200.398441 146.850254 201.412086 147.34264 201.635088 147.875635 201.779532 148.426396 201.880897 148.779188 201.939181 149.134518 202 149.505076 202L159.494924 202C163.076142 202 166 199.073099 166 195.497466 166 194.194932 165.604061 192.981092 164.936548 191.959844 163.774112 190.185965 161.769036 189 159.494924 189M181.5 254C178.905579 254 176.67382 255.546713 175.631487 257.752682 175.235856 258.5945 175 259.514921 175 260.498732L175 260.501268C175 260.848644 175.048186 261.183343 175.101444 261.515506 175.423527 263.541447 176.683964 265.242832 178.421186 266.191145 179.341787 266.688122 180.381584 267 181.5 267 182.61588 267 183.655677 266.688122 184.576278 266.191145 186.3135 265.242832 187.576473 263.541447 187.898556 261.515506 187.951814 261.183343 188 260.848644 188 260.501268L188 260.498732C188 259.514921 187.764144 258.5945 187.365977 257.752682 186.323644 255.546713 184.089348 254 181.5 254" mask="url(#default-b)"/>
    <path fill="#4F0733" d="M324.831937,34 L341.900119,54.9809212 L341.900119,54.9859238 L416.452836,146.626125 L416.450337,146.621122 L416.49282,146.666146 C419.054297,148.524613 421.343383,150.800798 423.282608,153.467186 C426.0565,156.996523 428.145665,161.173697 429.212739,165.856135 C433.036211,182.692399 422.562895,199.456125 405.819584,203.313132 C397.153046,205.30667 388.513997,203.423189 381.656737,198.830799 L381.656737,198.860815 C381.531786,198.873321 356.86664,201.5222 348.719894,211.617455 L348.717395,211.619956 C348.459998,207.790463 347.910218,203.930954 347.02807,200.063941 C344.406617,188.600474 339.203696,178.397663 332.196495,169.905743 C331.631721,169.19037 331.049453,168.474998 330.449693,167.772132 C330.222284,167.506994 329.984878,167.251861 329.749972,166.986723 C329.307649,166.483962 328.870324,165.978699 328.415505,165.483441 C327.640815,164.658011 326.841134,163.892613 326.038955,163.117209 C325.696592,162.779533 325.361725,162.419346 325.009366,162.089174 C318.621918,156.063537 311.442286,151.45864 303.940283,148.317005 C287.996652,141.646033 270.616095,141.643531 256.246835,148.67219 C255.739538,148.919819 255.217247,149.13243 254.714947,149.397568 C260.747537,148.17193 267.152479,147.971826 273.667376,148.782247 C287.914185,150.550668 302.710774,157.139097 315.303243,168.407463 C322.437893,174.800791 328.150611,182.077078 332.398914,189.728561 C339.056255,201.719803 342.032566,214.631524 341.057955,226.595251 C340.610634,232.160648 339.34364,237.535946 337.132023,242.488524 L337.134522,242.486023 C337.351935,242.305929 337.599337,242.15335 337.81675,241.98076 C338.299057,241.613068 338.76637,241.237873 339.281165,240.900197 C340.743081,239.937196 342.359935,239.139281 344.041763,238.441417 C344.57405,238.221303 345.091344,237.96617 345.646122,237.77357 L345.65112,237.77357 C351.541267,235.750017 358.456005,235.37232 365.480699,237.105722 C381.901639,241.157831 392.604863,255.162621 389.388648,268.379501 L337.446898,255.560328 L336.542259,255.33271 L329.927401,253.704362 L329.922403,253.701861 L329.922403,253.696858 L284.428078,212.975662 L280.629595,209.576392 C274.289628,210.747002 267.979648,210.691973 261.914571,209.64893 C255.019826,208.465814 248.427459,205.982021 242.497328,202.335123 L242.299907,202.215061 L203.855265,202.215061 C202.600766,202.215061 201.43873,201.834863 200.451624,201.207036 C199.609461,200.674259 198.907241,199.951382 198.389948,199.095937 C197.807681,198.127933 197.447824,197.00735 197.447824,195.799221 C197.447824,192.267383 200.329173,189.385883 203.855265,189.385883 L234.025712,189.385883 C237.546806,189.385883 240.435652,186.496879 240.435652,182.972544 C240.435652,179.443207 237.546806,176.554203 234.025712,176.554203 L128.44539,176.554203 C127.113422,176.554203 125.876416,176.141489 124.849326,175.438623 C123.152504,174.283021 122.03545,172.33951 122.03545,170.143366 C122.03545,168.792663 122.467778,167.539511 123.18749,166.501471 C124.349526,164.833102 126.271258,163.730028 128.44539,163.730028 L219.206632,163.730028 C222.735223,163.730028 225.619071,160.841024 225.619071,157.31669 C225.619071,153.787353 222.735223,150.898349 219.206632,150.898349 L62.0244235,150.898349 L62.0244235,150.90085 C62.1968546,151.588708 62.3917767,152.266561 62.5517128,152.959422 C65.3930778,165.415906 64.9482555,177.857382 61.7995133,189.383381 L61.7995133,189.385883 L83.0135387,189.385883 C86.5446281,189.385883 89.4209791,192.267383 89.4209791,195.799221 C89.4209791,197.445078 88.7912307,198.940856 87.764141,200.073946 C86.7345523,201.204535 85.3051233,201.967432 83.7082612,202.145024 L45.9183575,202.145024 C43.5143179,202.145024 41.4301505,203.505732 40.3330887,205.489265 C40.1631566,205.801928 40.0457036,206.147107 39.9207535,206.489786 C39.6833483,207.142626 39.5109172,207.825481 39.5109172,208.558362 C39.5109172,211.192233 41.1202743,213.465917 43.4018628,214.446427 C44.1740544,214.781602 45.0262139,214.9692 45.9183575,214.9692 L194.583969,214.9692 C198.11006,214.9692 200.993908,217.858203 200.993908,221.385039 C200.993908,224.911875 198.11006,227.800879 194.583969,227.800879 L41.1877473,227.800879 C37.6641549,227.800879 34.780307,230.682379 34.780307,234.214217 C34.780307,237.741053 37.6641549,240.625054 41.1877473,240.625054 L116.247762,240.625054 C118.864217,240.625054 121.128313,242.228389 122.117917,244.492067 C122.460281,245.272473 122.655203,246.137924 122.655203,247.038392 C122.655203,248.339069 122.242867,249.539694 121.568137,250.555223 C120.68349,251.878412 119.329031,252.87393 117.734668,253.25913 C117.264856,253.376692 116.775052,253.449229 116.267754,253.449229 C116.265255,253.449229 116.265255,253.451731 116.262756,253.451731 C116.257758,253.454232 116.25276,253.456733 116.247762,253.456733 L82.7136585,253.456733 C82.7461456,253.466739 82.7686366,253.481746 82.8011236,253.491752 L82.8036226,253.494253 C82.5262334,253.509261 82.2563412,253.551783 81.988948,253.601809 C81.5841098,253.674347 81.1867685,253.774399 80.8069202,253.926978 C80.464557,254.067051 80.1446848,254.242142 79.8348086,254.434742 C78.0155353,255.572835 76.7935235,257.573876 76.7935235,259.86757 C76.7935235,259.992635 76.8360065,260.105194 76.8435035,260.227758 C76.8709926,260.637971 76.9134756,261.050686 77.0109367,261.443391 C77.2258508,262.258815 77.6032001,263.004203 78.0930044,263.664547 C78.2229525,263.844641 78.3504016,264.027236 78.4978427,264.18982 C79.6648765,265.475489 81.3417066,266.280909 83.2009639,266.280909 L102.588219,266.280909 L102.600714,266.298418 L143.616829,266.298418 C145.808453,266.298418 147.750178,267.413998 148.907215,269.109881 C149.611934,270.135415 150.024269,271.37356 150.024269,272.709255 C150.024269,274.445158 149.32205,276.020979 148.195,277.179081 C148.175008,277.199092 148.162513,277.221604 148.142521,277.241614 C148.12003,277.261624 148.092541,277.276632 148.072549,277.299144 C146.915511,278.422229 145.346138,279.125094 143.616829,279.125094 L112.561735,279.125094 L112.561735,279.127596 L112.566733,279.137601 L111.714573,279.137601 C109.512953,279.137601 107.561232,280.268189 106.406694,281.974077 C105.711971,282.99711 105.304634,284.232753 105.304634,285.550939 C105.304634,287.314357 106.026845,288.922694 107.188881,290.080797 C108.350917,291.246404 109.952777,291.96928 111.714573,291.96928 L118.022054,291.974283 L118.022054,291.979285 C118.859219,291.971781 119.68389,292.036815 120.513558,292.086841 C120.873414,292.109353 121.238269,292.099348 121.595626,292.134366 C122.267857,292.1994 122.930093,292.304455 123.594827,292.409509 C126.433693,292.857242 129.190092,293.64015 131.789054,294.768237 C140.068246,298.352603 146.808054,305.18616 150.12173,314.035766 C150.64902,315.443999 151.108836,316.897256 151.451199,318.408042 C151.503678,318.620653 151.533666,318.833264 151.581147,319.045874 C152.048461,318.945822 152.515774,318.873284 152.983087,318.793243 C154.295063,318.570627 155.60454,318.42305 156.90652,318.355515 C158.138528,318.290481 159.36054,318.275473 160.577553,318.343008 C164.031174,315.278914 167.834654,312.557497 171.928019,310.231286 C175.58156,308.152704 179.470006,306.381782 183.575866,304.991058 C184.540481,304.663388 185.525087,304.36073 186.514692,304.075582 C186.782085,303.998042 187.049478,303.928005 187.316872,303.850465 C188.281486,303.585327 189.246101,303.330194 190.230708,303.105077 C207.423839,299.168027 224.574488,302.1896 238.76382,310.31633 C242.377376,312.387408 245.808505,314.776152 248.984736,317.482561 C252.973143,320.864321 256.574205,324.736336 259.710452,329.011061 L259.712951,329.011061 C261.124887,328.946028 262.526827,328.936022 263.936264,328.916012 C267.577309,328.870989 271.195864,328.996054 274.786929,329.278701 C277.71326,329.508821 280.627096,329.806476 283.508445,330.249206 C284.657986,330.424297 285.785035,330.67943 286.927079,330.889539 C289.855909,331.424818 292.752252,332.067653 295.621106,332.810539 C296.755653,333.110695 297.905194,333.355823 299.027245,333.685995 C299.157194,333.726016 299.279645,333.763535 299.409593,333.803556 C299.614511,333.86859 299.819429,333.933624 300.021848,333.996156 C307.591324,327.960515 316.460281,323.365623 326.313845,320.664217 C327.320943,320.391575 328.330539,320.111429 329.357629,319.878808 C342.987184,316.757183 356.59175,317.65515 368.944315,321.794805 L368.946814,321.797307 C392.369957,329.646392 411.274905,349.149044 417.215032,375 L-2,375 L-2,95.2118625 C2.80058226,95.754645 7.50120445,96.7576671 12.0468885,98.1959158 C19.0266003,100.402064 25.6239648,103.636248 31.6440598,107.73338 C42.6246733,115.199767 51.6660614,125.567664 57.4537494,138.074174 L217.177443,138.074174 C217.639758,136.355779 218.172046,134.672403 218.789299,133.016541 C220.503614,128.389132 222.832684,124.044371 225.64656,120.049791 C225.848979,119.762142 226.023909,119.456983 226.231326,119.171834 C224.864372,117.966207 223.647358,116.670532 222.555295,115.317328 C218.227024,109.947033 216.097874,103.606232 216.500213,97.7806996 C216.740118,94.1613156 217.942137,90.7420358 220.221227,87.8855489 L233.650862,98.6361449 L241.555204,104.964439 C242.299907,104.504199 243.079595,104.093986 243.849288,103.668765 C247.677759,101.545159 251.80361,99.8692868 256.204352,98.7161866 C256.731642,98.5761137 257.241438,98.4060251 257.778723,98.2834613 C262.484344,97.195395 267.194962,96.7776775 271.810618,96.9527687 L271.815616,96.9527687 C278.635392,97.2079015 285.250249,98.7787191 291.377801,101.455112 C291.387797,101.455112 291.392795,101.460115 291.402791,101.467619 C313.024154,110.367251 337.714291,129.129518 348.90482,152.824351 L348.909818,152.824351 C348.909818,152.824351 348.922313,152.851866 348.944804,152.896889 C349.177211,153.404653 349.40712,153.91742 349.634529,154.430187 C352.013578,159.412781 359.935414,173.865304 368.609449,165.748579 C368.619445,165.738574 368.63194,165.728568 368.641936,165.718563 C369.963908,160.080628 372.805273,154.937952 376.831164,150.84332 C362.291972,145.858225 347.165515,135.20518 334.742978,119.947238 C309.415595,88.813532 304.977368,50.3385046 324.82444,34 L324.831937,34 L324.831937,34 Z M412.046624,169.858419 C411.798716,171.570747 412.547349,173.344317 414.103522,174.32174 C415.220334,175.024799 416.523691,175.159531 417.706775,174.826375 C418.475044,174.610803 419.194221,174.201706 419.768582,173.594185 C419.969854,173.383512 420.151489,173.153242 420.308579,172.896025 C420.973757,171.842662 421.140665,170.62027 420.887849,169.493417 C420.67185,168.550289 420.136762,167.688001 419.358675,167.041285 C419.20404,166.916351 419.056768,166.784068 418.887405,166.676282 C417.903138,166.056513 416.764235,165.880136 415.698968,166.07611 C414.496247,166.291682 413.384344,166.982493 412.687257,168.104447 C412.392713,168.572336 412.206169,169.074521 412.100624,169.586505 C412.09326,169.650196 412.06626,169.713888 412.051533,169.77758 C412.046624,169.804526 412.051533,169.831473 412.046624,169.858419 L412.046624,169.858419 Z" mask="url(#default-b)"/>
    <path fill="#E9715E" fill-rule="nonzero" d="M414.100751,174.318993 C415.220223,175.022325 416.523819,175.159561 417.707121,174.828725 C418.475531,174.613069 419.194841,174.203813 419.769307,173.596056 C419.96816,173.385301 420.147374,173.154941 420.306948,172.900075 C420.969793,171.841401 421.141642,170.618534 420.888779,169.493692 C420.67274,168.550198 420.137554,167.687574 419.359325,167.040606 C419.204661,166.915624 419.062272,166.78574 418.890423,166.677912 C417.901065,166.055451 416.764408,165.881456 415.698945,166.075056 C414.496003,166.290712 413.383896,166.981791 412.684226,168.101731 C412.392083,168.569803 412.207959,169.074634 412.10485,169.584366 C412.092575,169.650533 412.063115,169.714249 412.05084,169.777966 C412.04593,169.804923 412.05084,169.83188 412.04593,169.858837 C411.800432,171.56693 412.546747,173.34364 414.100751,174.318993" mask="url(#default-b)"/>
    <path fill="#4F0733" fill-rule="nonzero" d="M296.194616,232.8746 L290.631499,228 C290.389841,228.917543 290.115796,229.80788 289.80189,230.666067 C288.625987,233.896015 286.956802,236.707998 285.035995,239.168793 C283.374284,241.300658 281.523234,243.177787 279.624848,244.785341 C278.765343,244.436625 277.870959,244.149739 276.951662,243.89253 C274.308372,243.150582 271.443354,242.819178 268.478683,242.920578 C265.623631,243.024451 262.683873,243.511663 259.75159,244.478669 C256.869133,245.433309 254.25823,246.761396 251.93632,248.344219 C249.385208,250.085324 247.192847,252.135574 245.468854,254.400989 C244.997994,255.019279 244.562013,255.649935 244.160911,256.297903 C243.722438,257.007701 243.331301,257.739756 242.980025,258.479231 C241.811596,260.905402 241.123992,263.460176 241.016865,266.022371 C240.927178,268.030577 241.193749,270.041257 241.851457,272 L242.387091,271.824406 L260.277259,265.911079 L276.854501,260.437974 C277.183355,260.353887 277.537122,260.259907 277.878433,260.173346 C278.491298,260.02001 279.11911,259.844416 279.774327,259.658929 C280.050864,259.579788 280.30747,259.513012 280.586498,259.426452 C283.406672,258.585577 285.93287,257.729863 288.237341,256.876623 C305.591875,250.443932 308.987543,244.105222 308.997509,244.08049 L309,244.078017 L296.194616,232.8746 L296.194616,232.8746 L296.194616,232.8746 Z" mask="url(#default-b)"/>
    <path fill="#E9715E" fill-rule="nonzero" d="M417,147 L416.997486,146.995007 L355.087856,40 C349.117119,43.4376006 344.75031,48.8498868 342,55.532862 L342,55.5378549 L417,147 Z" mask="url(#default-b)"/>
  </g>
</svg>
