<svg xmlns="http://www.w3.org/2000/svg" xmlns:xlink="http://www.w3.org/1999/xlink" width="52" height="52" viewBox="0 0 52 52">
  <defs>
    <circle id="medallion-icon-b" cx="26" cy="26" r="26"/>
    <filter id="medallion-icon-a" width="113.5%" height="113.5%" x="-6.7%" y="-4.8%" filterUnits="objectBoundingBox">
      <feOffset dy="1" in="SourceAlpha" result="shadowOffsetOuter1"/>
      <feGaussianBlur in="shadowOffsetOuter1" result="shadowBlurOuter1" stdDeviation="1"/>
      <feColorMatrix in="shadowBlurOuter1" values="0 0 0 0 0   0 0 0 0 0   0 0 0 0 0  0 0 0 0.2 0"/>
    </filter>
    <circle id="medallion-icon-c" cx="24" cy="24" r="24"/>
  </defs>
  <g fill="none" fill-rule="evenodd">
    <use fill="#000" filter="url(#medallion-icon-a)" xlink:href="#medallion-icon-b"/>
    <use fill="#FFF" xlink:href="#medallion-icon-b"/>
    <g transform="translate(2 2)">
      <mask id="medallion-icon-d" fill="#fff">
        <use xlink:href="#medallion-icon-c"/>
      </mask>
      <use fill="#FFF" xlink:href="#medallion-icon-c"/>
      <g mask="url(#medallion-icon-d)">
        <g transform="translate(-84 5)">
          <path fill="#E9715E" fill-rule="nonzero" d="M58.5230858,12.3332855 C60.3577617,13.5776208 61.8675905,15.3055168 62.8358684,17.3898305 L77.8301887,17.3898305 C75.595926,13.5551102 71.050573,11.439115 66.4914412,12.4812718 C65.5523911,12.6951224 64.6743021,13.0323643 63.8659424,13.4671522 C63.6980909,13.2533016 63.5218885,13.0482051 63.3390055,12.8489447 C63.0208391,12.4004004 62.6149891,12.0268914 62.1515185,11.7455091 C59.0809208,9.14470246 51.5651801,9.18638873 51.5651801,10.1868593 C51.5651801,10.3536044 52.9013118,10.2702318 52.9013118,10.2702318 C53.0979737,10.278986 57.5172292,11.6508812 58.5230858,12.3332855 Z"/>
          <ellipse cx="52.637" cy="21.147" fill="#4F0733" rx="11.471" ry="11.486"/>
          <ellipse cx="39.826" cy="26.353" fill="#4F0733" rx="4.985" ry="4.992"/>
          <ellipse cx="35.967" cy="41.703" fill="#4F0733" rx="15.277" ry="15.297"/>
          <ellipse cx="20.905" cy="39.61" fill="#4F0733" rx="4.824" ry="4.831"/>
          <ellipse cx="49.85" cy="32.633" fill="#4F0733" rx="7.075" ry="7.085"/>
          <path fill="#E9715E" fill-rule="nonzero" d="M89.7844709 16.6494713C90.0707609 15.8730736 90.4591484 15.1449124 90.9283804 14.474635 90.9621352 14.426818 90.9913059 14.3752259 91.025894 14.3278283 90.7983623 14.1256545 90.5950006 13.9083806 90.4133086 13.6810399 89.6911246 12.7804857 89.3364918 11.7176052 89.4027511 10.7402921 89.4435901 10.1333513 89.6432013 9.5595468 90.023671 9.08053753L92.2631499 10.8837432 93.5812503 11.9453653C93.7054343 11.8677675 93.8358692 11.7993975 93.9638037 11.727672 94.602226 11.3715609 95.2906553 11.0905309 96.0245077 10.8971655 96.1124366 10.8740959 96.1974484 10.8455735 96.2866275 10.8246011 97.0713203 10.6425608 97.8568465 10.5720936 98.6269539 10.6018743L98.6277873 10.6018743C96.2570401 7.27481516 92.0568711 5.52194321 87.8446171 6.49212575 82.7539073 7.66490153 79.3984395 12.4096939 79.7909942 17.4971751L89.5156835 17.4971751C89.5923608 17.209434 89.6823734 16.9267263 89.7844709 16.6494713M101.269065 37.2780888C100.883951 37.4225362 100.4622 37.566151 99.9909034 37.7076845 99.9434407 37.7218379 99.9005577 37.7339098 99.8551767 37.7463981 99.7452631 37.778035 99.6399292 37.8071742 99.5383424 37.8329833 99.4813039 37.8479692 99.4217673 37.8637876 99.3676432 37.8775247L96.5960716 38.7995736 93.6071708 39.7944707 93.5168251 39.8248588C93.4073278 39.4947527 93.3631958 39.1563212 93.3773514 38.8178897 93.395254 38.3862126 93.51058 37.9566169 93.7058432 37.5478349 93.7653797 37.4233687 93.829496 37.3005676 93.9040208 37.1802642 93.9706351 37.0716164 94.0439108 36.9654663 94.1217663 36.8613976 94.4094569 36.4800898 94.7762519 36.1349979 95.2029998 35.8427729 95.5901955 35.5759406 96.0269356 35.3519847 96.508224 35.1913026 96.9986718 35.0289554 97.4899524 34.946533 97.966661 34.9294657 98.4629376 34.9119821 98.9413116 34.9681793 99.3834641 35.0926455 99.5362607 35.1359381 99.6861429 35.1846422 99.82978 35.243337 100.147863 34.972342 100.455955 34.6568056 100.734069 34.2979766 101.054651 33.8837831 101.334014 33.4100622 101.53011 32.8672397 101.582569 32.7227923 101.628783 32.5725171 101.668751 32.4180791L102.598854 33.2381407 104.738422 35.1246986 104.738006 35.1251149C104.738422 35.1251149 104.174698 36.1945252 101.269065 37.2780888zM84.5669021 37.9535468C84.5137914 38.2875078 84.3055306 38.5679012 84.0186493 38.7244193 83.8668448 38.8072819 83.6958033 38.8587571 83.512216 38.8587571 83.3273741 38.8587571 83.1559144 38.8072819 83.0041098 38.7244193 82.7176467 38.5679012 82.5102223 38.2875078 82.4566935 37.9535468 82.4483296 37.8983051 82.4399657 37.8430634 82.4399657 37.7857292 82.4399657 37.6233522 82.4788578 37.4706005 82.5440961 37.3324963 82.7155558 36.9679849 83.083985 36.7118644 83.512216 36.7118644 83.9391924 36.7118644 84.3072034 36.9679849 84.4794994 37.3324963 84.5443196 37.4706005 84.584048 37.6233522 84.584048 37.7857292 84.584048 37.8430634 84.5752659 37.8983051 84.5669021 37.9535468zM78.1412734 28.1242938C78.0804144 28.1242938 78.0228675 28.1146683 77.9649065 28.1046244 77.875067 28.0887215 77.7881256 28.0644486 77.7082223 28.0280393 77.3389282 27.8589663 77.0797599 27.4848295 77.0797599 27.051266 77.0797599 26.4603474 77.5579378 25.9774011 78.1412734 25.9774011L79.7708044 25.9774011C80.1417545 25.9774011 80.4688199 26.1728395 80.6584351 26.4670433 80.7673189 26.6348608 80.8319039 26.8353212 80.8319039 27.050429 80.8319039 27.6409291 80.3553821 28.1242938 79.7708044 28.1242938L78.1412734 28.1242938zM100.688956 29.9094457L100.053652 29.3410315C98.9935576 29.5366329 97.9401465 29.5274379 96.9268335 29.3531521 95.7731771 29.155461 94.6725671 28.7404351 93.6813916 28.1310617 93.6696963 28.1243744 93.6588364 28.1176872 93.6475588 28.110582L90.6218212 28.110582 87.2218345 28.110582C87.0129901 28.110582 86.8187648 28.0474714 86.6529424 27.9425655 86.5121812 27.8535418 86.3952284 27.7327538 86.3087668 27.5898144 86.2110276 27.4280671 86.1508804 27.2408248 86.1508804 27.0393721 86.1508804 26.4492245 86.6337287 25.9669083 87.2218345 25.9669083L92.2650089 25.9669083C92.8539501 25.9669083 93.3355453 25.4850102 93.3355453 24.8952805 93.3355453 24.3059687 92.8539501 23.8236526 92.2650089 23.8236526L89.0358569 23.8236526 83.6046496 23.8236526 79.1007114 23.8236526 74.6180753 23.8236526C74.3954472 23.8236526 74.1886912 23.7546906 74.0166035 23.6368282 73.7334105 23.4437346 73.8100343 23.1240236 73.8100343 22.7570621 73.8100343 22.5313683 73.9037305 22.1790996 74.0244425 22.0056497 74.2182501 21.7264581 74.2502582 22.0056497 74.6140652 22.0056497L89.7885321 21.679561C90.3770556 21.679561 90.8599038 21.1980807 90.8599038 20.608351 90.8599038 20.0194572 90.3770556 19.5367232 89.7885321 19.5367232L78.5556275 19.5367232 74.2924528 19.5367232 65.3975953 19.5367232 63.5154896 19.5367232C63.5455632 19.6516599 63.5768899 19.7649247 63.603622 19.8806973 64.0789518 21.9620962 64.0050209 24.0409874 63.4783153 25.9669083L67.0244931 25.9669083C67.613852 25.9669083 68.0967003 26.4492245 68.0967003 27.0393721 68.0967003 27.3139663 67.9906073 27.5639014 67.8189372 27.7532334 67.6464317 27.9421476 67.4075138 28.0696228 67.1410283 28.0992973L63.8872327 28.0992973 60.8243208 28.0992973C60.4229218 28.0992973 60.0745694 28.326663 59.891204 28.6580986 59.8615481 28.7103426 59.8423344 28.7680199 59.8222854 28.8252793 59.7826049 28.9343646 59.7537844 29.0488834 59.7537844 29.1713432 59.7537844 29.6106103 60.022776 29.9905283 60.4041258 30.1547833 60.532774 30.2107888 60.6756236 30.2421351 60.8243208 30.2421351L85.6726268 30.2421351C86.2619857 30.2421351 86.7439985 30.7248692 86.7439985 31.314181 86.7439985 31.9034927 86.2619857 32.3858088 85.6726268 32.3858088L78.5973964 32.3858088 60.0332182 32.3858088C59.4438593 32.3858088 58.9622642 32.867707 58.9622642 33.4574367 58.9622642 34.0471664 59.4438593 34.5290646 60.0332182 34.5290646L72.579754 34.5290646C73.0166565 34.5290646 73.3950825 34.7969715 73.5604873 35.1752177 73.617293 35.3056186 73.6502904 35.4502299 73.6502904 35.6006924 73.6502904 35.8180273 73.5809541 36.018644 73.4685958 36.1883324 73.3203162 36.4098467 73.0943466 36.5761915 72.8282789 36.640556 72.7485003 36.6597818 72.6674687 36.6723203 72.5826778 36.6723203L72.5818425 36.6723203C72.5810071 36.6727383 72.5801717 36.6731562 72.579754 36.6731562L67.0512252 36.6731562 66.9760412 36.6731562C66.9806358 36.675246 66.9848127 36.6773357 66.989825 36.6785896L66.9881542 36.6785896C66.9430438 36.6819332 66.8979334 36.6890384 66.8536584 36.6973974 66.7851575 36.709936 66.7183273 36.7262361 66.6552563 36.7521491 66.5980329 36.7751364 66.5445687 36.804393 66.4927753 36.8365753 66.1886979 37.0267433 65.9848657 37.3611045 65.9848657 37.7443661 65.9848657 37.7652637 65.9923841 37.7840715 65.9932195 37.8045512 65.9982318 37.8735132 66.0044971 37.9424752 66.0216224 38.0076756 66.0567082 38.1443458 66.1201969 38.2688954 66.2016462 38.3788167 66.2237837 38.4089092 66.2450859 38.4394196 66.2701472 38.4665865 66.4643725 38.6809957 66.744224 38.8155761 67.0554021 38.8155761L70.295414 38.8155761C70.2962494 38.816412 70.2975025 38.8172479 70.2987556 38.8185017L77.1534463 38.8185017C77.520177 38.8185017 77.8447212 39.0049081 78.0376934 39.2886973 78.156317 39.4600574 78.224818 39.6669434 78.224818 39.8901296 78.224818 40.180188 78.1070298 40.4434975 77.9182344 40.6370091 77.9153106 40.6403527 77.9140575 40.6441143 77.9102983 40.6474579 77.9065391 40.6508015 77.9019446 40.6533092 77.8981854 40.6570708 77.7056308 40.844731 77.44374 40.9625934 77.1534463 40.9625934L74.2596983 40.9625934 71.9628277 40.9625934 71.9644984 40.9646831 71.8224843 40.9646831C71.4536651 40.9646831 71.1270324 41.1535972 70.9348956 41.4382223 70.8183604 41.6091645 70.7506948 41.8156326 70.7506948 42.035893 70.7506948 42.3305489 70.8709892 42.5992918 71.0656322 42.7928034 71.2594398 42.9871509 71.5271783 43.1075209 71.8224843 43.1075209L72.8758954 43.1075209C72.8758954 43.1075209 72.8758954 43.1091927 72.8763131 43.1091927 73.0162388 43.1079389 73.1544938 43.1188056 73.2927488 43.1280005 73.352896 43.1317621 73.4138785 43.1300903 73.4731903 43.1359416 73.5851309 43.1468084 73.6962362 43.1643623 73.8069237 43.1819163 74.2818358 43.2563117 74.7421289 43.3875485 75.1773606 43.5752087 76.5599105 44.1745513 77.6876702 45.3163951 78.2406902 46.7955257 78.3292402 47.0308325 78.4056772 47.2736624 78.4633183 47.5261051 78.4716721 47.561631 78.2510691 48.0552875 78.2590051 48.0903955 78.3371129 48.0736774 78.5029274 48.1037699 78.5806175 48.0903955 78.8007395 48.0531978 78.8990222 48.1016802 79.1166381 48.0903955 79.3217233 48.0795287 80.4685187 48.0791108 80.6710978 48.0903955 81.2491791 47.5784048 81.2021037 46.5485163 81.8850249 46.1598214 81.929122 46.1347621 82.3939121 46.1794503 82.4399657 46.1581921 83.0329757 45.8844599 83.3583929 45.8374915 83.9944254 45.6214689 84.1564886 45.5671352 84.1585049 45.178889 84.3239097 45.1312425 84.3690201 45.118286 84.4137128 45.1065834 84.4579878 45.0936269 84.618798 45.049324 84.7808612 45.0066929 84.9454306 44.9686593 87.8178764 44.3103856 90.686563 44.816525 93.0573646 46.1744497 93.6609249 46.5192597 94.2339939 46.9196574 94.765294 47.3706271 95.4315076 47.9369515 96.0338149 48.5826867 96.5575966 49.2978019 96.7940085 49.2869351 97.0287496 49.2852633 97.264326 49.2819197 97.8733163 49.2739787 98.477712 49.2952942 99.0775131 49.3425227 99.5666266 49.3809743 100.053652 49.4307105 100.535665 49.5046879 100.727801 49.5339445 100.902598 50.0411633 101.093482 50.0762712 101.583431 50.1652949 101.687269 49.9521396 102.165523 50.0762712 102.355572 50.1264254 102.941134 50.0237838 103.12993 50.0789534 103.150396 50.0856406 102.57262 50.6599794 102.59434 50.6666667 102.628172 50.6771155 103.41814 50.6570538 103.451973 50.6666667 104.715899 49.6589854 106.092355 48.9170715 107.740137 48.4661017 107.908048 48.420545 108.026495 47.8107301 108.198165 47.7718606 110.476658 47.2498391 112.965799 47.7743918 115.030017 48.4661017 113.687565 44.5494774 110.234816 41.3345703 106.392497 40.3766252 107.658512 39.4646549 108.726124 38.3207214 109.551895 37.0246535L109.399021 36.9866199 108.294234 36.7145334 108.293398 36.7136975 100.688956 29.9094457zM111.40578 22.5304249C111.307592 22.4110086 111.028603 22.648171 110.924332 22.5304249 110.884797 22.4861657 110.216253 21.6613716 110.175414 21.6171124 110.121071 21.5578047 112.058779 21.9103722 111.40578 22.0469065 111.134731 22.1035797 108.593909 22.01731 108.570588 21.9931822 108.43634 21.8553942 109.565088 21.2630312 109.426495 21.133594 109.366105 21.0776437 107.936422 20.6518841 107.875163 20.5963514 106.764685 19.5904989 105.113852 18.3267016 103.809605 17.8026896 101.037753 16.689112 97.8540827 18.0543209 95.3555062 19.2267716 95.2673109 19.268108 94.9084986 20.5654928 94.8220412 20.6101695 95.8699574 20.4051576 97.2514874 19.1102781 98.3849922 19.2451434 100.861411 19.5399262 103.433846 20.6397251 105.623087 22.5215753 106.863469 23.5883886 107.856209 24.8030108 108.59479 26.0806814 109.752624 28.0819479 110.269631 30.236869 110.100192 32.2335425 110.022424 33.1634029 109.802587 34.05986 109.418091 34.8870056 109.455889 34.8573603 109.4989 34.8314729 109.536698 34.8026627 109.620549 34.7404493 109.702227 34.6782359 109.790857 34.6214506 110.045016 34.4602803 110.326111 34.3283379 110.618937 34.2122619 110.712345 34.1751009 110.801844 34.1320944 110.89786 34.0999438 111.343181 32.7137129 111.534777 31.2381285 111.432245 29.7349866 111.387061 29.0953162 111.291914 28.4510528 111.138116 27.8055368 110.682368 25.8919536 112.624005 23.9479713 111.40578 22.5304249zM100.052507 5.44050876C100.773246 5.27536802 101.224948 4.55603319 101.059228 3.83297337 100.893921 3.11115521 100.175661 2.65960498 99.4549219 2.8251596 98.7333563 2.98947256 98.2824811 3.70963517 98.4473749 4.43145333 98.6126821 5.15451315 99.3317681 5.6056495 100.052507 5.44050876M77.3783333 11.8933592C77.8396045 11.7882716 78.1285234 11.3274709 78.0227807 10.8650021 77.9166218 10.4029504 77.4561832 10.1139595 76.9957447 10.2194641 76.5340572 10.3253857 76.2451383 10.7853524 76.3512973 11.2478212 76.4574562 11.710707 76.9166459 11.9992808 77.3783333 11.8933592"/>
          <path fill="#4F0733" fill-rule="nonzero" d="M79.7706873 25.9774011L78.6473628 25.9774011 78.1409765 25.9774011C77.5575765 25.9774011 77.0797599 26.4607659 77.0797599 27.050429 77.0797599 27.484411 77.3393708 27.8598033 77.7078776 28.0272023 77.7882038 28.0640301 77.8751548 28.0878845 77.9650042 28.1046244 78.0225575 28.1142498 78.0805248 28.1242938 78.1409765 28.1242938L79.7706873 28.1242938C80.3549154 28.1242938 80.8319039 27.6409291 80.8319039 27.050429 80.8319039 26.8353212 80.7673117 26.6348608 80.6584159 26.4662063 80.4687799 26.173258 80.1416784 25.9774011 79.7706873 25.9774011M83.5120069 36.7118644C83.0841106 36.7118644 82.7160278 36.9672973 82.5441164 37.3316033 82.4788654 37.4706258 82.4399657 37.6226293 82.4399657 37.7851014L82.4399657 37.7855201C82.4399657 37.8428878 82.4479129 37.8981618 82.4566967 37.9530171 82.5098178 38.2875923 82.7177009 38.5685685 83.0042199 38.7251782 83.1560541 38.8072517 83.3275472 38.8587571 83.5120069 38.8587571 83.6960483 38.8587571 83.8675414 38.8072517 84.0193755 38.7251782 84.3058945 38.5685685 84.5141959 38.2875923 84.567317 37.9530171 84.5761008 37.8981618 84.584048 37.8428878 84.584048 37.7855201L84.584048 37.7851014C84.584048 37.6226293 84.5451484 37.4706258 84.479479 37.3316033 84.3075676 36.9672973 83.9390666 36.7118644 83.5120069 36.7118644"/>
          <path fill="#4F0733" d="M110.286429,3.5070748 L110.286429,3.50791101 L122.737487,18.8260678 L122.737069,18.8252316 L122.744164,18.8327575 C123.171957,19.1434104 123.554257,19.5238871 123.878128,19.9695883 C124.341396,20.5595361 124.690307,21.2577735 124.868519,22.0404683 C125.507078,24.8547411 123.757928,27.6568888 120.961626,28.3016086 C119.514226,28.6348392 118.071418,28.3200053 116.926186,27.5523623 L116.926186,27.5573796 C116.905318,27.5594701 112.785989,28.0022446 111.4254,29.6897212 L111.424983,29.6901393 C111.381995,29.0500187 111.290176,28.4048808 111.142848,27.7584887 C110.705039,25.8423079 109.836099,24.1368528 108.665825,22.7173822 C108.571502,22.5978038 108.474258,22.4782255 108.374092,22.3607376 C108.336112,22.3164184 108.296463,22.2737715 108.257231,22.2294523 C108.183359,22.1454129 108.110321,22.0609555 108.034362,21.9781705 C107.904981,21.8401954 107.771426,21.7122549 107.637454,21.582642 C107.580276,21.5261977 107.52435,21.4659904 107.465502,21.4108003 C106.398733,20.4035825 105.199662,19.633849 103.946752,19.1087076 C101.284004,17.9936184 98.3812754,17.9932003 95.9814637,19.1680787 C95.8967399,19.2094712 95.8095119,19.2450102 95.7256229,19.2893295 C96.7331264,19.0844575 97.8028164,19.051009 98.8908702,19.1864754 C101.270231,19.4820764 103.741411,20.5833682 105.844481,22.4669366 C107.03604,23.535616 107.990122,24.751887 108.699631,26.0308738 C109.811474,28.035275 110.308549,30.1935392 110.145779,32.1933411 C110.071071,33.1236274 109.859471,34.0221376 109.490108,34.8499879 L109.490526,34.8495698 C109.526836,34.8194661 109.568154,34.7939617 109.604465,34.7651123 C109.685015,34.7036507 109.763061,34.6409348 109.849037,34.5844905 C110.093191,34.4235196 110.363222,34.2901437 110.644105,34.1734921 C110.733002,34.1366987 110.819395,34.0940519 110.912049,34.0618577 L110.912884,34.0618577 C111.896598,33.7236098 113.051429,33.6604758 114.224624,33.9502234 C116.967087,34.6275554 118.754634,36.968532 118.217493,39.1778052 L109.542696,37.0350109 L109.391612,36.9969632 L108.286864,36.7247761 L108.286029,36.724358 L108.286029,36.7235218 L100.688016,29.9167529 L100.053631,29.3485465 C98.9947925,29.5442202 97.9409621,29.5350219 96.9280329,29.3606716 C95.7765406,29.1629074 94.6755487,28.7477279 93.6851568,28.1381291 L93.6521855,28.11806 L87.2315413,28.11806 C87.0220273,28.11806 86.8279556,28.0545078 86.663099,27.9495632 C86.5224491,27.8605066 86.4051714,27.7396739 86.3187782,27.5966816 C86.2215336,27.4348745 86.161434,27.2475629 86.161434,27.0456176 C86.161434,26.4552516 86.6426484,25.9735933 87.2315413,25.9735933 L92.2703113,25.9735933 C92.8583695,25.9735933 93.340836,25.4906806 93.340836,24.901569 C93.340836,24.3116212 92.8583695,23.8287085 92.2703113,23.8287085 L74.6373293,23.8287085 C74.4148772,23.8287085 74.2082847,23.759721 74.0367503,23.6422331 C73.7533638,23.4490681 73.5668045,23.1241995 73.5668045,22.7571023 C73.5668045,22.531325 73.6390076,22.3218538 73.7592068,22.1483397 C73.9532786,21.8694628 74.2742273,21.685078 74.6373293,21.685078 L89.795375,21.685078 C90.3846853,21.685078 90.8663171,21.2021653 90.8663171,20.6130537 C90.8663171,20.0231059 90.3846853,19.5401932 89.795375,19.5401932 L63.544356,19.5401932 L63.544356,19.5406113 C63.5731537,19.6555905 63.6057077,19.7688973 63.6324186,19.8847127 C64.1069553,21.9668816 64.0326655,24.0465418 63.5067937,25.9731752 L67.0497505,25.9735933 C67.6394782,25.9735933 68.1198579,26.4552516 68.1198579,27.0456176 C68.1198579,27.3207315 68.0146835,27.570759 67.8431492,27.7601611 C67.6711974,27.9491451 67.4324683,28.0766675 67.1657762,28.106353 L60.85448,28.106353 C60.4529811,28.106353 60.104904,28.3338028 59.9216836,28.665361 C59.8933032,28.7176243 59.8736874,28.7753229 59.8528194,28.8326035 C59.8131704,28.9417292 59.7843726,29.0558722 59.7843726,29.1783773 C59.7843726,29.6186431 60.0531516,29.9987017 60.4341999,30.1625993 C60.5631637,30.2186255 60.705483,30.2499835 60.85448,30.2499835 L85.6831411,30.2499835 C86.272034,30.2499835 86.7536658,30.7328962 86.7536658,31.3224259 C86.7536658,31.9119556 86.272034,32.3948683 85.6831411,32.3948683 L60.0644202,32.3948683 C59.4759447,32.3948683 58.9943129,32.8765266 58.9943129,33.4668926 C58.9943129,34.0564223 59.4759447,34.5384988 60.0644202,34.5384988 L72.6002021,34.5384988 C73.0371765,34.5384988 73.4153034,34.8065049 73.5805774,35.184891 C73.6377555,35.3153401 73.6703095,35.4600048 73.6703095,35.6105231 C73.6703095,35.8279383 73.6014453,36.0286293 73.4887585,36.1983804 C73.3410136,36.4195586 73.1148052,36.5859648 72.8485305,36.6503532 C72.770067,36.6700042 72.6882648,36.6821293 72.603541,36.6821293 C72.6031236,36.6821293 72.6031236,36.6825474 72.6027063,36.6825474 C72.6018715,36.6829655 72.6010368,36.6833836 72.6002021,36.6833836 L66.9996675,36.6833836 C67.0050932,36.685056 67.0088494,36.6875646 67.0142751,36.6892371 C66.9683656,36.6921638 66.9232909,36.6992716 66.8786335,36.7076337 C66.8110214,36.7197588 66.7446614,36.7364831 66.6812229,36.7619875 C66.6240448,36.7854015 66.5706229,36.8146689 66.5188704,36.8468631 C66.2150334,37.0371014 66.0109451,37.3715864 66.0109451,37.7549898 C66.0109451,37.7758951 66.0180402,37.7947099 66.0192922,37.8151971 C66.0238832,37.8837665 66.0309783,37.952754 66.0472553,38.0183967 C66.0831481,38.1546993 66.1461692,38.2792949 66.2279715,38.389675 C66.2496742,38.4197786 66.2709595,38.4503004 66.2955836,38.4774773 C66.4904901,38.6923839 66.7705377,38.8270141 67.0810524,38.8270141 L70.3189202,38.8270141 L70.321007,38.8299408 L77.1711131,38.8299408 C77.5371366,38.8299408 77.8614242,39.0164162 78.0546612,39.2998922 C78.1723563,39.4713157 78.2412205,39.6782783 78.2412205,39.901547 C78.2412205,40.1917127 78.1239427,40.4551196 77.935714,40.6487028 C77.9323751,40.6520476 77.9302883,40.6558106 77.9269495,40.6591554 C77.9231933,40.6625003 77.9186023,40.6650089 77.9152634,40.6687719 C77.7220264,40.8565016 77.4599252,40.9739894 77.1711131,40.9739894 L71.9845982,40.9739894 L71.9854329,40.9760799 L71.8431137,40.9760799 C71.4754208,40.9760799 71.1494637,41.1650639 70.9566441,41.4502124 C70.8406184,41.6212178 70.7725889,41.8277623 70.7725889,42.0481042 C70.7725889,42.3428691 70.8932056,42.6117114 71.0872773,42.8052945 C71.281349,43.000132 71.5488759,43.1209647 71.8431137,43.1209647 L72.8965267,43.1218009 L72.8965267,43.1226371 C73.0363418,43.1213828 73.1740701,43.1322536 73.3126332,43.1406157 C73.3727328,43.1443787 73.4336672,43.1427062 73.4933494,43.1485597 C73.6056189,43.1594305 73.7162189,43.176991 73.8272363,43.1945514 C74.3013556,43.2693924 74.7617021,43.4002597 75.195755,43.5888256 C76.578464,44.1879717 77.70408,45.3302379 78.2574975,46.8094976 C78.3455601,47.0448914 78.4223541,47.2878111 78.4795322,47.5403472 C78.4882968,47.5758863 78.4933051,47.6114253 78.5012349,47.6469643 C78.5792809,47.6302401 78.657327,47.618115 78.735373,47.6047356 C78.9544863,47.5675242 79.1731822,47.5428559 79.390626,47.531567 C79.5963837,47.5206963 79.8004721,47.5181876 80.0037257,47.5294765 C80.5805152,47.0172964 81.215735,46.5623968 81.8993683,46.1735581 C82.5095465,45.8261118 83.1589565,45.5300926 83.8446766,45.2976256 C84.005777,45.2428537 84.1702163,45.1922628 84.3354903,45.1445987 C84.3801476,45.1316374 84.424805,45.1199305 84.4694624,45.1069692 C84.6305628,45.0626499 84.7916632,45.0200031 84.9561024,44.9823735 C87.8275294,44.3242744 90.6918612,44.8293467 93.0616231,46.1877737 C93.6651236,46.5339656 94.2381569,46.933257 94.7686197,47.385648 C95.4347239,47.9509275 96.0361376,48.5981559 96.5599226,49.3126994 C96.7961476,49.3018287 97.0302857,49.3001562 97.265676,49.2968114 C97.8737674,49.2892855 98.4781026,49.3101908 99.0778469,49.3574368 C99.5665737,49.3959026 100.053214,49.4456572 100.534428,49.519662 C100.726413,49.5489294 100.914642,49.5915763 101.105375,49.6266972 C101.594519,49.7161719 102.078238,49.8236252 102.557365,49.9478027 C102.746846,49.9979755 102.938831,50.0389499 103.126225,50.0941399 C103.147928,50.1008296 103.168378,50.1071012 103.190081,50.1137909 C103.224304,50.1246617 103.258528,50.1355324 103.292334,50.1459851 C104.556513,49.1370948 106.037718,48.3690337 107.683363,47.917479 C107.851559,47.8719055 108.020171,47.8250776 108.191706,47.7861937 C110.467979,47.2643972 112.74008,47.4144973 114.803083,48.106463 L114.8035,48.1068811 C118.715402,49.4188984 121.87272,52.6788724 122.864781,57 L52.8516295,57 L52.8516295,10.2318949 C53.6533753,10.3226239 54.4384268,10.4902845 55.197602,10.7306956 C56.3632845,11.0994653 57.4651111,11.6400766 58.4705279,12.3249345 C60.3044014,13.5729815 61.8144047,15.3060317 62.7810071,17.3965627 L89.4564799,17.3965627 C89.5336912,17.1093238 89.6225886,16.8279383 89.7256761,16.551152 C90.0119841,15.7776555 90.4009623,15.0514051 90.870908,14.3836895 C90.9047141,14.3356072 90.9339292,14.2845983 90.9685699,14.2369342 C90.7402748,14.035407 90.5370212,13.818828 90.3546355,13.5926325 C89.6317705,12.6949585 89.276181,11.6350593 89.3433757,10.66129 C89.3834421,10.0562903 89.5841916,9.48473912 89.9648226,9.00726184 L92.2077075,10.8042823 L93.5278127,11.862091 C93.6521855,11.7851594 93.7824014,11.71659 93.9109478,11.645512 C94.5503411,11.2905398 95.2394001,11.0104086 95.9743686,10.8176617 C96.0624312,10.7942477 96.1475724,10.7658165 96.2373045,10.7453293 C97.0231906,10.5634531 97.8099115,10.4936294 98.5807728,10.5228968 L98.5816075,10.5228968 C99.7205791,10.5655436 100.825327,10.8281143 101.84869,11.275488 C101.85036,11.275488 101.851195,11.2763242 101.852864,11.2775785 C105.46385,12.7652004 109.587353,15.901415 111.456285,19.862135 L111.457119,19.862135 C111.457119,19.862135 111.459206,19.8667342 111.462962,19.8742601 C111.501777,19.9591356 111.540174,20.0448474 111.578153,20.1305592 C111.975479,20.9634267 113.298505,23.3792443 114.747157,22.0224897 C114.748826,22.0208173 114.750913,22.0191449 114.752583,22.0174724 C114.973365,21.0750611 115.447902,20.2154347 116.120267,19.5309949 C113.692074,18.6977092 111.165803,16.9169949 109.091114,14.3665471 C104.861185,9.16237924 104.119956,2.73106969 107.434617,0 L107.435869,0 L110.286429,3.5070748 Z M122.349072,23.3952184 C122.535314,23.5126155 122.752664,23.5351132 122.949958,23.4794825 C123.078076,23.4434862 123.198007,23.375175 123.293789,23.2737307 C123.327353,23.2385525 123.357643,23.2001019 123.38384,23.1571517 C123.494766,22.9812605 123.5226,22.777145 123.48044,22.5889823 C123.444419,22.4314984 123.355187,22.287513 123.225432,22.179524 C123.199644,22.1586625 123.175085,22.1365739 123.146842,22.1185757 C122.982704,22.0150862 122.792778,21.9856347 122.615132,22.0183586 C122.414564,22.054355 122.229141,22.1697069 122.112893,22.3570514 C122.063774,22.4351798 122.032666,22.5190349 122.015065,22.6045262 C122.013837,22.6151615 122.009334,22.6257968 122.006878,22.636432 C122.00606,22.6409316 122.006878,22.6454311 122.00606,22.6499307 C121.964718,22.9358561 122.089562,23.2320077 122.349072,23.3952184 Z"/>
          <rect width="24.764" height="19.322" x="34.841" y="37.678" fill="#4F0733"/>
          <path fill="#E9715E" fill-rule="nonzero" d="M122.34861,23.3947597 C122.535295,23.5122025 122.752686,23.5351182 122.950015,23.479875 C123.078157,23.4438647 123.19811,23.3755269 123.29391,23.2740432 C123.327071,23.2388513 123.356957,23.2003857 123.383568,23.157828 C123.494105,22.98105 123.522763,22.776855 123.480595,22.5890283 C123.444568,22.4314831 123.355319,22.2874417 123.22554,22.1794107 C123.199748,22.1585411 123.176003,22.136853 123.147345,22.1188479 C122.982358,22.0149089 122.792807,21.9858551 122.615128,22.0181826 C122.414523,22.0541929 122.229066,22.1695897 122.112388,22.356598 C122.063669,22.4347568 122.032964,22.5190537 122.01577,22.604169 C122.013723,22.6152177 122.00881,22.6258571 122.006763,22.6364965 C122.005944,22.6409978 122.006763,22.6454991 122.005944,22.6500004 C121.965004,22.9352186 122.089461,23.2318947 122.34861,23.3947597"/>
          <path fill="#4F0733" fill-rule="nonzero" d="M102.598485,33.2386492 L101.66882,32.4180791 C101.628435,32.5725345 101.582639,32.7224103 101.530182,32.8668739 C101.333674,33.4105901 101.054733,33.8839479 100.733742,34.298188 C100.45605,34.6570573 100.146716,34.9730455 99.8294728,35.2436546 C99.6858389,35.1849532 99.5363763,35.1366599 99.3827505,35.0933624 C98.9410242,34.9684659 98.4622445,34.9126788 97.9668115,34.929748 C97.4896972,34.9472335 96.9984275,35.0292489 96.5084069,35.1920307 C96.0267129,35.3527309 95.5903989,35.5762956 95.2023791,35.8427415 C94.776057,36.135832 94.4096865,36.4809627 94.121586,36.8623134 C94.0428996,36.9663939 93.9700418,37.0725559 93.9030126,37.1816322 C93.8297385,37.3011165 93.7643747,37.4243477 93.7056721,37.5488279 C93.5104133,37.9572395 93.3955062,38.3872999 93.377604,38.8186092 C93.3626161,39.1566624 93.4071634,39.495132 93.5170746,39.8248588 L93.6065856,39.7952999 L96.5962526,38.7998747 L99.3665136,37.8785547 C99.4214692,37.8643998 99.4805881,37.8485796 99.5376253,37.8340083 C99.6400425,37.8081964 99.7449578,37.7786375 99.8544526,37.7474134 C99.9006652,37.7340911 99.9435473,37.7228504 99.9901762,37.7082791 C100.461462,37.5667298 100.883621,37.4226825 101.268726,37.2790515 C104.168882,36.1961987 104.73634,35.1291661 104.738006,35.1250029 L104.738422,35.1245866 L102.598485,33.2386492 L102.598485,33.2386492 L102.598485,33.2386492 Z"/>
          <path fill="#E9715E" fill-rule="nonzero" d="M122.641509,18.7853107 L122.641093,18.7844742 L112.375917,0.858757062 C111.385914,1.4346854 110.661858,2.34144838 110.205832,3.46109991 L110.205832,3.46193641 L122.641509,18.7853107 Z"/>
          <path fill="#4F0733" d="M0,57.0205061 C0,57.0205061 35.9769491,57.0205061 35.9769491,57.0205061 C35.9769491,57.0205061 37.7310553,41.6517202 18.9958789,41.6702236 C0.26070253,41.6887605 0,57.0205061 0,57.0205061 Z"/>
        </g>
      </g>
    </g>
  </g>
</svg>
