<svg xmlns="http://www.w3.org/2000/svg" width="1166" height="532" viewBox="0 0 1166 532">
  <g fill="none" fill-rule="evenodd" opacity=".153">
    <path fill="#E9715E" fill-rule="nonzero" d="M545.903345,114.894291 C563.017201,126.486257 577.100884,142.582973 586.13298,162 L726,162 C705.158798,126.276553 662.759745,106.564387 620.232163,116.2729 C611.472704,118.265087 603.28189,121.406762 595.741511,125.457154 C594.175792,123.464967 592.532176,121.554332 590.826243,119.698064 C587.858387,115.51952 584.072619,112.039988 579.749364,109.41869 C551.106829,85.1901229 481,85.5784635 481,94.8986366 C481,96.4519988 493.463436,95.6753177 493.463436,95.6753177 C495.297898,95.7568692 536.520714,108.537157 545.903345,114.894291 Z"/>
    <circle cx="491" cy="197" r="107" fill="#4F0733"/>
    <circle cx="371.5" cy="245.5" r="46.5" fill="#4F0733"/>
    <circle cx="335.5" cy="388.5" r="142.5" fill="#4F0733"/>
    <circle cx="195" cy="369" r="45" fill="#4F0733"/>
    <circle cx="465" cy="304" r="66" fill="#4F0733"/>
    <path fill="#E9715E" fill-rule="nonzero" d="M837.509545 155.10297C840.180057 147.870212 843.802936 141.086816 848.179933 134.842652 848.494797 134.397199 848.766901 133.916578 849.08954 133.475032 846.967124 131.591624 845.070166 129.567546 843.375343 127.449688 836.63881 119.060314 833.330796 109.158744 833.948862 100.0543 834.329808 94.400167 836.191781 89.0547255 839.740803 84.5923759L860.630662 101.39066 872.925903 111.280509C874.084291 110.557624 875.300988 109.920703 876.494361 109.252523 882.449564 105.935067 888.871233 103.317051 895.716607 101.5157 896.536809 101.300788 897.329799 101.035079 898.161662 100.839705 905.481276 99.1438556 912.808664 98.4873979 919.992226 98.7648294L920 98.7648294C897.88567 67.7706465 858.706494 51.4412604 819.414589 60.4792767 771.928448 71.404609 740.628644 115.606096 744.290394 163L835.002295 163C835.717542 160.319464 836.557179 157.685818 837.509545 155.10297M944.637842 347.274827C941.045499 348.620469 937.111398 349.958354 932.715146 351.27685 932.272414 351.4087 931.872402 351.52116 931.449088 351.637498 930.423814 351.932221 929.44126 352.203676 928.493658 352.444107 927.961603 352.583713 927.406246 352.731074 926.901376 352.859046L901.048156 361.44866 873.167689 370.716911 872.324945 371C871.303554 367.924802 870.891891 364.772045 871.023934 361.619288 871.190929 357.597876 872.26669 353.595852 874.088105 349.787726 874.643462 348.628225 875.241539 347.484235 875.936706 346.363514 876.558084 345.351374 877.2416 344.362502 877.967836 343.39302 880.651414 339.840836 884.072878 336.626033 888.053582 333.903726 891.665344 331.417973 895.739255 329.331647 900.228713 327.834766 904.803611 326.322374 909.386276 325.554544 913.833014 325.395549 918.462282 325.232676 922.924555 325.756196 927.048953 326.915697 928.47424 327.319002 929.872341 327.77272 931.212188 328.319508 934.179269 325.794976 937.053144 322.855505 939.647398 319.51273 942.637781 315.65419 945.243686 311.241106 947.072868 306.184286 947.562204 304.838644 947.993285 303.438712 948.366112 302L957.042106 309.639521 977 327.214298 976.996116 327.218176C977 327.218176 971.741586 337.180577 944.637842 347.274827zM788.840062 353.567251C788.344646 356.678363 786.401989 359.290448 783.725961 360.748538 782.309928 361.520468 780.714453 362 779.00195 362 777.277745 362 775.678369 361.520468 774.262337 360.748538 771.590209 359.290448 769.655354 356.678363 769.156037 353.567251 769.078018 353.052632 769 352.538012 769 352.003899 769 350.491228 769.362785 349.068226 769.971328 347.781676 771.570704 344.385965 775.007412 342 779.00195 342 782.984786 342 786.417593 344.385965 788.024771 347.781676 788.629413 349.068226 789 350.491228 789 352.003899 789 352.538012 788.918081 353.052632 788.840062 353.567251zM728.901799 262C728.334106 262 727.797308 261.910331 727.256648 261.816764 726.418625 261.668616 725.607635 261.442495 724.862297 261.103314 721.417522 259.528265 719 256.042885 719 252.003899 719 246.499025 723.460444 242 728.901799 242L744.102063 242C747.562286 242 750.613152 243.820663 752.381882 246.561404 753.39755 248.124756 754 249.992203 754 251.996101 754 257.497076 749.555004 262 744.102063 262L728.901799 262zM939.226585 278.630099L933.300464 273.334873C923.411905 275.157053 913.585687 275.071395 904.133503 273.447785 893.372196 271.606137 883.105706 267.739843 873.860021 262.063048 873.750927 262.000751 873.649626 261.938455 873.544429 261.872264L845.320348 261.872264 813.605272 261.872264C811.657172 261.872264 809.845438 261.284338 808.298646 260.307058 806.985627 259.477732 805.89469 258.352496 805.088177 257.020902 804.176466 255.514099 803.615413 253.769789 803.615413 251.893098 803.615413 246.395407 808.119421 241.902251 813.605272 241.902251L860.648003 241.902251C866.141647 241.902251 870.633966 237.412989 870.633966 231.919192 870.633966 226.429288 866.141647 221.936132 860.648003 221.936132L830.526473 221.936132 779.864171 221.936132 737.851436 221.936132 696.037407 221.936132C693.960731 221.936132 692.032112 221.293697 690.426877 220.195716 687.785253 218.396896 688.5 215.418536 688.5 212 688.5 209.897484 689.373998 206.615823 690.5 205 692.307837 202.399109 692.606409 205 696 205L837.547427 201.962226C843.037175 201.962226 847.541183 197.476857 847.541183 191.98306 847.541183 186.497049 843.037175 182 837.547427 182L732.766894 182 693 182 610.028769 182 592.472487 182C592.753014 183.070726 593.045229 184.125878 593.294586 185.204391 597.728462 204.594265 597.038835 223.960778 592.125725 241.902251L625.204472 241.902251C630.702012 241.902251 635.20602 246.395407 635.20602 251.893098 635.20602 254.45116 634.216385 256.779502 632.615046 258.54328 631.005915 260.303164 628.777288 261.490696 626.291512 261.767138L595.940106 261.767138 567.369264 261.767138C563.625015 261.767138 560.375583 263.885229 558.665151 266.972813 558.388521 267.459507 558.209296 267.996817 558.022278 268.530233 557.652139 269.546449 557.383301 270.613282 557.383301 271.754092 557.383301 275.846212 559.892454 279.385448 563.449686 280.915612 564.649716 281.437348 565.982217 281.729364 567.369264 281.729364L799.154263 281.729364C804.651802 281.729364 809.148018 286.226413 809.148018 291.716317 809.148018 297.206221 804.651802 301.699377 799.154263 301.699377L733.156514 301.699377 559.989859 301.699377C554.49232 301.699377 550 306.188639 550 311.682437 550 317.176234 554.49232 321.665496 559.989859 321.665496L677.023946 321.665496C681.099372 321.665496 684.62933 324.161261 686.172226 327.684923 686.702109 328.89971 687.009909 330.246878 687.009909 331.648556 687.009909 333.673201 686.363139 335.542105 685.315061 337.122886 683.93191 339.186467 681.824065 340.736099 679.342185 341.335706 678.598011 341.514809 677.842148 341.631616 677.051219 341.631616L677.043427 341.631616C677.035634 341.635509 677.027842 341.639403 677.023946 341.639403L625.453829 341.639403 624.752513 341.639403C624.795371 341.65887 624.834333 341.678338 624.881087 341.690019L624.865503 341.690019C624.444713 341.721167 624.023923 341.787358 623.610926 341.865229 622.971949 341.982035 622.348557 342.133883 621.76023 342.375283 621.226451 342.589429 620.727737 342.861977 620.244608 343.16178 617.408174 344.933345 615.506828 348.048184 615.506828 351.618569 615.506828 351.813246 615.576959 351.988456 615.584752 352.17924 615.631506 352.821675 615.689949 353.464111 615.849693 354.071505 616.176974 355.344695 616.769197 356.504973 617.528956 357.528976 617.735455 357.809312 617.934161 358.093541 618.167933 358.346621 619.979666 360.344012 622.590121 361.597735 625.492791 361.597735L655.715622 361.597735C655.723415 361.605522 655.735103 361.613309 655.746792 361.62499L719.687347 361.62499C723.108211 361.62499 726.135559 363.361513 727.935604 366.005232 729.042125 367.601587 729.681102 369.528894 729.681102 371.608049 729.681102 374.310172 728.582374 376.763108 726.821291 378.565821 726.794017 378.59697 726.782329 378.632012 726.747263 378.66316 726.712197 378.694309 726.669339 378.71767 726.634273 378.752712 724.838124 380.500915 722.395206 381.598896 719.687347 381.598896L692.694466 381.598896 671.269257 381.598896 671.284841 381.618364 669.960133 381.618364C666.519788 381.618364 663.472958 383.378248 661.680706 386.029755 660.593666 387.622216 659.962481 389.54563 659.962481 391.59753 659.962481 394.342482 661.084587 396.846034 662.900217 398.648747 664.708054 400.459248 667.205519 401.58059 669.960133 401.58059L679.786352 401.58059C679.786352 401.58059 679.786352 401.596164 679.790248 401.596164 681.095476 401.584483 682.385118 401.685715 683.674761 401.771374 684.235814 401.806415 684.804659 401.790841 685.35792 401.845351 686.402101 401.946583 687.438491 402.110112 688.470984 402.273641 692.900965 402.966693 697.194578 404.189267 701.25442 405.937471 714.150845 411.52082 724.670588 422.157996 729.829158 435.937266 730.655153 438.129334 731.368157 440.391486 731.905833 442.74319 731.983757 443.074141 729.925972 447.672942 730 448 730.72859 447.844258 732.275307 448.124594 733 448 735.053298 447.653474 735.970079 448.105126 738 448 739.913035 447.898768 750.610343 447.894874 752.5 448 757.892342 443.230402 757.453223 433.636179 763.823512 430.015178 764.23485 429.781731 768.570412 430.198037 769 430 774.531597 427.449969 777.567089 427.012421 783.5 425 785.011726 424.493839 785.030534 420.877018 786.57343 420.433154 786.994219 420.312454 787.411113 420.203435 787.82411 420.082735 789.324147 419.670018 790.835873 419.272876 792.370977 418.918563 819.165151 412.786224 845.92426 417.501312 868.039097 430.151452 873.669107 433.36363 879.014695 437.09365 883.970663 441.294789 890.185103 446.570548 895.803425 452.586082 900.689261 459.247944 902.894511 459.146712 905.084176 459.131137 907.281633 459.099989 912.962294 459.026012 918.600097 459.224583 924.195042 459.664554 928.757493 460.02276 933.300464 460.486093 937.79668 461.175251 939.588932 461.447799 941.219436 466.172942 943 466.5 947.570244 467.329326 948.53885 465.343616 953 466.5 954.772771 466.967226 960.234901 466.011039 961.995984 466.524987 962.186898 466.587284 956.797398 471.937703 957 472 957.315592 472.097339 964.684408 471.910448 965 472 976.789904 462.612653 989.629487 455.701139 1005 451.5 1006.56627 451.075603 1007.67115 445.394697 1009.27249 445.032597 1030.52626 440.169554 1053.74497 445.056176 1073 451.5 1060.47761 415.013552 1028.27036 385.064155 992.42921 376.14014 1004.2386 367.644417 1014.19729 356.987773 1021.90007 344.913877L1020.47407 344.559564 1010.16861 342.024864 1010.16082 342.017077 939.226585 278.630099zM1039.19312 209.888695C1038.27722 208.776238 1035.67481 210.985593 1034.70217 209.888695 1034.33338 209.476386 1028.09721 201.792777 1027.71626 201.380468 1027.20935 200.82797 1045.28429 204.112415 1039.19312 205.38434 1036.66477 205.912295 1012.96399 205.108625 1012.74644 204.883856 1011.49418 203.600252 1022.02314 198.081923 1020.73035 196.876113 1020.16703 196.354892 1006.83095 192.388605 1006.25952 191.871273 995.900982 182.500963 980.502013 170.727694 968.335994 165.846109 942.480163 155.472254 912.782883 168.190252 889.476162 179.112557 888.653476 179.497638 885.306475 191.583801 884.5 192 894.274963 190.090153 907.161874 178.027328 917.735207 179.283704 940.835244 182.029839 964.830914 192.275334 985.252157 209.806254 996.822438 219.744462 1006.08272 231.059627 1012.9722 242.962138 1023.77248 261.605515 1028.59512 281.680306 1027.01459 300.280896 1026.28917 308.943279 1024.23853 317.294486 1020.65195 325 1021.00453 324.723831 1021.40574 324.482669 1021.75832 324.214279 1022.54048 323.634712 1023.30238 323.055145 1024.12911 322.526145 1026.49991 321.024717 1029.12196 319.795569 1031.85344 318.714229 1032.72476 318.368045 1033.5596 317.967405 1034.45524 317.667898 1038.60919 304.754062 1040.3964 291.007829 1039.43998 277.004875 1039.01851 271.04584 1038.13098 265.044018 1036.69634 259.030527 1032.44513 241.203989 1050.55671 223.094259 1039.19312 209.888695zM933.289788 50.6826342C940.012842 49.1442179 944.226316 42.443046 942.680476 35.707173 941.138491 28.982867 934.438566 24.77632 927.715512 26.3185921 920.984747 27.849297 916.778983 34.5581803 918.317113 41.2824863 919.859098 48.0183593 926.566733 52.2210506 933.289788 50.6826342M721.785093 110.796031C726.08783 109.817057 728.782866 105.524334 727.796499 101.216072 726.806248 96.9116955 722.511277 94.2195175 718.216307 95.2023761 713.909686 96.1891196 711.21465 100.474072 712.204901 104.782334 713.195152 109.094481 717.478473 111.782774 721.785093 110.796031"/>
    <path fill="#4F0733" fill-rule="nonzero" d="M744.100971 242L733.6226 242 728.899029 242C723.457073 242 719 246.502924 719 251.996101 719 256.038986 721.421651 259.536062 724.859082 261.095517 725.608365 261.438596 726.419444 261.660819 727.257559 261.816764 727.794416 261.906433 728.335136 262 728.899029 262L744.100971 262C749.550651 262 754 257.497076 754 251.996101 754 249.992203 753.397484 248.124756 752.381704 246.553606 750.612779 243.824561 747.561576 242 744.100971 242M779 342C775.008584 342 771.575107 344.379559 769.971518 347.773357 769.362856 349.068461 769 350.484494 769 351.99805L769 352.00195C769 352.536376 769.074132 353.051297 769.156067 353.562317 769.65158 356.67915 771.590714 359.296665 774.263363 360.755608 775.679672 361.520187 777.27936 362 779 362 780.716738 362 782.316426 361.520187 783.732735 360.755608 786.405384 359.296665 788.34842 356.67915 788.843933 353.562317 788.925868 353.051297 789 352.536376 789 352.00195L789 351.99805C789 350.484494 788.637144 349.068461 788.024581 347.773357 786.420991 344.379559 782.983613 342 779 342"/>
    <path fill="#4F0733" d="M1028.75181,32.6711705 L1028.75181,32.6789605 L1144.89527,175.379684 L1144.89138,175.371894 L1144.95756,175.442004 C1148.94801,178.335981 1152.51411,181.880422 1155.53517,186.03248 C1159.85654,191.52831 1163.11119,198.032942 1164.77355,205.324362 C1170.73002,231.541536 1154.41395,257.645754 1128.33005,263.651828 C1114.8287,266.756134 1101.37019,263.823207 1090.68746,256.672007 L1090.68746,256.718747 C1090.49281,256.738222 1052.0677,260.863015 1039.37613,276.583192 L1039.37224,276.587087 C1038.97125,270.623858 1038.11476,264.61389 1036.74049,258.592236 C1032.65661,240.7415 1024.55113,224.853839 1013.63482,211.63035 C1012.75497,210.516383 1011.84787,209.402416 1010.91353,208.307924 C1010.55925,207.895055 1010.18941,207.497766 1009.82345,207.084898 C1009.13437,206.302005 1008.45307,205.515217 1007.74453,204.744009 C1006.53766,203.458663 1005.29186,202.266796 1004.04217,201.059349 C1003.50881,200.533526 1002.98713,199.972647 1002.4382,199.458508 C992.487386,190.075479 981.30245,182.904804 969.615302,178.012697 C944.777192,167.624761 917.700537,167.620866 895.315093,178.565786 C894.52479,178.95139 893.711127,179.282464 892.92861,179.695333 C902.326603,177.786788 912.304672,177.475189 922.454037,178.737165 C944.648719,181.490923 967.699886,191.750325 987.317321,209.297252 C998.432181,219.252844 1007.33185,230.583368 1013.95016,242.498141 C1024.32143,261.170719 1028.95814,281.276654 1027.43982,299.906388 C1026.74295,308.572739 1024.76914,316.943072 1021.32373,324.65515 L1021.32762,324.651255 C1021.66633,324.370816 1022.05174,324.133222 1022.39045,323.864468 C1023.14182,323.291904 1023.86983,322.707656 1024.67181,322.181832 C1026.94929,320.682261 1029.46814,319.43976 1032.08821,318.353058 C1032.91744,318.010299 1033.72332,317.61301 1034.58759,317.313096 L1034.59538,317.313096 C1043.77146,314.162049 1054.54373,313.573906 1065.48729,316.273133 C1091.06899,322.583016 1107.74322,344.391061 1102.73278,364.972185 L1021.81426,345.010365 L1020.40495,344.655921 L1010.09986,342.120283 L1010.09208,342.116388 L1010.09208,342.108598 L939.217815,278.698171 L933.300272,273.404881 C923.423425,275.227736 913.593295,275.142046 904.144691,273.517836 C893.403571,271.675506 883.133518,267.807781 873.895143,262.128887 L873.587586,261.941927 L813.695818,261.941927 C811.741471,261.941927 809.93117,261.349889 808.393387,260.372247 C807.081406,259.542614 805.987439,258.416962 805.181563,257.084876 C804.274466,255.577515 803.713856,253.832559 803.713856,251.95128 C803.713856,246.451555 808.202624,241.964527 813.695818,241.964527 L860.697464,241.964527 C866.182871,241.964527 870.683318,237.465814 870.683318,231.977774 C870.683318,226.481944 866.182871,221.983232 860.697464,221.983232 L696.217007,221.983232 C694.141974,221.983232 692.214879,221.340559 690.614807,220.246067 C687.971378,218.446581 686.231153,215.420175 686.231153,212.000374 C686.231153,209.89708 686.904663,207.94569 688.025881,206.32927 C689.836183,203.731312 692.829992,202.013621 696.217007,202.013621 L837.611258,202.013621 C843.108345,202.013621 847.601006,197.514909 847.601006,192.026869 C847.601006,186.531039 843.108345,182.032326 837.611258,182.032326 L592.741752,182.032326 L592.741752,182.036221 C593.010378,183.107343 593.314041,184.162885 593.563201,185.241797 C597.989679,204.638844 597.296704,224.012521 592.391371,241.960632 L625.440073,241.964527 C630.941053,241.964527 635.422035,246.451555 635.422035,251.95128 C635.422035,254.514183 634.440968,256.843386 632.840896,258.607816 C631.23693,260.368352 629.010065,261.556323 626.522361,261.832868 L567.650589,261.832868 C563.905407,261.832868 560.658545,263.951742 558.949465,267.040468 C558.684732,267.527342 558.501756,268.06485 558.3071,268.598464 C557.937253,269.615056 557.668628,270.678388 557.668628,271.81962 C557.668628,275.921044 560.175798,279.461589 563.730217,280.988425 C564.933191,281.510354 566.260745,281.802478 567.650589,281.802478 L799.25234,281.802478 C804.745533,281.802478 809.238194,286.301191 809.238194,291.793125 C809.238194,297.28506 804.745533,301.783773 799.25234,301.783773 L560.280912,301.783773 C554.791612,301.783773 550.29895,306.270801 550.29895,311.770526 C550.29895,317.262461 554.791612,321.753383 560.280912,321.753383 L677.214685,321.753383 C681.290783,321.753383 684.81795,324.250072 686.359626,327.775037 C686.892983,328.990274 687.196647,330.33794 687.196647,331.740136 C687.196647,333.76553 686.554282,335.635125 685.503139,337.216491 C684.124974,339.27694 682.014903,340.827146 679.531092,341.426974 C678.799185,341.610039 678.036134,341.722994 677.24583,341.722994 C677.241937,341.722994 677.241937,341.726889 677.238044,341.726889 C677.230258,341.730784 677.222471,341.734679 677.214685,341.734679 L624.972899,341.734679 C625.023509,341.750259 625.058547,341.773629 625.109158,341.789208 C624.680915,341.816473 624.260458,341.882688 623.843894,341.960588 C623.213208,342.073543 622.594202,342.229342 622.002447,342.466937 C621.46909,342.685056 620.970771,342.957705 620.488024,343.257619 C617.653832,345.02984 615.750096,348.145831 615.750096,351.717536 C615.750096,351.912286 615.816279,352.08756 615.827958,352.278415 C615.870782,352.917193 615.936965,353.559866 616.088797,354.17138 C616.423606,355.441146 617.011467,356.601853 617.774518,357.63013 C617.976961,357.910569 618.17551,358.194904 618.405204,358.448078 C620.223291,360.450102 622.835575,361.704289 625.732057,361.704289 L655.934888,361.704289 L655.954353,361.731554 L719.852143,361.731554 C723.26641,361.731554 726.291365,363.468719 728.09388,366.109522 C729.19174,367.706467 729.834105,369.634487 729.834105,371.714411 C729.834105,374.417534 728.740138,376.871377 726.98434,378.674757 C726.953195,378.705917 726.93373,378.740972 726.902585,378.772132 C726.867547,378.803292 726.824722,378.826662 726.793577,378.861717 C724.991062,380.610567 722.546183,381.705059 719.852143,381.705059 L671.472332,381.705059 L671.480118,381.724534 L670.152564,381.724534 C666.722725,381.724534 663.682198,383.485069 661.883576,386.141452 C660.801288,387.734503 660.16671,389.658627 660.16671,391.711287 C660.16671,394.457254 661.291822,396.961732 663.102123,398.765112 C664.912424,400.580177 667.407914,401.705829 670.152564,401.705829 L679.978801,401.713619 L679.978801,401.721409 C681.282996,401.709724 682.567726,401.810994 683.860242,401.888894 C684.420852,401.923949 684.989247,401.908369 685.545964,401.962899 C686.593213,402.064168 687.62489,402.227758 688.66046,402.391347 C693.083045,403.08855 697.377157,404.307682 701.426003,406.064322 C714.323912,411.645842 724.823658,422.286953 729.985936,436.067425 C730.807385,438.260304 731.523719,440.523293 732.057077,442.875866 C732.138832,443.206941 732.18555,443.538015 732.259519,443.869089 C732.987532,443.713289 733.715546,443.600334 734.44356,443.475695 C736.487448,443.129041 738.527443,442.899236 740.555759,442.794072 C742.475068,442.692802 744.378804,442.669432 746.274753,442.774597 C751.655046,438.003235 757.580376,433.765486 763.957308,430.143146 C769.64905,426.90641 775.706746,424.148758 782.103143,421.983144 C783.605888,421.4729 785.139777,421.001606 786.681453,420.557578 C787.098017,420.436833 787.514581,420.327773 787.931145,420.207029 C789.433889,419.79416 790.936634,419.396871 792.470524,419.046322 C819.255194,412.915609 845.973681,417.620756 868.078821,430.275576 C873.708273,433.500627 879.053528,437.220342 884.001684,441.43472 C890.215105,446.700746 895.825092,452.730189 900.710958,459.386726 C902.914465,459.285457 905.098505,459.269877 907.294225,459.238717 C912.966502,459.168607 918.603741,459.363356 924.198156,459.80349 C928.757,460.161829 933.296379,460.625333 937.785147,461.314746 C939.575982,461.587395 941.33178,461.984684 943.110936,462.311863 C947.673673,463.145391 952.1858,464.146403 956.655103,465.303215 C958.42258,465.770614 960.213415,466.152323 961.961426,466.666461 C962.163869,466.728781 962.354632,466.787206 962.557074,466.849526 C962.87631,466.950796 963.195546,467.052065 963.510888,467.14944 C975.303151,457.750831 989.119836,450.595735 1004.47041,446.389147 C1006.03934,445.964593 1007.61216,445.528354 1009.21223,445.16612 C1030.44531,440.305174 1051.63946,441.703475 1070.88316,448.149682 L1070.88705,448.153577 C1107.37727,460.376054 1136.82873,490.745285 1146.08268,531 L493,531 L493,95.3181788 C500.478685,96.1633915 507.801645,97.7252822 514.883231,99.9649011 C525.756718,103.400282 536.034556,108.436503 545.413084,114.816495 C562.519456,126.443039 576.604767,142.587769 585.621235,162.062716 L834.450044,162.062716 C835.170271,159.386858 835.999506,156.76553 836.961107,154.187048 C839.631788,146.981317 843.260176,140.215721 847.64383,133.995423 C847.959173,133.547499 848.231691,133.07231 848.55482,132.628282 C846.425283,130.750897 844.529334,128.733292 842.82804,126.626103 C836.085155,118.263561 832.768216,108.389763 833.395008,99.3183329 C833.768748,93.6822833 835.641339,88.3578329 839.191865,83.9097551 L860.113496,100.650419 L872.427436,110.504742 C873.587586,109.788064 874.80224,109.149286 876.001321,108.487138 C881.965582,105.180292 888.393124,102.570649 895.24891,100.775059 C896.070358,100.556939 896.864555,100.29208 897.701576,100.101226 C905.032322,98.4069054 912.370855,97.7564421 919.561449,98.0290914 L919.569235,98.0290914 C930.193561,98.4263803 940.498652,100.872434 950.044584,105.040072 C950.060156,105.040072 950.067943,105.047862 950.083515,105.059547 C983.766795,118.917919 1022.23083,148.134234 1039.66422,185.031468 L1039.67201,185.031468 C1039.67201,185.031468 1039.69147,185.074313 1039.72651,185.144423 C1040.08857,185.935106 1040.44674,186.733578 1040.80101,187.532051 C1044.50726,195.29087 1056.84846,217.796118 1070.36148,205.156878 C1070.37705,205.141298 1070.39652,205.125718 1070.41209,205.110138 C1072.47155,196.330832 1076.89803,188.322734 1083.16985,181.946636 C1060.51967,174.183923 1036.95461,157.595163 1017.60191,133.835728 C978.145129,85.3547961 971.230947,25.4420703 1002.15011,0 L1002.16179,0 L1028.75181,32.6711705 Z M1141.27215,217.944929 C1143.00941,219.038576 1145.03685,219.24816 1146.87721,218.729916 C1148.07229,218.394582 1149.19101,217.758209 1150.08446,216.813176 C1150.39755,216.485463 1150.68009,216.127265 1150.92446,215.72715 C1151.95918,214.088585 1152.21881,212.187087 1151.82554,210.434204 C1151.48954,208.967116 1150.65719,207.625779 1149.44683,206.619777 C1149.20628,206.425435 1148.97719,206.219662 1148.71374,206.051995 C1147.18266,205.087909 1145.41103,204.813544 1143.75395,205.118394 C1141.88305,205.453728 1140.15342,206.528322 1139.06907,208.273584 C1138.61089,209.001412 1138.32071,209.782588 1138.15653,210.579007 C1138.14507,210.678083 1138.10307,210.777159 1138.08016,210.876235 C1138.07253,210.918152 1138.08016,210.960069 1138.07253,211.001986 C1137.68689,213.665607 1138.85143,216.424493 1141.27215,217.944929 Z"/>
    <rect width="231" height="180" x="325" y="351" fill="#4F0733"/>
    <path fill="#E9715E" fill-rule="nonzero" d="M1141.26784,217.940656 C1143.00924,219.034728 1145.03705,219.248206 1146.87774,218.733573 C1148.07305,218.398108 1149.19197,217.761487 1150.08559,216.816087 C1150.39492,216.488246 1150.67369,216.129909 1150.92192,215.73345 C1151.95301,214.086624 1152.22033,212.184386 1151.82699,210.434632 C1151.49093,208.966974 1150.65842,207.625115 1149.44784,206.618721 C1149.20725,206.424304 1148.98576,206.222263 1148.71844,206.05453 C1147.17943,205.086257 1145.4113,204.815598 1143.75391,205.116754 C1141.88267,205.452219 1140.15273,206.527231 1139.06435,208.26936 C1138.60991,208.997471 1138.32349,209.782763 1138.1631,210.57568 C1138.14401,210.678607 1138.09818,210.777721 1138.07908,210.876836 C1138.07145,210.918769 1138.07908,210.960702 1138.07145,211.002635 C1137.68956,213.659668 1138.8505,216.42344 1141.26784,217.940656"/>
    <path fill="#4F0733" fill-rule="nonzero" d="M957.038666,309.644258 L948.366749,302 C947.990046,303.438874 947.562858,304.835085 947.073534,306.180878 C945.240509,311.246023 942.638545,315.655725 939.644345,319.514698 C937.054032,322.857849 934.16857,325.801529 931.209322,328.322466 C929.869505,327.775617 928.475318,327.325726 927.042297,326.922376 C922.921873,325.758867 918.455816,325.239166 913.834418,325.398179 C909.383895,325.56107 904.801332,326.325108 900.23042,327.841549 C895.737178,329.338598 891.667241,331.42128 888.047793,333.903434 C884.07106,336.633804 880.653555,339.848969 877.966154,343.401551 C877.232167,344.371143 876.55255,345.360126 875.927302,346.376258 C875.243801,347.489349 874.634087,348.637345 874.08651,349.796976 C872.265135,353.601653 871.193281,357.608004 871.02629,361.625991 C870.886483,364.775223 871.30202,367.928335 872.327272,371 L873.16223,370.724636 L901.049844,361.451464 L926.890839,352.868641 C927.403465,352.736777 927.954926,352.589399 928.486969,352.453656 C929.442317,352.213198 930.420966,351.937834 931.442334,351.646956 C931.873405,351.522849 932.273409,351.418133 932.708364,351.28239 C937.104518,349.963746 941.042415,348.621831 944.634678,347.283795 C971.687334,337.196167 976.980582,327.255916 976.996116,327.217132 L977,327.213254 L957.038666,309.644258 L957.038666,309.644258 L957.038666,309.644258 Z"/>
    <path fill="#E9715E" fill-rule="nonzero" d="M1144,175 L1143.99611,174.992207 L1048.24255,8 C1039.00781,13.3652271 1032.25381,21.8124402 1028,32.2428781 L1028,32.2506708 L1144,175 Z"/>
    <path fill="#4F0733" d="M0,531.19103 C0,531.19103 335.592981,531.19103 335.592981,531.19103 C335.592981,531.19103 351.955284,388.018656 177.193558,388.19103 C2.4318332,388.363716 0,531.19103 0,531.19103 Z"/>
  </g>
</svg>
