<svg width="243" height="300" viewBox="0 0 243 300" fill="none" xmlns="http://www.w3.org/2000/svg">
<g opacity="0.15" clip-path="url(#clip0_1093_8896)">
<path d="M57.062 87.6288C58.5736 83.5425 60.6243 79.7101 63.1019 76.1823C63.2801 75.9306 63.4341 75.6591 63.6168 75.4096C62.4154 74.3455 61.3417 73.202 60.3823 72.0055C56.5692 67.2657 54.6967 61.6716 55.0466 56.5278C55.2622 53.3334 56.3161 50.3134 58.325 47.7923L70.1495 57.2829L77.109 62.8703C77.7647 62.4619 78.4534 62.1021 79.1289 61.7246C82.4998 59.8503 86.1347 58.3712 90.0095 57.3535C90.4737 57.2321 90.9226 57.082 91.3935 56.9716C95.5366 56.0135 99.6842 55.6426 103.75 55.7993H103.755C91.2372 38.2885 69.0603 29.0629 46.8196 34.1691C19.9407 40.3416 2.22376 65.3142 4.29645 92.0904H55.6429C56.0477 90.576 56.5229 89.088 57.062 87.6288Z" fill="#E9715E"/>
<path d="M117.701 196.2C115.667 196.961 113.44 197.717 110.952 198.461C110.701 198.536 110.475 198.6 110.235 198.665C109.655 198.832 109.099 198.985 108.562 199.121C108.261 199.2 107.947 199.283 107.661 199.355L93.0273 204.208L77.2459 209.445L76.7689 209.605C76.1908 207.867 75.9577 206.086 76.0325 204.305C76.127 202.033 76.7359 199.772 77.7669 197.62C78.0813 196.965 78.4198 196.319 78.8133 195.686C79.165 195.114 79.5519 194.555 79.963 194.007C81.482 192 83.4187 190.184 85.6719 188.646C87.7163 187.242 90.0223 186.063 92.5635 185.217C95.153 184.363 97.747 183.929 100.264 183.839C102.884 183.747 105.41 184.043 107.745 184.698C108.552 184.926 109.343 185.182 110.101 185.491C111.781 184.065 113.408 182.404 114.876 180.516C116.569 178.336 118.044 175.842 119.079 172.985C119.356 172.225 119.6 171.434 119.811 170.621L124.722 174.938L136.019 184.867L136.017 184.869C136.019 184.869 133.042 190.498 117.701 196.2ZM29.5133 199.756C29.2329 201.513 28.1333 202.989 26.6185 203.813C25.817 204.249 24.9139 204.52 23.9445 204.52C22.9686 204.52 22.0633 204.249 21.2617 203.813C19.7492 202.989 18.654 201.513 18.3714 199.756C18.3272 199.465 18.2831 199.174 18.2831 198.872C18.2831 198.018 18.4884 197.214 18.8329 196.487C19.7382 194.568 21.6835 193.22 23.9445 193.22C26.199 193.22 28.1421 194.568 29.0518 196.487C29.3941 197.214 29.6038 198.018 29.6038 198.872C29.6038 199.174 29.5575 199.465 29.5133 199.756ZM-4.41402 148.023C-4.73536 148.023 -5.03921 147.972 -5.34524 147.919C-5.81959 147.835 -6.27864 147.708 -6.70053 147.516C-8.65041 146.626 -10.0188 144.657 -10.0188 142.375C-10.0188 139.265 -7.49404 136.723 -4.41402 136.723H4.1899C6.14851 136.723 7.87543 137.752 8.8766 139.3C9.45151 140.183 9.7925 141.239 9.7925 142.371C9.7925 145.479 7.27647 148.023 4.1899 148.023H-4.41402ZM114.638 157.418L111.283 154.426C105.686 155.456 100.124 155.408 94.7737 154.49C88.6824 153.45 82.8712 151.265 77.6378 148.058C77.5761 148.023 77.5187 147.988 77.4592 147.95H61.4833H43.5314C42.4286 147.95 41.4031 147.618 40.5276 147.066C39.7844 146.598 39.1669 145.962 38.7104 145.21C38.1943 144.358 37.8767 143.373 37.8767 142.312C37.8767 139.206 40.4261 136.668 43.5314 136.668H70.1593C73.2689 136.668 75.8117 134.132 75.8117 131.028C75.8117 127.926 73.2689 125.388 70.1593 125.388H53.1094H24.4326H0.65181H-23.0165C-24.192 125.388 -25.2837 125.025 -26.1923 124.404C-27.6875 123.388 -27.283 121.705 -27.283 119.774C-27.283 118.586 -26.7883 116.732 -26.1509 115.819C-25.1276 114.35 -24.9586 115.819 -23.0377 115.819L57.0835 114.103C60.1909 114.103 62.7404 111.569 62.7404 108.465C62.7404 105.366 60.1909 102.825 57.0835 102.825H-2.22623H-24.7358H-71.7007H-81.6382C-81.4794 103.43 -81.314 104.026 -81.1728 104.635C-78.6631 115.59 -79.0534 126.532 -81.8344 136.668H-63.1106C-59.9988 136.668 -57.4494 139.206 -57.4494 142.312C-57.4494 143.758 -58.0095 145.073 -58.916 146.07C-59.8268 147.064 -61.0883 147.735 -62.4953 147.891H-79.6754H-95.8475C-97.9669 147.891 -99.8062 149.088 -100.774 150.832C-100.931 151.107 -101.032 151.411 -101.138 151.712C-101.348 152.286 -101.5 152.889 -101.5 153.533C-101.5 155.845 -100.08 157.845 -98.0662 158.709C-97.3869 159.004 -96.6327 159.169 -95.8475 159.169H35.3515C38.4633 159.169 41.0084 161.71 41.0084 164.811C41.0084 167.913 38.4633 170.452 35.3515 170.452H-2.00571H-100.025C-103.136 170.452 -105.679 172.988 -105.679 176.092C-105.679 179.196 -103.136 181.732 -100.025 181.732H-33.7789C-31.472 181.732 -29.4739 183.142 -28.6006 185.133C-28.3006 185.819 -28.1264 186.58 -28.1264 187.372C-28.1264 188.516 -28.4925 189.572 -29.0858 190.465C-29.8687 191.631 -31.0618 192.506 -32.4667 192.845C-32.8879 192.946 -33.3157 193.012 -33.7634 193.012H-33.7678C-33.7722 193.014 -33.7767 193.017 -33.7789 193.017H-62.9695H-63.3665C-63.3422 193.028 -63.3201 193.039 -63.2937 193.045H-63.3025C-63.5407 193.063 -63.7789 193.1 -64.0126 193.144C-64.3743 193.21 -64.7272 193.296 -65.0602 193.432C-65.3623 193.553 -65.6446 193.707 -65.9181 193.877C-67.5236 194.878 -68.5999 196.637 -68.5999 198.655C-68.5999 198.765 -68.5602 198.864 -68.5557 198.971C-68.5293 199.334 -68.4962 199.697 -68.4058 200.04C-68.2205 200.76 -67.8853 201.415 -67.4553 201.994C-67.3384 202.152 -67.2259 202.313 -67.0936 202.456C-66.0681 203.584 -64.5904 204.293 -62.9474 204.293H-45.8402C-45.8357 204.297 -45.8292 204.301 -45.8225 204.308H-9.62977C-7.69343 204.308 -5.97982 205.289 -4.96092 206.783C-4.33459 207.685 -3.97292 208.773 -3.97292 209.948C-3.97292 211.475 -4.59483 212.861 -5.59167 213.879C-5.60711 213.897 -5.61373 213.916 -5.63358 213.934C-5.65343 213.952 -5.67768 213.965 -5.69753 213.985C-6.71421 214.972 -8.09702 215.593 -9.62977 215.593H-24.9087H-37.0362L-37.0274 215.604H-37.7772C-39.7246 215.604 -41.4492 216.598 -42.4637 218.096C-43.079 218.996 -43.4363 220.082 -43.4363 221.242C-43.4363 222.792 -42.8011 224.207 -41.7734 225.225C-40.7501 226.248 -39.3364 226.882 -37.7772 226.882H-32.2152C-32.2152 226.882 -32.2152 226.89 -32.213 226.89C-31.4742 226.884 -30.7442 226.941 -30.0142 226.989C-29.6967 227.009 -29.3747 227 -29.0615 227.031C-28.4705 227.088 -27.8838 227.181 -27.2994 227.273C-24.7918 227.665 -22.3615 228.356 -20.0635 229.343C-12.7636 232.498 -6.80904 238.507 -3.8891 246.292C-3.42155 247.531 -3.01797 248.809 -2.71363 250.137C-2.66953 250.324 -3.8343 252.923 -3.7924 253.107C-3.37999 253.019 -2.50449 253.178 -2.09428 253.107C-0.932045 252.912 -0.413109 253.167 0.735901 253.107C1.81876 253.05 7.87383 253.048 8.94345 253.107C11.9957 250.413 11.7471 244.992 15.353 242.946C15.5858 242.815 18.0399 243.05 18.2831 242.938C21.4142 241.497 23.1324 241.25 26.4906 240.113C27.3463 239.827 27.357 237.784 28.2303 237.533C28.4685 237.465 28.7045 237.403 28.9382 237.335C29.7873 237.102 30.643 236.877 31.5119 236.677C46.6784 233.213 61.8251 235.876 74.343 243.023C77.5298 244.838 80.5555 246.946 83.3608 249.319C86.8784 252.3 90.0586 255.698 92.8242 259.462C94.0724 259.405 95.3118 259.396 96.5557 259.379C99.7712 259.337 102.962 259.449 106.129 259.697C108.712 259.9 111.283 260.162 113.828 260.551C114.843 260.705 115.766 263.375 116.774 263.559C119.361 264.028 119.909 262.906 122.434 263.559C123.437 263.823 126.529 263.283 127.526 263.573C127.634 263.609 124.583 266.631 124.698 266.667C124.877 266.722 129.048 266.616 129.226 266.667C135.9 261.363 143.168 257.458 151.868 255.085C152.755 254.845 153.38 251.635 154.286 251.431C166.317 248.683 179.459 251.444 190.359 255.085C183.27 234.471 165.04 217.55 144.752 212.509C151.437 207.709 157.074 201.688 161.434 194.867L160.627 194.666L154.794 193.234L154.789 193.23L114.638 157.418Z" fill="#E9715E"/>
<path d="M171.222 118.581C170.704 117.953 169.231 119.201 168.68 118.581C168.472 118.348 164.942 114.007 164.726 113.774C164.439 113.462 174.67 115.318 171.222 116.036C169.791 116.335 156.376 115.881 156.253 115.754C155.544 115.028 161.504 111.911 160.772 111.229C160.453 110.935 152.904 108.694 152.581 108.402C146.718 103.108 138.001 96.4563 131.115 93.6984C116.479 87.8374 99.6695 95.0227 86.477 101.194C86.0114 101.411 84.1169 108.239 83.6604 108.475C89.1934 107.396 96.4879 100.58 102.473 101.29C115.548 102.842 129.131 108.63 140.69 118.535C147.239 124.149 152.481 130.542 156.38 137.267C162.494 147.8 165.224 159.141 164.329 169.65C163.918 174.544 162.758 179.262 160.728 183.616C160.927 183.46 161.154 183.324 161.354 183.172C161.796 182.844 162.228 182.517 162.696 182.218C164.038 181.37 165.522 180.675 167.068 180.065C167.561 179.869 168.034 179.643 168.541 179.473C170.892 172.177 171.904 164.411 171.362 156.5C171.124 153.133 170.621 149.742 169.809 146.345C167.403 136.273 177.655 126.042 171.222 118.581Z" fill="#E9715E"/>
<path d="M111.277 28.6343C115.083 27.7651 117.468 23.9791 116.593 20.1735C115.72 16.3745 111.928 13.9979 108.122 14.8693C104.312 15.7341 101.932 19.5244 102.802 23.3234C103.675 27.129 107.472 29.5034 111.277 28.6343Z" fill="#E9715E"/>
<path d="M4.18936 136.723H-1.7418H-4.41553C-7.4959 136.723 -10.0188 139.267 -10.0188 142.371C-10.0188 144.655 -8.64805 146.631 -6.70233 147.512C-6.2782 147.705 -5.81909 147.831 -5.34468 147.919C-5.0408 147.97 -4.73472 148.023 -4.41553 148.023H4.18936C7.27411 148.023 9.79263 145.479 9.79263 142.371C9.79263 141.239 9.45159 140.183 8.87661 139.296C7.87533 137.754 6.14821 136.723 4.18936 136.723Z" fill="#4F0733"/>
<path d="M23.9434 193.22C21.6841 193.22 19.7406 194.565 18.833 196.482C18.4884 197.214 18.2831 198.014 18.2831 198.869V198.871C18.2831 199.173 18.325 199.464 18.3714 199.753C18.6519 201.514 19.7495 202.992 21.2623 203.817C22.064 204.249 22.9695 204.52 23.9434 204.52C24.9152 204.52 25.8207 204.249 26.6223 203.817C28.1352 202.992 29.235 201.514 29.5155 199.753C29.5619 199.464 29.6038 199.173 29.6038 198.871V198.869C29.6038 198.014 29.3984 197.214 29.0517 196.482C28.144 194.565 26.1983 193.22 23.9434 193.22Z" fill="#4F0733"/>
<path fill-rule="evenodd" clip-rule="evenodd" d="M165.312 18.4583V18.4627L231.054 99.0846L231.052 99.0802L231.089 99.1198C233.348 100.755 235.366 102.757 237.077 105.103C239.523 108.208 241.365 111.883 242.306 116.002C245.677 130.814 236.442 145.563 221.677 148.956C214.035 150.71 206.417 149.053 200.37 145.012V145.039C200.26 145.05 178.51 147.38 171.326 156.262L171.324 156.264C171.097 152.895 170.612 149.499 169.834 146.097C167.523 136.012 162.935 127.036 156.756 119.565C156.258 118.936 155.744 118.306 155.215 117.688C155.015 117.455 154.805 117.23 154.598 116.997C154.208 116.555 153.822 116.11 153.421 115.675C152.738 114.948 152.033 114.275 151.326 113.593C151.024 113.296 150.729 112.979 150.418 112.688C144.785 107.387 138.454 103.336 131.839 100.572C117.78 94.7033 102.453 94.701 89.7821 100.885C89.3348 101.102 88.8742 101.29 88.4313 101.523C93.7509 100.445 99.3989 100.268 105.144 100.981C117.707 102.537 130.755 108.334 141.859 118.247C148.15 123.872 153.188 130.273 156.934 137.005C162.805 147.554 165.429 158.913 164.57 169.439C164.175 174.335 163.058 179.064 161.108 183.421L161.11 183.419C161.302 183.26 161.52 183.126 161.712 182.974C162.137 182.651 162.549 182.321 163.003 182.024C164.292 181.176 165.718 180.474 167.201 179.86C167.67 179.667 168.126 179.442 168.616 179.273H168.62C173.814 177.493 179.912 177.16 186.106 178.685C200.586 182.25 210.024 194.571 207.188 206.199L161.385 194.921L160.588 194.721L154.755 193.288L154.75 193.286V193.282L114.633 157.457L111.283 154.466C105.693 155.496 100.128 155.447 94.78 154.53C88.7001 153.489 82.8869 151.304 77.6576 148.095L77.4835 147.99H43.5825C42.4763 147.99 41.4516 147.655 40.5811 147.103C39.8385 146.634 39.2193 145.998 38.7632 145.246C38.2497 144.394 37.9324 143.408 37.9324 142.345C37.9324 139.238 40.4732 136.703 43.5825 136.703H70.1872C73.2922 136.703 75.8396 134.161 75.8396 131.061C75.8396 127.956 73.2922 125.414 70.1872 125.414H-22.9149C-24.0895 125.414 -25.1803 125.051 -26.086 124.433C-27.5823 123.416 -28.5673 121.706 -28.5673 119.774C-28.5673 118.586 -28.1861 117.483 -27.5514 116.57C-26.5267 115.102 -24.8321 114.132 -22.9149 114.132H57.1196C60.2311 114.132 62.7742 111.59 62.7742 108.49C62.7742 105.385 60.2311 102.843 57.1196 102.843H-81.4858V102.845C-81.3338 103.45 -81.1619 104.047 -81.0209 104.656C-78.5153 115.615 -78.9076 126.561 -81.6842 136.701L-62.9773 136.703C-59.8636 136.703 -57.3272 139.238 -57.3272 142.345C-57.3272 143.793 -57.8825 145.109 -58.7882 146.106C-59.6961 147.101 -60.9566 147.772 -62.3647 147.928H-95.6884C-97.8083 147.928 -99.6461 149.125 -100.614 150.87C-100.763 151.145 -100.867 151.449 -100.977 151.751C-101.186 152.325 -101.339 152.926 -101.339 153.57C-101.339 155.888 -99.9194 157.888 -97.9074 158.751C-97.2265 159.045 -96.4751 159.21 -95.6884 159.21H35.407C38.5163 159.21 41.0594 161.752 41.0594 164.855C41.0594 167.958 38.5163 170.499 35.407 170.499H-99.8599C-102.967 170.499 -105.51 173.034 -105.51 176.142C-105.51 179.244 -102.967 181.782 -99.8599 181.782H-33.671C-31.3637 181.782 -29.3672 183.192 -28.4946 185.184C-28.1927 185.87 -28.0208 186.632 -28.0208 187.424C-28.0208 188.568 -28.3844 189.624 -28.9794 190.518C-29.7595 191.682 -30.9539 192.558 -32.3598 192.897C-32.7741 193 -33.206 193.064 -33.6533 193.064C-33.6555 193.064 -33.6555 193.066 -33.6577 193.066C-33.6621 193.068 -33.6666 193.07 -33.671 193.07H-63.2418C-63.2131 193.079 -63.1933 193.092 -63.1647 193.101C-63.4071 193.117 -63.6451 193.154 -63.8808 193.198C-64.2378 193.262 -64.5882 193.35 -64.9232 193.484C-65.2251 193.607 -65.5071 193.761 -65.7804 193.931C-67.3846 194.932 -68.4622 196.693 -68.4622 198.71C-68.4622 198.82 -68.4248 198.92 -68.4182 199.027C-68.3939 199.388 -68.3565 199.751 -68.2705 200.097C-68.081 200.814 -67.7482 201.47 -67.3163 202.051C-67.2017 202.209 -67.0893 202.37 -66.9593 202.513C-65.9302 203.644 -64.4516 204.353 -62.8121 204.353H-45.7161L-45.7051 204.368H-9.53651C-7.60391 204.368 -5.89169 205.35 -4.87141 206.842C-4.24998 207.744 -3.88637 208.833 -3.88637 210.008C-3.88637 211.535 -4.50562 212.922 -5.49947 213.941C-5.51709 213.958 -5.52809 213.978 -5.54572 213.996C-5.56555 214.013 -5.5898 214.026 -5.60742 214.046C-6.62772 215.034 -8.0116 215.653 -9.53651 215.653H-36.9213L-36.9169 215.664H-37.6684C-39.6098 215.664 -41.3308 216.658 -42.3489 218.159C-42.9615 219.059 -43.3208 220.146 -43.3208 221.306C-43.3208 222.857 -42.6839 224.272 -41.6592 225.291C-40.6345 226.316 -39.2219 226.952 -37.6684 226.952L-32.1063 226.957V226.961C-31.3681 226.955 -30.6409 227.012 -29.9093 227.056C-29.592 227.076 -29.2703 227.067 -28.9551 227.098C-28.3624 227.155 -27.7784 227.247 -27.1922 227.34C-24.6889 227.734 -22.2582 228.422 -19.9664 229.415C-12.6657 232.568 -6.72246 238.58 -3.80042 246.366C-3.33545 247.605 -2.92999 248.883 -2.62808 250.212C-2.58182 250.399 -2.55536 250.586 -2.51349 250.773C-2.10141 250.685 -1.68933 250.622 -1.27725 250.551C-0.120331 250.355 1.03441 250.226 2.18251 250.166C3.26891 250.109 4.3465 250.096 5.41968 250.155C8.46512 247.459 11.8191 245.065 15.4287 243.019C18.6504 241.19 22.0793 239.632 25.6999 238.409C26.5505 238.12 27.4187 237.854 28.2914 237.603C28.5272 237.535 28.763 237.473 28.9987 237.405C29.8494 237.172 30.7 236.947 31.5682 236.749C46.7293 233.286 61.853 235.944 74.3653 243.094C77.5518 244.916 80.5775 247.017 83.3783 249.398C86.8953 252.373 90.0708 255.78 92.8364 259.541C94.0836 259.483 95.3199 259.474 96.5628 259.457C99.7735 259.417 102.964 259.527 106.131 259.776C108.712 259.978 111.281 260.24 113.822 260.63C114.835 260.784 115.829 261.008 116.836 261.193C119.419 261.664 121.973 262.23 124.503 262.883C125.503 263.147 126.517 263.363 127.506 263.653C127.621 263.689 127.729 263.722 127.844 263.757C128.024 263.814 128.205 263.871 128.384 263.926C135.058 258.616 142.879 254.574 151.568 252.197C152.456 251.957 153.346 251.711 154.252 251.506C166.271 248.76 178.268 249.55 189.16 253.192L189.163 253.194C209.817 260.099 226.488 277.257 231.726 300H-137.943V53.8521C-133.71 54.3296 -129.565 55.212 -125.557 56.4773C-119.402 58.4182 -113.584 61.2636 -108.276 64.8681C-98.5928 71.4367 -90.62 80.5581 -85.5163 91.5609H55.3302C55.7379 90.0491 56.2073 88.5681 56.7516 87.1113C58.2633 83.0403 60.3171 79.2179 62.7984 75.7036C62.9769 75.4506 63.1311 75.1821 63.314 74.9312C62.1086 73.8706 61.0355 72.7307 60.0725 71.5402C56.2558 66.8156 54.3782 61.2372 54.733 56.1121C54.9446 52.9278 56.0045 49.9197 58.0143 47.4066L69.8567 56.8646L76.8268 62.4321C77.4835 62.0272 78.1711 61.6663 78.8498 61.2922C82.2258 59.4239 85.864 57.9495 89.7447 56.9351C90.2096 56.8118 90.6592 56.6622 91.133 56.5544C95.2825 55.5971 99.4363 55.2296 103.506 55.3837H103.511C109.525 55.6081 115.358 56.9901 120.761 59.3447C120.77 59.3447 120.774 59.3491 120.783 59.3557C139.849 67.1853 161.621 83.6917 171.489 104.538H171.494C171.494 104.538 171.505 104.562 171.524 104.601C171.729 105.048 171.932 105.499 172.133 105.95C174.231 110.334 181.216 123.049 188.865 115.908C188.874 115.899 188.885 115.89 188.894 115.881C190.059 110.921 192.565 106.397 196.115 102.795C183.294 98.409 169.955 89.0368 159.001 75.6134C136.667 48.223 132.753 14.3741 150.255 0H150.261L165.312 18.4583ZM229.003 123.133C229.986 123.751 231.134 123.869 232.176 123.576C232.852 123.387 233.485 123.027 233.991 122.493C234.168 122.308 234.328 122.106 234.467 121.88C235.052 120.954 235.199 119.88 234.977 118.889C234.787 118.061 234.315 117.303 233.63 116.734C233.494 116.625 233.364 116.508 233.215 116.414C232.349 115.869 231.346 115.714 230.408 115.886C229.349 116.076 228.37 116.683 227.756 117.669C227.497 118.08 227.332 118.521 227.24 118.971C227.233 119.027 227.209 119.083 227.196 119.139C227.192 119.163 227.196 119.186 227.192 119.21C226.974 120.715 227.633 122.274 229.003 123.133Z" fill="#4F0733"/>
<path d="M229.001 123.13C229.986 123.748 231.134 123.869 232.176 123.578C232.853 123.389 233.486 123.029 233.992 122.495C234.167 122.31 234.325 122.107 234.465 121.883C235.049 120.953 235.2 119.878 234.978 118.89C234.787 118.06 234.316 117.302 233.631 116.734C233.495 116.624 233.369 116.51 233.218 116.415C232.347 115.868 231.346 115.715 230.408 115.885C229.349 116.075 228.369 116.682 227.753 117.666C227.496 118.078 227.334 118.521 227.243 118.969C227.232 119.027 227.207 119.083 227.196 119.139C227.191 119.163 227.196 119.187 227.191 119.211C226.975 120.712 227.632 122.273 229.001 123.13Z" fill="#E9715E"/>
<path d="M124.72 174.94L119.811 170.621C119.598 171.434 119.356 172.223 119.079 172.984C118.042 175.845 116.569 178.337 114.874 180.517C113.408 182.406 111.775 184.069 110.1 185.493C109.341 185.184 108.552 184.93 107.741 184.702C105.409 184.045 102.881 183.751 100.265 183.841C97.7455 183.933 95.1516 184.364 92.5643 185.221C90.021 186.067 87.7173 187.244 85.6685 188.646C83.4176 190.189 81.4831 192.005 79.9619 194.012C79.5465 194.56 79.1618 195.119 78.8079 195.693C78.421 196.322 78.0759 196.97 77.7659 197.625C76.735 199.775 76.1283 202.038 76.0337 204.308C75.9546 206.088 76.1898 207.869 76.7701 209.605L77.2428 209.449L93.0282 204.21L107.655 199.361C107.945 199.286 108.257 199.203 108.559 199.126C109.099 198.99 109.653 198.835 110.231 198.671C110.475 198.6 110.702 198.541 110.948 198.465C113.436 197.72 115.665 196.961 117.699 196.206C133.012 190.506 136.008 184.89 136.017 184.868L136.019 184.866L124.72 174.94Z" fill="#4F0733"/>
<path d="M230.547 98.8701L230.545 98.8657L176.345 4.51978C171.118 7.55098 167.295 12.3234 164.887 18.2163V18.2207L230.547 98.8701Z" fill="#E9715E"/>
</g>
<defs>
<clipPath id="clip0_1093_8896">
<rect width="660" height="300" fill="white" transform="translate(-417)"/>
</clipPath>
</defs>
</svg>
